<?xml version="1.0" encoding="utf-8" standalone="no"?>
<!DOCTYPE svg PUBLIC "-//W3C//DTD SVG 1.1//EN"
  "http://www.w3.org/Graphics/SVG/1.1/DTD/svg11.dtd">
<svg xmlns:xlink="http://www.w3.org/1999/xlink" width="625.089175pt" height="310.86825pt" viewBox="0 0 625.089175 310.86825" xmlns="http://www.w3.org/2000/svg" version="1.1">
 <metadata>
  <rdf:RDF xmlns:dc="http://purl.org/dc/elements/1.1/" xmlns:cc="http://creativecommons.org/ns#" xmlns:rdf="http://www.w3.org/1999/02/22-rdf-syntax-ns#">
   <cc:Work>
    <dc:type rdf:resource="http://purl.org/dc/dcmitype/StillImage"/>
    <dc:date>2024-08-14T13:26:27.409038</dc:date>
    <dc:format>image/svg+xml</dc:format>
    <dc:creator>
     <cc:Agent>
      <dc:title>Matplotlib v3.8.4, https://matplotlib.org/</dc:title>
     </cc:Agent>
    </dc:creator>
   </cc:Work>
  </rdf:RDF>
 </metadata>
 <defs>
  <style type="text/css">*{stroke-linejoin: round; stroke-linecap: butt}</style>
 </defs>
 <g id="figure_1">
  <g id="patch_1">
   <path d="M 0 310.86825 
L 625.089175 310.86825 
L 625.089175 0 
L 0 0 
z
" style="fill: #ffffff"/>
  </g>
  <g id="axes_1">
   <g id="patch_2">
    <path d="M 50.14375 273.312 
L 407.26375 273.312 
L 407.26375 7.2 
L 50.14375 7.2 
z
" style="fill: #ffffff"/>
   </g>
   <g id="matplotlib.axis_1">
    <g id="xtick_1">
     <g id="line2d_1">
      <defs>
       <path id="ma25666bfee" d="M 0 0 
L 0 3.5 
" style="stroke: #000000; stroke-width: 0.8"/>
      </defs>
      <g>
       <use xlink:href="#ma25666bfee" x="66.376477" y="273.312" style="stroke: #000000; stroke-width: 0.8"/>
      </g>
     </g>
     <g id="text_1">
      <!-- 0 -->
      <g transform="translate(63.195227 287.910437) scale(0.1 -0.1)">
       <defs>
        <path id="DejaVuSans-30" d="M 2034 4250 
Q 1547 4250 1301 3770 
Q 1056 3291 1056 2328 
Q 1056 1369 1301 889 
Q 1547 409 2034 409 
Q 2525 409 2770 889 
Q 3016 1369 3016 2328 
Q 3016 3291 2770 3770 
Q 2525 4250 2034 4250 
z
M 2034 4750 
Q 2819 4750 3233 4129 
Q 3647 3509 3647 2328 
Q 3647 1150 3233 529 
Q 2819 -91 2034 -91 
Q 1250 -91 836 529 
Q 422 1150 422 2328 
Q 422 3509 836 4129 
Q 1250 4750 2034 4750 
z
" transform="scale(0.015625)"/>
       </defs>
       <use xlink:href="#DejaVuSans-30"/>
      </g>
     </g>
    </g>
    <g id="xtick_2">
     <g id="line2d_2">
      <g>
       <use xlink:href="#ma25666bfee" x="131.307386" y="273.312" style="stroke: #000000; stroke-width: 0.8"/>
      </g>
     </g>
     <g id="text_2">
      <!-- 1 -->
      <g transform="translate(128.126136 287.910437) scale(0.1 -0.1)">
       <defs>
        <path id="DejaVuSans-31" d="M 794 531 
L 1825 531 
L 1825 4091 
L 703 3866 
L 703 4441 
L 1819 4666 
L 2450 4666 
L 2450 531 
L 3481 531 
L 3481 0 
L 794 0 
L 794 531 
z
" transform="scale(0.015625)"/>
       </defs>
       <use xlink:href="#DejaVuSans-31"/>
      </g>
     </g>
    </g>
    <g id="xtick_3">
     <g id="line2d_3">
      <g>
       <use xlink:href="#ma25666bfee" x="196.238295" y="273.312" style="stroke: #000000; stroke-width: 0.8"/>
      </g>
     </g>
     <g id="text_3">
      <!-- 2 -->
      <g transform="translate(193.057045 287.910437) scale(0.1 -0.1)">
       <defs>
        <path id="DejaVuSans-32" d="M 1228 531 
L 3431 531 
L 3431 0 
L 469 0 
L 469 531 
Q 828 903 1448 1529 
Q 2069 2156 2228 2338 
Q 2531 2678 2651 2914 
Q 2772 3150 2772 3378 
Q 2772 3750 2511 3984 
Q 2250 4219 1831 4219 
Q 1534 4219 1204 4116 
Q 875 4013 500 3803 
L 500 4441 
Q 881 4594 1212 4672 
Q 1544 4750 1819 4750 
Q 2544 4750 2975 4387 
Q 3406 4025 3406 3419 
Q 3406 3131 3298 2873 
Q 3191 2616 2906 2266 
Q 2828 2175 2409 1742 
Q 1991 1309 1228 531 
z
" transform="scale(0.015625)"/>
       </defs>
       <use xlink:href="#DejaVuSans-32"/>
      </g>
     </g>
    </g>
    <g id="xtick_4">
     <g id="line2d_4">
      <g>
       <use xlink:href="#ma25666bfee" x="261.169205" y="273.312" style="stroke: #000000; stroke-width: 0.8"/>
      </g>
     </g>
     <g id="text_4">
      <!-- 3 -->
      <g transform="translate(257.987955 287.910437) scale(0.1 -0.1)">
       <defs>
        <path id="DejaVuSans-33" d="M 2597 2516 
Q 3050 2419 3304 2112 
Q 3559 1806 3559 1356 
Q 3559 666 3084 287 
Q 2609 -91 1734 -91 
Q 1441 -91 1130 -33 
Q 819 25 488 141 
L 488 750 
Q 750 597 1062 519 
Q 1375 441 1716 441 
Q 2309 441 2620 675 
Q 2931 909 2931 1356 
Q 2931 1769 2642 2001 
Q 2353 2234 1838 2234 
L 1294 2234 
L 1294 2753 
L 1863 2753 
Q 2328 2753 2575 2939 
Q 2822 3125 2822 3475 
Q 2822 3834 2567 4026 
Q 2313 4219 1838 4219 
Q 1578 4219 1281 4162 
Q 984 4106 628 3988 
L 628 4550 
Q 988 4650 1302 4700 
Q 1616 4750 1894 4750 
Q 2613 4750 3031 4423 
Q 3450 4097 3450 3541 
Q 3450 3153 3228 2886 
Q 3006 2619 2597 2516 
z
" transform="scale(0.015625)"/>
       </defs>
       <use xlink:href="#DejaVuSans-33"/>
      </g>
     </g>
    </g>
    <g id="xtick_5">
     <g id="line2d_5">
      <g>
       <use xlink:href="#ma25666bfee" x="326.100114" y="273.312" style="stroke: #000000; stroke-width: 0.8"/>
      </g>
     </g>
     <g id="text_5">
      <!-- 4 -->
      <g transform="translate(322.918864 287.910437) scale(0.1 -0.1)">
       <defs>
        <path id="DejaVuSans-34" d="M 2419 4116 
L 825 1625 
L 2419 1625 
L 2419 4116 
z
M 2253 4666 
L 3047 4666 
L 3047 1625 
L 3713 1625 
L 3713 1100 
L 3047 1100 
L 3047 0 
L 2419 0 
L 2419 1100 
L 313 1100 
L 313 1709 
L 2253 4666 
z
" transform="scale(0.015625)"/>
       </defs>
       <use xlink:href="#DejaVuSans-34"/>
      </g>
     </g>
    </g>
    <g id="xtick_6">
     <g id="line2d_6">
      <g>
       <use xlink:href="#ma25666bfee" x="391.031023" y="273.312" style="stroke: #000000; stroke-width: 0.8"/>
      </g>
     </g>
     <g id="text_6">
      <!-- 5 -->
      <g transform="translate(387.849773 287.910437) scale(0.1 -0.1)">
       <defs>
        <path id="DejaVuSans-35" d="M 691 4666 
L 3169 4666 
L 3169 4134 
L 1269 4134 
L 1269 2991 
Q 1406 3038 1543 3061 
Q 1681 3084 1819 3084 
Q 2600 3084 3056 2656 
Q 3513 2228 3513 1497 
Q 3513 744 3044 326 
Q 2575 -91 1722 -91 
Q 1428 -91 1123 -41 
Q 819 9 494 109 
L 494 744 
Q 775 591 1075 516 
Q 1375 441 1709 441 
Q 2250 441 2565 725 
Q 2881 1009 2881 1497 
Q 2881 1984 2565 2268 
Q 2250 2553 1709 2553 
Q 1456 2553 1204 2497 
Q 953 2441 691 2322 
L 691 4666 
z
" transform="scale(0.015625)"/>
       </defs>
       <use xlink:href="#DejaVuSans-35"/>
      </g>
     </g>
    </g>
    <g id="text_7">
     <!-- Time (ms) -->
     <g transform="translate(203.504531 301.588562) scale(0.1 -0.1)">
      <defs>
       <path id="DejaVuSans-54" d="M -19 4666 
L 3928 4666 
L 3928 4134 
L 2272 4134 
L 2272 0 
L 1638 0 
L 1638 4134 
L -19 4134 
L -19 4666 
z
" transform="scale(0.015625)"/>
       <path id="DejaVuSans-69" d="M 603 3500 
L 1178 3500 
L 1178 0 
L 603 0 
L 603 3500 
z
M 603 4863 
L 1178 4863 
L 1178 4134 
L 603 4134 
L 603 4863 
z
" transform="scale(0.015625)"/>
       <path id="DejaVuSans-6d" d="M 3328 2828 
Q 3544 3216 3844 3400 
Q 4144 3584 4550 3584 
Q 5097 3584 5394 3201 
Q 5691 2819 5691 2113 
L 5691 0 
L 5113 0 
L 5113 2094 
Q 5113 2597 4934 2840 
Q 4756 3084 4391 3084 
Q 3944 3084 3684 2787 
Q 3425 2491 3425 1978 
L 3425 0 
L 2847 0 
L 2847 2094 
Q 2847 2600 2669 2842 
Q 2491 3084 2119 3084 
Q 1678 3084 1418 2786 
Q 1159 2488 1159 1978 
L 1159 0 
L 581 0 
L 581 3500 
L 1159 3500 
L 1159 2956 
Q 1356 3278 1631 3431 
Q 1906 3584 2284 3584 
Q 2666 3584 2933 3390 
Q 3200 3197 3328 2828 
z
" transform="scale(0.015625)"/>
       <path id="DejaVuSans-65" d="M 3597 1894 
L 3597 1613 
L 953 1613 
Q 991 1019 1311 708 
Q 1631 397 2203 397 
Q 2534 397 2845 478 
Q 3156 559 3463 722 
L 3463 178 
Q 3153 47 2828 -22 
Q 2503 -91 2169 -91 
Q 1331 -91 842 396 
Q 353 884 353 1716 
Q 353 2575 817 3079 
Q 1281 3584 2069 3584 
Q 2775 3584 3186 3129 
Q 3597 2675 3597 1894 
z
M 3022 2063 
Q 3016 2534 2758 2815 
Q 2500 3097 2075 3097 
Q 1594 3097 1305 2825 
Q 1016 2553 972 2059 
L 3022 2063 
z
" transform="scale(0.015625)"/>
       <path id="DejaVuSans-20" transform="scale(0.015625)"/>
       <path id="DejaVuSans-28" d="M 1984 4856 
Q 1566 4138 1362 3434 
Q 1159 2731 1159 2009 
Q 1159 1288 1364 580 
Q 1569 -128 1984 -844 
L 1484 -844 
Q 1016 -109 783 600 
Q 550 1309 550 2009 
Q 550 2706 781 3412 
Q 1013 4119 1484 4856 
L 1984 4856 
z
" transform="scale(0.015625)"/>
       <path id="DejaVuSans-73" d="M 2834 3397 
L 2834 2853 
Q 2591 2978 2328 3040 
Q 2066 3103 1784 3103 
Q 1356 3103 1142 2972 
Q 928 2841 928 2578 
Q 928 2378 1081 2264 
Q 1234 2150 1697 2047 
L 1894 2003 
Q 2506 1872 2764 1633 
Q 3022 1394 3022 966 
Q 3022 478 2636 193 
Q 2250 -91 1575 -91 
Q 1294 -91 989 -36 
Q 684 19 347 128 
L 347 722 
Q 666 556 975 473 
Q 1284 391 1588 391 
Q 1994 391 2212 530 
Q 2431 669 2431 922 
Q 2431 1156 2273 1281 
Q 2116 1406 1581 1522 
L 1381 1569 
Q 847 1681 609 1914 
Q 372 2147 372 2553 
Q 372 3047 722 3315 
Q 1072 3584 1716 3584 
Q 2034 3584 2315 3537 
Q 2597 3491 2834 3397 
z
" transform="scale(0.015625)"/>
       <path id="DejaVuSans-29" d="M 513 4856 
L 1013 4856 
Q 1481 4119 1714 3412 
Q 1947 2706 1947 2009 
Q 1947 1309 1714 600 
Q 1481 -109 1013 -844 
L 513 -844 
Q 928 -128 1133 580 
Q 1338 1288 1338 2009 
Q 1338 2731 1133 3434 
Q 928 4138 513 4856 
z
" transform="scale(0.015625)"/>
      </defs>
      <use xlink:href="#DejaVuSans-54"/>
      <use xlink:href="#DejaVuSans-69" x="57.958984"/>
      <use xlink:href="#DejaVuSans-6d" x="85.742188"/>
      <use xlink:href="#DejaVuSans-65" x="183.154297"/>
      <use xlink:href="#DejaVuSans-20" x="244.677734"/>
      <use xlink:href="#DejaVuSans-28" x="276.464844"/>
      <use xlink:href="#DejaVuSans-6d" x="315.478516"/>
      <use xlink:href="#DejaVuSans-73" x="412.890625"/>
      <use xlink:href="#DejaVuSans-29" x="464.990234"/>
     </g>
    </g>
    <g id="text_8">
     <!-- 1e−7 -->
     <g transform="translate(380.005938 300.588562) scale(0.1 -0.1)">
      <defs>
       <path id="DejaVuSans-2212" d="M 678 2272 
L 4684 2272 
L 4684 1741 
L 678 1741 
L 678 2272 
z
" transform="scale(0.015625)"/>
       <path id="DejaVuSans-37" d="M 525 4666 
L 3525 4666 
L 3525 4397 
L 1831 0 
L 1172 0 
L 2766 4134 
L 525 4134 
L 525 4666 
z
" transform="scale(0.015625)"/>
      </defs>
      <use xlink:href="#DejaVuSans-31"/>
      <use xlink:href="#DejaVuSans-65" x="63.623047"/>
      <use xlink:href="#DejaVuSans-2212" x="125.146484"/>
      <use xlink:href="#DejaVuSans-37" x="208.935547"/>
     </g>
    </g>
   </g>
   <g id="matplotlib.axis_2">
    <g id="ytick_1">
     <g id="line2d_7">
      <defs>
       <path id="ma1757d0798" d="M 0 0 
L -3.5 0 
" style="stroke: #000000; stroke-width: 0.8"/>
      </defs>
      <g>
       <use xlink:href="#ma1757d0798" x="50.14375" y="261.216" style="stroke: #000000; stroke-width: 0.8"/>
      </g>
     </g>
     <g id="text_9">
      <!-- 0.00 -->
      <g transform="translate(20.878125 265.015219) scale(0.1 -0.1)">
       <defs>
        <path id="DejaVuSans-2e" d="M 684 794 
L 1344 794 
L 1344 0 
L 684 0 
L 684 794 
z
" transform="scale(0.015625)"/>
       </defs>
       <use xlink:href="#DejaVuSans-30"/>
       <use xlink:href="#DejaVuSans-2e" x="63.623047"/>
       <use xlink:href="#DejaVuSans-30" x="95.410156"/>
       <use xlink:href="#DejaVuSans-30" x="159.033203"/>
      </g>
     </g>
    </g>
    <g id="ytick_2">
     <g id="line2d_8">
      <g>
       <use xlink:href="#ma1757d0798" x="50.14375" y="227.616" style="stroke: #000000; stroke-width: 0.8"/>
      </g>
     </g>
     <g id="text_10">
      <!-- 0.25 -->
      <g transform="translate(20.878125 231.415219) scale(0.1 -0.1)">
       <use xlink:href="#DejaVuSans-30"/>
       <use xlink:href="#DejaVuSans-2e" x="63.623047"/>
       <use xlink:href="#DejaVuSans-32" x="95.410156"/>
       <use xlink:href="#DejaVuSans-35" x="159.033203"/>
      </g>
     </g>
    </g>
    <g id="ytick_3">
     <g id="line2d_9">
      <g>
       <use xlink:href="#ma1757d0798" x="50.14375" y="194.016" style="stroke: #000000; stroke-width: 0.8"/>
      </g>
     </g>
     <g id="text_11">
      <!-- 0.50 -->
      <g transform="translate(20.878125 197.815219) scale(0.1 -0.1)">
       <use xlink:href="#DejaVuSans-30"/>
       <use xlink:href="#DejaVuSans-2e" x="63.623047"/>
       <use xlink:href="#DejaVuSans-35" x="95.410156"/>
       <use xlink:href="#DejaVuSans-30" x="159.033203"/>
      </g>
     </g>
    </g>
    <g id="ytick_4">
     <g id="line2d_10">
      <g>
       <use xlink:href="#ma1757d0798" x="50.14375" y="160.416" style="stroke: #000000; stroke-width: 0.8"/>
      </g>
     </g>
     <g id="text_12">
      <!-- 0.75 -->
      <g transform="translate(20.878125 164.215219) scale(0.1 -0.1)">
       <use xlink:href="#DejaVuSans-30"/>
       <use xlink:href="#DejaVuSans-2e" x="63.623047"/>
       <use xlink:href="#DejaVuSans-37" x="95.410156"/>
       <use xlink:href="#DejaVuSans-35" x="159.033203"/>
      </g>
     </g>
    </g>
    <g id="ytick_5">
     <g id="line2d_11">
      <g>
       <use xlink:href="#ma1757d0798" x="50.14375" y="126.816" style="stroke: #000000; stroke-width: 0.8"/>
      </g>
     </g>
     <g id="text_13">
      <!-- 1.00 -->
      <g transform="translate(20.878125 130.615219) scale(0.1 -0.1)">
       <use xlink:href="#DejaVuSans-31"/>
       <use xlink:href="#DejaVuSans-2e" x="63.623047"/>
       <use xlink:href="#DejaVuSans-30" x="95.410156"/>
       <use xlink:href="#DejaVuSans-30" x="159.033203"/>
      </g>
     </g>
    </g>
    <g id="ytick_6">
     <g id="line2d_12">
      <g>
       <use xlink:href="#ma1757d0798" x="50.14375" y="93.216" style="stroke: #000000; stroke-width: 0.8"/>
      </g>
     </g>
     <g id="text_14">
      <!-- 1.25 -->
      <g transform="translate(20.878125 97.015219) scale(0.1 -0.1)">
       <use xlink:href="#DejaVuSans-31"/>
       <use xlink:href="#DejaVuSans-2e" x="63.623047"/>
       <use xlink:href="#DejaVuSans-32" x="95.410156"/>
       <use xlink:href="#DejaVuSans-35" x="159.033203"/>
      </g>
     </g>
    </g>
    <g id="ytick_7">
     <g id="line2d_13">
      <g>
       <use xlink:href="#ma1757d0798" x="50.14375" y="59.616" style="stroke: #000000; stroke-width: 0.8"/>
      </g>
     </g>
     <g id="text_15">
      <!-- 1.50 -->
      <g transform="translate(20.878125 63.415219) scale(0.1 -0.1)">
       <use xlink:href="#DejaVuSans-31"/>
       <use xlink:href="#DejaVuSans-2e" x="63.623047"/>
       <use xlink:href="#DejaVuSans-35" x="95.410156"/>
       <use xlink:href="#DejaVuSans-30" x="159.033203"/>
      </g>
     </g>
    </g>
    <g id="ytick_8">
     <g id="line2d_14">
      <g>
       <use xlink:href="#ma1757d0798" x="50.14375" y="26.016" style="stroke: #000000; stroke-width: 0.8"/>
      </g>
     </g>
     <g id="text_16">
      <!-- 1.75 -->
      <g transform="translate(20.878125 29.815219) scale(0.1 -0.1)">
       <use xlink:href="#DejaVuSans-31"/>
       <use xlink:href="#DejaVuSans-2e" x="63.623047"/>
       <use xlink:href="#DejaVuSans-37" x="95.410156"/>
       <use xlink:href="#DejaVuSans-35" x="159.033203"/>
      </g>
     </g>
    </g>
    <g id="text_17">
     <!-- Vout (V), Vinp (V) -->
     <g transform="translate(14.798438 183.516937) rotate(-90) scale(0.1 -0.1)">
      <defs>
       <path id="DejaVuSans-56" d="M 1831 0 
L 50 4666 
L 709 4666 
L 2188 738 
L 3669 4666 
L 4325 4666 
L 2547 0 
L 1831 0 
z
" transform="scale(0.015625)"/>
       <path id="DejaVuSans-6f" d="M 1959 3097 
Q 1497 3097 1228 2736 
Q 959 2375 959 1747 
Q 959 1119 1226 758 
Q 1494 397 1959 397 
Q 2419 397 2687 759 
Q 2956 1122 2956 1747 
Q 2956 2369 2687 2733 
Q 2419 3097 1959 3097 
z
M 1959 3584 
Q 2709 3584 3137 3096 
Q 3566 2609 3566 1747 
Q 3566 888 3137 398 
Q 2709 -91 1959 -91 
Q 1206 -91 779 398 
Q 353 888 353 1747 
Q 353 2609 779 3096 
Q 1206 3584 1959 3584 
z
" transform="scale(0.015625)"/>
       <path id="DejaVuSans-75" d="M 544 1381 
L 544 3500 
L 1119 3500 
L 1119 1403 
Q 1119 906 1312 657 
Q 1506 409 1894 409 
Q 2359 409 2629 706 
Q 2900 1003 2900 1516 
L 2900 3500 
L 3475 3500 
L 3475 0 
L 2900 0 
L 2900 538 
Q 2691 219 2414 64 
Q 2138 -91 1772 -91 
Q 1169 -91 856 284 
Q 544 659 544 1381 
z
M 1991 3584 
L 1991 3584 
z
" transform="scale(0.015625)"/>
       <path id="DejaVuSans-74" d="M 1172 4494 
L 1172 3500 
L 2356 3500 
L 2356 3053 
L 1172 3053 
L 1172 1153 
Q 1172 725 1289 603 
Q 1406 481 1766 481 
L 2356 481 
L 2356 0 
L 1766 0 
Q 1100 0 847 248 
Q 594 497 594 1153 
L 594 3053 
L 172 3053 
L 172 3500 
L 594 3500 
L 594 4494 
L 1172 4494 
z
" transform="scale(0.015625)"/>
       <path id="DejaVuSans-2c" d="M 750 794 
L 1409 794 
L 1409 256 
L 897 -744 
L 494 -744 
L 750 256 
L 750 794 
z
" transform="scale(0.015625)"/>
       <path id="DejaVuSans-6e" d="M 3513 2113 
L 3513 0 
L 2938 0 
L 2938 2094 
Q 2938 2591 2744 2837 
Q 2550 3084 2163 3084 
Q 1697 3084 1428 2787 
Q 1159 2491 1159 1978 
L 1159 0 
L 581 0 
L 581 3500 
L 1159 3500 
L 1159 2956 
Q 1366 3272 1645 3428 
Q 1925 3584 2291 3584 
Q 2894 3584 3203 3211 
Q 3513 2838 3513 2113 
z
" transform="scale(0.015625)"/>
       <path id="DejaVuSans-70" d="M 1159 525 
L 1159 -1331 
L 581 -1331 
L 581 3500 
L 1159 3500 
L 1159 2969 
Q 1341 3281 1617 3432 
Q 1894 3584 2278 3584 
Q 2916 3584 3314 3078 
Q 3713 2572 3713 1747 
Q 3713 922 3314 415 
Q 2916 -91 2278 -91 
Q 1894 -91 1617 61 
Q 1341 213 1159 525 
z
M 3116 1747 
Q 3116 2381 2855 2742 
Q 2594 3103 2138 3103 
Q 1681 3103 1420 2742 
Q 1159 2381 1159 1747 
Q 1159 1113 1420 752 
Q 1681 391 2138 391 
Q 2594 391 2855 752 
Q 3116 1113 3116 1747 
z
" transform="scale(0.015625)"/>
      </defs>
      <use xlink:href="#DejaVuSans-56"/>
      <use xlink:href="#DejaVuSans-6f" x="60.658203"/>
      <use xlink:href="#DejaVuSans-75" x="121.839844"/>
      <use xlink:href="#DejaVuSans-74" x="185.21875"/>
      <use xlink:href="#DejaVuSans-20" x="224.427734"/>
      <use xlink:href="#DejaVuSans-28" x="256.214844"/>
      <use xlink:href="#DejaVuSans-56" x="295.228516"/>
      <use xlink:href="#DejaVuSans-29" x="363.636719"/>
      <use xlink:href="#DejaVuSans-2c" x="402.650391"/>
      <use xlink:href="#DejaVuSans-20" x="434.4375"/>
      <use xlink:href="#DejaVuSans-56" x="466.224609"/>
      <use xlink:href="#DejaVuSans-69" x="532.382812"/>
      <use xlink:href="#DejaVuSans-6e" x="560.166016"/>
      <use xlink:href="#DejaVuSans-70" x="623.544922"/>
      <use xlink:href="#DejaVuSans-20" x="687.021484"/>
      <use xlink:href="#DejaVuSans-28" x="718.808594"/>
      <use xlink:href="#DejaVuSans-56" x="757.822266"/>
      <use xlink:href="#DejaVuSans-29" x="826.230469"/>
     </g>
    </g>
   </g>
   <g id="line2d_15">
    <path d="M 66.376477 227.841041 
L 66.408943 227.841041 
L 66.441408 227.841041 
L 66.506339 227.841041 
L 66.636201 227.841041 
L 66.895925 227.841041 
L 67.415372 227.841041 
L 68.454266 227.841041 
L 70.532055 227.841041 
L 74.687634 227.841041 
L 81.180725 227.841041 
L 87.673815 227.841041 
L 94.166906 227.841041 
L 100.659997 227.841041 
L 107.153088 227.841041 
L 113.646179 227.841041 
L 120.13927 227.841041 
L 126.632361 227.841041 
L 131.307386 227.841041 
L 131.313879 227.826953 
L 131.326866 227.814903 
L 131.352838 227.799453 
L 131.372317 227.791146 
L 131.376166 227.807226 
L 131.383865 227.835714 
L 131.399262 227.851863 
L 131.419958 227.853753 
L 131.451983 227.854354 
L 131.497672 227.855647 
L 131.58905 227.857491 
L 131.771805 227.860407 
L 132.137317 227.862119 
L 132.86834 227.830529 
L 134.330387 227.412666 
L 137.25448 224.624962 
L 143.102666 214.708358 
L 149.595757 202.137862 
L 156.088848 189.771582 
L 162.581939 177.381913 
L 169.075029 165.01635 
L 175.56812 152.666072 
L 182.061211 140.34034 
L 188.554302 128.120617 
L 195.047393 116.788571 
L 201.540484 108.042289 
L 208.033575 102.509099 
L 214.526666 99.202265 
L 221.019757 97.248297 
L 227.512848 96.074644 
L 234.005939 95.363777 
L 240.499029 94.932469 
L 246.99212 94.668629 
L 253.485211 94.510076 
L 259.978302 94.410567 
L 266.471393 94.353236 
L 272.964484 94.3145 
L 279.457575 94.294905 
L 285.950666 94.278698 
L 292.443757 94.273197 
L 298.936848 94.265358 
L 305.429939 94.26512 
L 311.923029 94.260398 
L 318.41612 94.26212 
L 324.909211 94.258569 
L 331.402302 94.261012 
L 337.895393 94.25791 
L 344.388484 94.260609 
L 350.881575 94.257689 
L 357.374666 94.260471 
L 363.867757 94.257631 
L 370.360848 94.260429 
L 376.853939 94.257635 
L 383.347029 94.260425 
L 389.84012 94.25766 
L 391.031023 94.260406 
" clip-path="url(#p97fb902b94)" style="fill: none; stroke: #1f77b4; stroke-width: 1.5; stroke-linecap: square"/>
   </g>
   <g id="line2d_16">
    <path d="M 66.376477 261.216 
L 66.408943 261.216 
L 66.441408 261.216 
L 66.506339 261.216 
L 66.636201 261.216 
L 66.895925 261.216 
L 67.415372 261.216 
L 68.454266 261.216 
L 70.532055 261.216 
L 74.687634 261.216 
L 81.180725 261.216 
L 87.673815 261.216 
L 94.166906 261.216 
L 100.659997 261.216 
L 107.153088 261.216 
L 113.646179 261.216 
L 120.13927 261.216 
L 126.632361 261.216 
L 131.307386 261.216 
L 131.313879 237.024 
L 131.326866 188.64 
L 131.352838 91.872 
L 131.372317 19.296 
L 131.376166 19.296 
L 131.383865 19.296 
L 131.399262 19.296 
L 131.419958 19.296 
L 131.451983 19.296 
L 131.497672 19.296 
L 131.58905 19.296 
L 131.771805 19.296 
L 132.137317 19.296 
L 132.86834 19.296 
L 134.330387 19.296 
L 137.25448 19.296 
L 143.102666 19.296 
L 149.595757 19.296 
L 156.088848 19.296 
L 162.581939 19.296 
L 169.075029 19.296 
L 175.56812 19.296 
L 182.061211 19.296 
L 188.554302 19.296 
L 195.047393 19.296 
L 201.540484 19.296 
L 208.033575 19.296 
L 214.526666 19.296 
L 221.019757 19.296 
L 227.512848 19.296 
L 234.005939 19.296 
L 240.499029 19.296 
L 246.99212 19.296 
L 253.485211 19.296 
L 259.978302 19.296 
L 266.471393 19.296 
L 272.964484 19.296 
L 279.457575 19.296 
L 285.950666 19.296 
L 292.443757 19.296 
L 298.936848 19.296 
L 305.429939 19.296 
L 311.923029 19.296 
L 318.41612 19.296 
L 324.909211 19.296 
L 331.402302 19.296 
L 337.895393 19.296 
L 344.388484 19.296 
L 350.881575 19.296 
L 357.374666 19.296 
L 363.867757 19.296 
L 370.360848 19.296 
L 376.853939 19.296 
L 383.347029 19.296 
L 389.84012 19.296 
L 391.031023 19.296 
" clip-path="url(#p97fb902b94)" style="fill: none; stroke: #ff7f0e; stroke-width: 1.5; stroke-linecap: square"/>
   </g>
   <g id="line2d_17">
    <path d="M 66.376477 232.349088 
L 66.408943 232.349088 
L 66.441408 232.349088 
L 66.506339 232.349088 
L 66.636201 232.349088 
L 66.895925 232.349088 
L 67.415372 232.349088 
L 68.454266 232.349088 
L 70.532055 232.349088 
L 74.687634 232.349088 
L 81.180725 232.349088 
L 87.673815 232.349088 
L 94.166906 232.349088 
L 100.659997 232.349088 
L 107.153088 232.349088 
L 113.646179 232.349088 
L 120.13927 232.349088 
L 126.632361 232.349088 
L 131.307386 232.349088 
L 131.313879 232.337475 
L 131.326866 232.327074 
L 131.352838 232.31048 
L 131.372317 232.301485 
L 131.376437 232.314155 
L 131.384678 232.335672 
L 131.401158 232.349666 
L 131.427285 232.351529 
L 131.458286 232.352521 
L 131.514402 232.353807 
L 131.626633 232.356763 
L 131.851096 232.361082 
L 132.300022 232.367129 
L 133.197872 232.327431 
L 134.993573 231.606775 
L 138.584975 227.164023 
L 143.780113 217.464837 
L 149.534189 206.246355 
L 156.02728 193.682008 
L 162.520371 181.116668 
L 169.013462 168.574504 
L 175.506553 156.052461 
L 181.999644 143.55543 
L 188.492735 131.112271 
L 194.985826 119.132095 
L 201.478917 109.203621 
L 207.972007 102.672496 
L 214.465098 98.848877 
L 220.958189 96.652345 
L 227.45128 95.380548 
L 233.944371 94.640957 
L 240.437462 94.202647 
L 246.930553 93.944795 
L 253.423644 93.793307 
L 259.916735 93.701699 
L 266.409826 93.650486 
L 272.902917 93.61652 
L 279.396007 93.600564 
L 285.889098 93.586619 
L 292.382189 93.583103 
L 298.87528 93.576121 
L 305.368371 93.577002 
L 311.861462 93.572452 
L 318.354553 93.574884 
L 324.847644 93.571194 
L 331.340735 93.574164 
L 337.833826 93.570789 
L 344.326917 93.573935 
L 350.820007 93.570687 
L 357.313098 93.57388 
L 363.806189 93.570694 
L 370.29928 93.573884 
L 376.792371 93.570739 
L 383.285462 93.573911 
L 389.778553 93.570797 
L 391.031023 93.57391 
" clip-path="url(#p97fb902b94)" style="fill: none; stroke: #2ca02c; stroke-width: 1.5; stroke-linecap: square"/>
   </g>
   <g id="line2d_18">
    <path d="M 66.376477 261.216 
L 66.408943 261.216 
L 66.441408 261.216 
L 66.506339 261.216 
L 66.636201 261.216 
L 66.895925 261.216 
L 67.415372 261.216 
L 68.454266 261.216 
L 70.532055 261.216 
L 74.687634 261.216 
L 81.180725 261.216 
L 87.673815 261.216 
L 94.166906 261.216 
L 100.659997 261.216 
L 107.153088 261.216 
L 113.646179 261.216 
L 120.13927 261.216 
L 126.632361 261.216 
L 131.307386 261.216 
L 131.313879 237.024 
L 131.326866 188.64 
L 131.352838 91.872 
L 131.372317 19.296 
L 131.376437 19.296 
L 131.384678 19.296 
L 131.401158 19.296 
L 131.427285 19.296 
L 131.458286 19.296 
L 131.514402 19.296 
L 131.626633 19.296 
L 131.851096 19.296 
L 132.300022 19.296 
L 133.197872 19.296 
L 134.993573 19.296 
L 138.584975 19.296 
L 143.780113 19.296 
L 149.534189 19.296 
L 156.02728 19.296 
L 162.520371 19.296 
L 169.013462 19.296 
L 175.506553 19.296 
L 181.999644 19.296 
L 188.492735 19.296 
L 194.985826 19.296 
L 201.478917 19.296 
L 207.972007 19.296 
L 214.465098 19.296 
L 220.958189 19.296 
L 227.45128 19.296 
L 233.944371 19.296 
L 240.437462 19.296 
L 246.930553 19.296 
L 253.423644 19.296 
L 259.916735 19.296 
L 266.409826 19.296 
L 272.902917 19.296 
L 279.396007 19.296 
L 285.889098 19.296 
L 292.382189 19.296 
L 298.87528 19.296 
L 305.368371 19.296 
L 311.861462 19.296 
L 318.354553 19.296 
L 324.847644 19.296 
L 331.340735 19.296 
L 337.833826 19.296 
L 344.326917 19.296 
L 350.820007 19.296 
L 357.313098 19.296 
L 363.806189 19.296 
L 370.29928 19.296 
L 376.792371 19.296 
L 383.285462 19.296 
L 389.778553 19.296 
L 391.031023 19.296 
" clip-path="url(#p97fb902b94)" style="fill: none; stroke: #d62728; stroke-width: 1.5; stroke-linecap: square"/>
   </g>
   <g id="line2d_19">
    <path d="M 66.376477 230.094935 
L 66.408943 230.094935 
L 66.441408 230.094935 
L 66.506339 230.094935 
L 66.636201 230.094935 
L 66.895925 230.094935 
L 67.415372 230.094935 
L 68.454266 230.094935 
L 70.532055 230.094935 
L 74.687634 230.094935 
L 81.180725 230.094935 
L 87.673815 230.094935 
L 94.166906 230.094935 
L 100.659997 230.094935 
L 107.153088 230.094935 
L 113.646179 230.094935 
L 120.13927 230.094935 
L 126.632361 230.094935 
L 131.307386 230.094935 
L 131.313879 230.082017 
L 131.326866 230.070768 
L 131.352838 230.054853 
L 131.372317 230.046327 
L 131.376298 230.06087 
L 131.384259 230.086226 
L 131.400182 230.101008 
L 131.422651 230.102798 
L 131.454531 230.103501 
L 131.505526 230.104912 
L 131.607515 230.107233 
L 131.811492 230.111039 
L 132.219448 230.114561 
L 133.03536 230.077981 
L 134.667182 229.517487 
L 137.930827 225.922414 
L 144.423918 214.225054 
L 150.917009 201.55251 
L 157.410099 189.108035 
L 163.90319 176.628958 
L 170.396281 164.179786 
L 176.889372 151.747967 
L 183.382463 139.343566 
L 189.875554 127.052237 
L 196.368645 115.705202 
L 202.861736 107.035766 
L 209.354827 101.636543 
L 215.847918 98.458909 
L 222.341009 96.611148 
L 228.834099 95.515986 
L 235.32719 94.86378 
L 241.820281 94.473424 
L 248.313372 94.238482 
L 254.806463 94.099615 
L 261.299554 94.013368 
L 267.792645 93.965092 
L 274.285736 93.932102 
L 280.778827 93.916606 
L 287.271918 93.90273 
L 293.765009 93.899122 
L 300.258099 93.892119 
L 306.75119 93.892822 
L 313.244281 93.8883 
L 319.737372 93.890562 
L 326.230463 93.886945 
L 332.723554 93.889759 
L 339.216645 93.886485 
L 345.709736 93.889486 
L 352.202827 93.88635 
L 358.695918 93.889404 
L 365.189009 93.886333 
L 371.682099 93.889391 
L 378.17519 93.88636 
L 384.668281 93.889402 
L 391.031023 93.886402 
" clip-path="url(#p97fb902b94)" style="fill: none; stroke: #9467bd; stroke-width: 1.5; stroke-linecap: square"/>
   </g>
   <g id="line2d_20">
    <path d="M 66.376477 261.216 
L 66.408943 261.216 
L 66.441408 261.216 
L 66.506339 261.216 
L 66.636201 261.216 
L 66.895925 261.216 
L 67.415372 261.216 
L 68.454266 261.216 
L 70.532055 261.216 
L 74.687634 261.216 
L 81.180725 261.216 
L 87.673815 261.216 
L 94.166906 261.216 
L 100.659997 261.216 
L 107.153088 261.216 
L 113.646179 261.216 
L 120.13927 261.216 
L 126.632361 261.216 
L 131.307386 261.216 
L 131.313879 237.024 
L 131.326866 188.64 
L 131.352838 91.872 
L 131.372317 19.296 
L 131.376298 19.296 
L 131.384259 19.296 
L 131.400182 19.296 
L 131.422651 19.296 
L 131.454531 19.296 
L 131.505526 19.296 
L 131.607515 19.296 
L 131.811492 19.296 
L 132.219448 19.296 
L 133.03536 19.296 
L 134.667182 19.296 
L 137.930827 19.296 
L 144.423918 19.296 
L 150.917009 19.296 
L 157.410099 19.296 
L 163.90319 19.296 
L 170.396281 19.296 
L 176.889372 19.296 
L 183.382463 19.296 
L 189.875554 19.296 
L 196.368645 19.296 
L 202.861736 19.296 
L 209.354827 19.296 
L 215.847918 19.296 
L 222.341009 19.296 
L 228.834099 19.296 
L 235.32719 19.296 
L 241.820281 19.296 
L 248.313372 19.296 
L 254.806463 19.296 
L 261.299554 19.296 
L 267.792645 19.296 
L 274.285736 19.296 
L 280.778827 19.296 
L 287.271918 19.296 
L 293.765009 19.296 
L 300.258099 19.296 
L 306.75119 19.296 
L 313.244281 19.296 
L 319.737372 19.296 
L 326.230463 19.296 
L 332.723554 19.296 
L 339.216645 19.296 
L 345.709736 19.296 
L 352.202827 19.296 
L 358.695918 19.296 
L 365.189009 19.296 
L 371.682099 19.296 
L 378.17519 19.296 
L 384.668281 19.296 
L 391.031023 19.296 
" clip-path="url(#p97fb902b94)" style="fill: none; stroke: #8c564b; stroke-width: 1.5; stroke-linecap: square"/>
   </g>
   <g id="line2d_21">
    <path d="M 66.376477 255.52718 
L 66.408943 255.52718 
L 66.441408 255.52718 
L 66.506339 255.52718 
L 66.636201 255.52718 
L 66.895925 255.52718 
L 67.415372 255.52718 
L 68.454266 255.52718 
L 70.532055 255.52718 
L 74.687634 255.52718 
L 81.180725 255.52718 
L 87.673815 255.52718 
L 94.166906 255.52718 
L 100.659997 255.52718 
L 107.153088 255.52718 
L 113.646179 255.52718 
L 120.13927 255.52718 
L 126.632361 255.52718 
L 131.307386 255.52718 
L 131.313879 255.510024 
L 131.326866 255.486232 
L 131.352838 255.465825 
L 131.372317 255.461516 
L 131.376685 255.483153 
L 131.385419 255.527794 
L 131.402887 255.584718 
L 131.428073 255.599931 
L 131.463708 255.597207 
L 131.511211 255.587437 
L 131.606217 255.565495 
L 131.79623 255.512576 
L 132.176254 255.377219 
L 132.936304 254.984752 
L 134.456404 253.721778 
L 137.496605 249.666857 
L 143.577004 238.689099 
L 150.070095 225.810207 
L 156.563186 212.955033 
L 163.056277 200.110035 
L 169.549368 187.278641 
L 176.042459 174.469077 
L 182.53555 161.675271 
L 189.028641 148.910301 
L 195.521732 136.198027 
L 202.014822 123.671481 
L 208.507913 111.88615 
L 215.001004 101.941275 
L 221.494095 94.548693 
L 227.987186 89.402526 
L 234.480277 85.871512 
L 240.973368 83.451069 
L 247.466459 81.784117 
L 253.95955 80.634753 
L 260.452641 79.83669 
L 266.945732 79.28494 
L 273.438822 78.898817 
L 279.931913 78.632541 
L 286.425004 78.444263 
L 292.918095 78.315928 
L 299.411186 78.223442 
L 305.904277 78.161825 
L 312.397368 78.11588 
L 318.890459 78.086743 
L 325.38355 78.063458 
L 331.876641 78.050143 
L 338.369732 78.037906 
L 344.862822 78.032297 
L 351.355913 78.025452 
L 357.849004 78.023592 
L 364.342095 78.019385 
L 370.835186 78.019346 
L 377.328277 78.016435 
L 383.821368 78.017274 
L 390.314459 78.015002 
L 391.031023 78.016591 
" clip-path="url(#p97fb902b94)" style="fill: none; stroke: #e377c2; stroke-width: 1.5; stroke-linecap: square"/>
   </g>
   <g id="line2d_22">
    <path d="M 66.376477 261.216 
L 66.408943 261.216 
L 66.441408 261.216 
L 66.506339 261.216 
L 66.636201 261.216 
L 66.895925 261.216 
L 67.415372 261.216 
L 68.454266 261.216 
L 70.532055 261.216 
L 74.687634 261.216 
L 81.180725 261.216 
L 87.673815 261.216 
L 94.166906 261.216 
L 100.659997 261.216 
L 107.153088 261.216 
L 113.646179 261.216 
L 120.13927 261.216 
L 126.632361 261.216 
L 131.307386 261.216 
L 131.313879 237.024 
L 131.326866 188.64 
L 131.352838 91.872 
L 131.372317 19.296 
L 131.376685 19.296 
L 131.385419 19.296 
L 131.402887 19.296 
L 131.428073 19.296 
L 131.463708 19.296 
L 131.511211 19.296 
L 131.606217 19.296 
L 131.79623 19.296 
L 132.176254 19.296 
L 132.936304 19.296 
L 134.456404 19.296 
L 137.496605 19.296 
L 143.577004 19.296 
L 150.070095 19.296 
L 156.563186 19.296 
L 163.056277 19.296 
L 169.549368 19.296 
L 176.042459 19.296 
L 182.53555 19.296 
L 189.028641 19.296 
L 195.521732 19.296 
L 202.014822 19.296 
L 208.507913 19.296 
L 215.001004 19.296 
L 221.494095 19.296 
L 227.987186 19.296 
L 234.480277 19.296 
L 240.973368 19.296 
L 247.466459 19.296 
L 253.95955 19.296 
L 260.452641 19.296 
L 266.945732 19.296 
L 273.438822 19.296 
L 279.931913 19.296 
L 286.425004 19.296 
L 292.918095 19.296 
L 299.411186 19.296 
L 305.904277 19.296 
L 312.397368 19.296 
L 318.890459 19.296 
L 325.38355 19.296 
L 331.876641 19.296 
L 338.369732 19.296 
L 344.862822 19.296 
L 351.355913 19.296 
L 357.849004 19.296 
L 364.342095 19.296 
L 370.835186 19.296 
L 377.328277 19.296 
L 383.821368 19.296 
L 390.314459 19.296 
L 391.031023 19.296 
" clip-path="url(#p97fb902b94)" style="fill: none; stroke: #7f7f7f; stroke-width: 1.5; stroke-linecap: square"/>
   </g>
   <g id="line2d_23">
    <path d="M 66.376477 255.939863 
L 66.408943 255.939863 
L 66.441408 255.939863 
L 66.506339 255.939863 
L 66.636201 255.939863 
L 66.895925 255.939863 
L 67.415372 255.939863 
L 68.454266 255.939863 
L 70.532055 255.939863 
L 74.687634 255.939863 
L 81.180725 255.939863 
L 87.673815 255.939863 
L 94.166906 255.939863 
L 100.659997 255.939863 
L 107.153088 255.939863 
L 113.646179 255.939863 
L 120.13927 255.939863 
L 126.632361 255.939863 
L 131.307386 255.939863 
L 131.313879 255.924411 
L 131.326866 255.903056 
L 131.352838 255.882127 
L 131.372317 255.875767 
L 131.376111 255.891356 
L 131.383696 255.922582 
L 131.398868 255.970982 
L 131.423633 255.996093 
L 131.458671 255.995455 
L 131.506387 255.991827 
L 131.601821 255.975282 
L 131.785448 255.940398 
L 132.152704 255.837405 
L 132.887214 255.514054 
L 134.356235 254.354844 
L 137.294277 250.379477 
L 143.17036 239.471822 
L 148.875195 227.941607 
L 155.368286 214.89898 
L 161.861377 201.869665 
L 168.354468 188.853535 
L 174.847559 175.865868 
L 181.34065 162.895252 
L 187.833741 149.956276 
L 194.326831 137.059828 
L 200.819922 124.29899 
L 207.313013 112.075837 
L 213.806104 101.462491 
L 220.299195 93.426136 
L 226.792286 87.897299 
L 233.285377 84.17985 
L 239.778468 81.699917 
L 246.271559 80.030074 
L 252.76465 78.909703 
L 259.257741 78.150132 
L 265.750831 77.640712 
L 272.243922 77.289838 
L 278.737013 77.055772 
L 285.230104 76.892297 
L 291.723195 76.785128 
L 298.216286 76.708135 
L 304.709377 76.659678 
L 311.202468 76.622717 
L 317.695559 76.601472 
L 324.18865 76.583074 
L 330.681741 76.574448 
L 337.174831 76.564668 
L 343.667922 76.561891 
L 350.161013 76.556119 
L 356.654104 76.55605 
L 363.147195 76.552145 
L 369.640286 76.553326 
L 376.133377 76.550295 
L 382.626468 76.552049 
L 389.119559 76.549431 
L 391.031023 76.551599 
" clip-path="url(#p97fb902b94)" style="fill: none; stroke: #bcbd22; stroke-width: 1.5; stroke-linecap: square"/>
   </g>
   <g id="line2d_24">
    <path d="M 66.376477 261.216 
L 66.408943 261.216 
L 66.441408 261.216 
L 66.506339 261.216 
L 66.636201 261.216 
L 66.895925 261.216 
L 67.415372 261.216 
L 68.454266 261.216 
L 70.532055 261.216 
L 74.687634 261.216 
L 81.180725 261.216 
L 87.673815 261.216 
L 94.166906 261.216 
L 100.659997 261.216 
L 107.153088 261.216 
L 113.646179 261.216 
L 120.13927 261.216 
L 126.632361 261.216 
L 131.307386 261.216 
L 131.313879 237.024 
L 131.326866 188.64 
L 131.352838 91.872 
L 131.372317 19.296 
L 131.376111 19.296 
L 131.383696 19.296 
L 131.398868 19.296 
L 131.423633 19.296 
L 131.458671 19.296 
L 131.506387 19.296 
L 131.601821 19.296 
L 131.785448 19.296 
L 132.152704 19.296 
L 132.887214 19.296 
L 134.356235 19.296 
L 137.294277 19.296 
L 143.17036 19.296 
L 148.875195 19.296 
L 155.368286 19.296 
L 161.861377 19.296 
L 168.354468 19.296 
L 174.847559 19.296 
L 181.34065 19.296 
L 187.833741 19.296 
L 194.326831 19.296 
L 200.819922 19.296 
L 207.313013 19.296 
L 213.806104 19.296 
L 220.299195 19.296 
L 226.792286 19.296 
L 233.285377 19.296 
L 239.778468 19.296 
L 246.271559 19.296 
L 252.76465 19.296 
L 259.257741 19.296 
L 265.750831 19.296 
L 272.243922 19.296 
L 278.737013 19.296 
L 285.230104 19.296 
L 291.723195 19.296 
L 298.216286 19.296 
L 304.709377 19.296 
L 311.202468 19.296 
L 317.695559 19.296 
L 324.18865 19.296 
L 330.681741 19.296 
L 337.174831 19.296 
L 343.667922 19.296 
L 350.161013 19.296 
L 356.654104 19.296 
L 363.147195 19.296 
L 369.640286 19.296 
L 376.133377 19.296 
L 382.626468 19.296 
L 389.119559 19.296 
L 391.031023 19.296 
" clip-path="url(#p97fb902b94)" style="fill: none; stroke: #17becf; stroke-width: 1.5; stroke-linecap: square"/>
   </g>
   <g id="line2d_25">
    <path d="M 66.376477 255.784328 
L 66.408943 255.784328 
L 66.441408 255.784328 
L 66.506339 255.784328 
L 66.636201 255.784328 
L 66.895925 255.784328 
L 67.415372 255.784328 
L 68.454266 255.784328 
L 70.532055 255.784328 
L 74.687634 255.784328 
L 81.180725 255.784328 
L 87.673815 255.784328 
L 94.166906 255.784328 
L 100.659997 255.784328 
L 107.153088 255.784328 
L 113.646179 255.784328 
L 120.13927 255.784327 
L 126.632361 255.784327 
L 131.307386 255.784327 
L 131.313879 255.768033 
L 131.326866 255.74548 
L 131.352838 255.724897 
L 131.372317 255.719848 
L 131.376372 255.738476 
L 131.384482 255.776544 
L 131.400702 255.829877 
L 131.425561 255.849829 
L 131.46152 255.847835 
L 131.508771 255.840912 
L 131.603274 255.821459 
L 131.79228 255.776321 
L 132.170292 255.653676 
L 132.926315 255.285007 
L 134.438363 254.040872 
L 137.462457 249.940025 
L 143.510645 238.827665 
L 149.659471 226.510542 
L 156.152562 213.563068 
L 162.645653 200.626653 
L 169.138744 187.703634 
L 175.631834 174.806031 
L 182.124925 161.924541 
L 188.618016 149.073682 
L 195.111107 136.270578 
L 201.604198 123.62997 
L 208.097289 111.638127 
L 214.59038 101.404679 
L 221.083471 93.758503 
L 227.576562 88.477552 
L 234.069653 84.89239 
L 240.562744 82.468255 
L 247.055834 80.817616 
L 253.548925 79.695239 
L 260.042016 78.924263 
L 266.535107 78.39883 
L 273.028198 78.034693 
L 279.521289 77.787602 
L 286.01438 77.61423 
L 292.507471 77.49823 
L 299.000562 77.415241 
L 305.493653 77.361524 
L 311.986744 77.32105 
L 318.479834 77.296548 
L 324.972925 77.276262 
L 331.466016 77.265647 
L 337.959107 77.254962 
L 344.452198 77.250945 
L 350.945289 77.244831 
L 357.43838 77.243944 
L 363.931471 77.240013 
L 370.424562 77.240609 
L 376.917653 77.237722 
L 383.410744 77.239015 
L 389.903834 77.236633 
L 391.031023 77.238481 
" clip-path="url(#p97fb902b94)" style="fill: none; stroke: #1f77b4; stroke-width: 1.5; stroke-linecap: square"/>
   </g>
   <g id="line2d_26">
    <path d="M 66.376477 261.216 
L 66.408943 261.216 
L 66.441408 261.216 
L 66.506339 261.216 
L 66.636201 261.216 
L 66.895925 261.216 
L 67.415372 261.216 
L 68.454266 261.216 
L 70.532055 261.216 
L 74.687634 261.216 
L 81.180725 261.216 
L 87.673815 261.216 
L 94.166906 261.216 
L 100.659997 261.216 
L 107.153088 261.216 
L 113.646179 261.216 
L 120.13927 261.216 
L 126.632361 261.216 
L 131.307386 261.216 
L 131.313879 237.024 
L 131.326866 188.64 
L 131.352838 91.872 
L 131.372317 19.296 
L 131.376372 19.296 
L 131.384482 19.296 
L 131.400702 19.296 
L 131.425561 19.296 
L 131.46152 19.296 
L 131.508771 19.296 
L 131.603274 19.296 
L 131.79228 19.296 
L 132.170292 19.296 
L 132.926315 19.296 
L 134.438363 19.296 
L 137.462457 19.296 
L 143.510645 19.296 
L 149.659471 19.296 
L 156.152562 19.296 
L 162.645653 19.296 
L 169.138744 19.296 
L 175.631834 19.296 
L 182.124925 19.296 
L 188.618016 19.296 
L 195.111107 19.296 
L 201.604198 19.296 
L 208.097289 19.296 
L 214.59038 19.296 
L 221.083471 19.296 
L 227.576562 19.296 
L 234.069653 19.296 
L 240.562744 19.296 
L 247.055834 19.296 
L 253.548925 19.296 
L 260.042016 19.296 
L 266.535107 19.296 
L 273.028198 19.296 
L 279.521289 19.296 
L 286.01438 19.296 
L 292.507471 19.296 
L 299.000562 19.296 
L 305.493653 19.296 
L 311.986744 19.296 
L 318.479834 19.296 
L 324.972925 19.296 
L 331.466016 19.296 
L 337.959107 19.296 
L 344.452198 19.296 
L 350.945289 19.296 
L 357.43838 19.296 
L 363.931471 19.296 
L 370.424562 19.296 
L 376.917653 19.296 
L 383.410744 19.296 
L 389.903834 19.296 
L 391.031023 19.296 
" clip-path="url(#p97fb902b94)" style="fill: none; stroke: #ff7f0e; stroke-width: 1.5; stroke-linecap: square"/>
   </g>
   <g id="line2d_27">
    <path d="M 66.376477 247.221389 
L 66.408943 247.221389 
L 66.441408 247.221389 
L 66.506339 247.221389 
L 66.636201 247.221389 
L 66.895925 247.221389 
L 67.415372 247.221389 
L 68.454266 247.221389 
L 70.532055 247.221389 
L 74.687634 247.221389 
L 81.180725 247.221389 
L 87.673815 247.221389 
L 94.166906 247.221389 
L 100.659997 247.221389 
L 107.153088 247.221389 
L 113.646179 247.221389 
L 120.13927 247.221389 
L 126.632361 247.221389 
L 131.307386 247.221389 
L 131.313879 247.206449 
L 131.326866 247.192762 
L 131.352838 247.173569 
L 131.372317 247.16542 
L 131.377114 247.1846 
L 131.386707 247.221648 
L 131.405892 247.254643 
L 131.432287 247.257104 
L 131.465983 247.258938 
L 131.51825 247.257074 
L 131.622784 247.256789 
L 131.83185 247.247766 
L 132.249984 247.216078 
L 133.08625 247.046552 
L 134.758784 246.126786 
L 138.103851 242.084795 
L 144.596942 230.419696 
L 151.090033 217.694677 
L 157.583124 205.109392 
L 164.076215 192.515955 
L 170.569306 179.940938 
L 177.062397 167.381143 
L 183.555488 154.842868 
L 190.048579 142.329823 
L 196.54167 129.913184 
L 203.03476 118.046905 
L 209.527851 108.146356 
L 216.020942 101.157386 
L 222.514033 96.670929 
L 229.007124 93.809228 
L 235.500215 91.988006 
L 241.993306 90.812558 
L 248.486397 90.054119 
L 254.979488 89.560976 
L 261.472579 89.240205 
L 267.96567 89.03261 
L 274.45876 88.895427 
L 280.951851 88.808587 
L 287.444942 88.748966 
L 293.938033 88.713421 
L 300.431124 88.686688 
L 306.924215 88.672968 
L 313.417306 88.660212 
L 319.910397 88.655776 
L 326.403488 88.648976 
L 332.896579 88.648482 
L 339.38967 88.644229 
L 345.88276 88.645399 
L 352.375851 88.642248 
L 358.868942 88.64411 
L 365.362033 88.641443 
L 371.855124 88.643584 
L 378.348215 88.64114 
L 384.841306 88.643383 
L 391.031023 88.641052 
" clip-path="url(#p97fb902b94)" style="fill: none; stroke: #2ca02c; stroke-width: 1.5; stroke-linecap: square"/>
   </g>
   <g id="line2d_28">
    <path d="M 66.376477 261.216 
L 66.408943 261.216 
L 66.441408 261.216 
L 66.506339 261.216 
L 66.636201 261.216 
L 66.895925 261.216 
L 67.415372 261.216 
L 68.454266 261.216 
L 70.532055 261.216 
L 74.687634 261.216 
L 81.180725 261.216 
L 87.673815 261.216 
L 94.166906 261.216 
L 100.659997 261.216 
L 107.153088 261.216 
L 113.646179 261.216 
L 120.13927 261.216 
L 126.632361 261.216 
L 131.307386 261.216 
L 131.313879 237.024 
L 131.326866 188.64 
L 131.352838 91.872 
L 131.372317 19.296 
L 131.377114 19.296 
L 131.386707 19.296 
L 131.405892 19.296 
L 131.432287 19.296 
L 131.465983 19.296 
L 131.51825 19.296 
L 131.622784 19.296 
L 131.83185 19.296 
L 132.249984 19.296 
L 133.08625 19.296 
L 134.758784 19.296 
L 138.103851 19.296 
L 144.596942 19.296 
L 151.090033 19.296 
L 157.583124 19.296 
L 164.076215 19.296 
L 170.569306 19.296 
L 177.062397 19.296 
L 183.555488 19.296 
L 190.048579 19.296 
L 196.54167 19.296 
L 203.03476 19.296 
L 209.527851 19.296 
L 216.020942 19.296 
L 222.514033 19.296 
L 229.007124 19.296 
L 235.500215 19.296 
L 241.993306 19.296 
L 248.486397 19.296 
L 254.979488 19.296 
L 261.472579 19.296 
L 267.96567 19.296 
L 274.45876 19.296 
L 280.951851 19.296 
L 287.444942 19.296 
L 293.938033 19.296 
L 300.431124 19.296 
L 306.924215 19.296 
L 313.417306 19.296 
L 319.910397 19.296 
L 326.403488 19.296 
L 332.896579 19.296 
L 339.38967 19.296 
L 345.88276 19.296 
L 352.375851 19.296 
L 358.868942 19.296 
L 365.362033 19.296 
L 371.855124 19.296 
L 378.348215 19.296 
L 384.841306 19.296 
L 391.031023 19.296 
" clip-path="url(#p97fb902b94)" style="fill: none; stroke: #d62728; stroke-width: 1.5; stroke-linecap: square"/>
   </g>
   <g id="line2d_29">
    <path d="M 66.376477 251.023035 
L 66.408943 251.023035 
L 66.441408 251.023035 
L 66.506339 251.023035 
L 66.636201 251.023035 
L 66.895925 251.023035 
L 67.415372 251.023035 
L 68.454266 251.023035 
L 70.532055 251.023035 
L 74.687634 251.023035 
L 81.180725 251.023035 
L 87.673815 251.023035 
L 94.166906 251.023035 
L 100.659997 251.023035 
L 107.153088 251.023035 
L 113.646179 251.023035 
L 120.13927 251.023035 
L 126.632361 251.023035 
L 131.307386 251.023035 
L 131.313879 251.010643 
L 131.326866 250.997379 
L 131.352838 250.977649 
L 131.372317 250.968953 
L 131.377483 250.984286 
L 131.387814 251.013081 
L 131.408477 251.041443 
L 131.436183 251.044884 
L 131.472691 251.047079 
L 131.530236 251.046875 
L 131.645324 251.048509 
L 131.875503 251.045346 
L 132.335859 251.024783 
L 133.256573 250.860965 
L 135.098 249.753581 
L 138.780853 244.747621 
L 145.273944 232.397027 
L 151.767035 219.512215 
L 158.260126 206.747624 
L 164.753217 193.974206 
L 171.246308 181.225263 
L 177.739399 168.491675 
L 184.23249 155.783515 
L 190.725581 143.103355 
L 197.218672 130.495517 
L 203.711763 118.286219 
L 210.204853 107.801686 
L 216.697944 100.263769 
L 223.191035 95.506601 
L 229.684126 92.549533 
L 236.177217 90.724674 
L 242.670308 89.581831 
L 249.163399 88.865163 
L 255.65649 88.412543 
L 262.149581 88.125619 
L 268.642672 87.94612 
L 275.135763 87.829427 
L 281.628853 87.759239 
L 288.121944 87.710465 
L 294.615035 87.684228 
L 301.108126 87.662644 
L 307.601217 87.654106 
L 314.094308 87.643437 
L 320.587399 87.642025 
L 327.08049 87.635754 
L 333.573581 87.6372 
L 340.066672 87.632714 
L 346.559763 87.635295 
L 353.052853 87.631547 
L 359.545944 87.634566 
L 366.039035 87.631134 
L 372.532126 87.63431 
L 379.025217 87.632539 
L 385.518308 87.637712 
L 391.031023 87.635342 
" clip-path="url(#p97fb902b94)" style="fill: none; stroke: #9467bd; stroke-width: 1.5; stroke-linecap: square"/>
   </g>
   <g id="line2d_30">
    <path d="M 66.376477 261.216 
L 66.408943 261.216 
L 66.441408 261.216 
L 66.506339 261.216 
L 66.636201 261.216 
L 66.895925 261.216 
L 67.415372 261.216 
L 68.454266 261.216 
L 70.532055 261.216 
L 74.687634 261.216 
L 81.180725 261.216 
L 87.673815 261.216 
L 94.166906 261.216 
L 100.659997 261.216 
L 107.153088 261.216 
L 113.646179 261.216 
L 120.13927 261.216 
L 126.632361 261.216 
L 131.307386 261.216 
L 131.313879 237.024 
L 131.326866 188.64 
L 131.352838 91.872 
L 131.372317 19.296 
L 131.377483 19.296 
L 131.387814 19.296 
L 131.408477 19.296 
L 131.436183 19.296 
L 131.472691 19.296 
L 131.530236 19.296 
L 131.645324 19.296 
L 131.875503 19.296 
L 132.335859 19.296 
L 133.256573 19.296 
L 135.098 19.296 
L 138.780853 19.296 
L 145.273944 19.296 
L 151.767035 19.296 
L 158.260126 19.296 
L 164.753217 19.296 
L 171.246308 19.296 
L 177.739399 19.296 
L 184.23249 19.296 
L 190.725581 19.296 
L 197.218672 19.296 
L 203.711763 19.296 
L 210.204853 19.296 
L 216.697944 19.296 
L 223.191035 19.296 
L 229.684126 19.296 
L 236.177217 19.296 
L 242.670308 19.296 
L 249.163399 19.296 
L 255.65649 19.296 
L 262.149581 19.296 
L 268.642672 19.296 
L 275.135763 19.296 
L 281.628853 19.296 
L 288.121944 19.296 
L 294.615035 19.296 
L 301.108126 19.296 
L 307.601217 19.296 
L 314.094308 19.296 
L 320.587399 19.296 
L 327.08049 19.296 
L 333.573581 19.296 
L 340.066672 19.296 
L 346.559763 19.296 
L 353.052853 19.296 
L 359.545944 19.296 
L 366.039035 19.296 
L 372.532126 19.296 
L 379.025217 19.296 
L 385.518308 19.296 
L 391.031023 19.296 
" clip-path="url(#p97fb902b94)" style="fill: none; stroke: #8c564b; stroke-width: 1.5; stroke-linecap: square"/>
   </g>
   <g id="line2d_31">
    <path d="M 66.376477 249.205036 
L 66.408943 249.205036 
L 66.441408 249.205036 
L 66.506339 249.205036 
L 66.636201 249.205036 
L 66.895925 249.205036 
L 67.415372 249.205036 
L 68.454266 249.205036 
L 70.532055 249.205036 
L 74.687634 249.205036 
L 81.180725 249.205036 
L 87.673815 249.205036 
L 94.166906 249.205036 
L 100.659997 249.205036 
L 107.153088 249.205036 
L 113.646179 249.205036 
L 120.13927 249.205036 
L 126.632361 249.205036 
L 131.307386 249.205036 
L 131.313879 249.191307 
L 131.326866 249.178211 
L 131.352838 249.158484 
L 131.372317 249.150154 
L 131.377308 249.1677 
L 131.387289 249.201286 
L 131.407252 249.231789 
L 131.434356 249.234272 
L 131.469231 249.236293 
L 131.524234 249.235191 
L 131.634239 249.23588 
L 131.854251 249.229538 
L 132.294273 249.202518 
L 133.174318 249.032309 
L 134.934407 248.012476 
L 138.454585 243.480519 
L 144.947676 231.450569 
L 151.440767 218.639884 
L 157.933858 205.966528 
L 164.426949 193.283189 
L 170.92004 180.620926 
L 177.413131 167.97472 
L 183.906222 155.351624 
L 190.399313 142.754154 
L 196.892404 130.239221 
L 203.385494 118.187351 
L 209.878585 107.97269 
L 216.371676 100.692784 
L 222.864767 96.062722 
L 229.357858 93.14986 
L 235.850949 91.328333 
L 242.34404 90.16543 
L 248.837131 89.424256 
L 255.330222 88.950524 
L 261.823313 88.645818 
L 268.316404 88.452308 
L 274.809494 88.325369 
L 281.302585 88.247067 
L 287.795676 88.19308 
L 294.288767 88.162361 
L 300.781858 88.138418 
L 307.274949 88.127383 
L 313.76804 88.115843 
L 320.261131 88.112949 
L 326.754222 88.106545 
L 333.247313 88.107008 
L 339.740404 88.102743 
L 346.233494 88.10458 
L 352.726585 88.101217 
L 359.219676 88.103605 
L 365.712767 88.100634 
L 372.205858 88.103233 
L 378.698949 88.10044 
L 385.19204 88.103108 
L 391.031023 88.100411 
" clip-path="url(#p97fb902b94)" style="fill: none; stroke: #e377c2; stroke-width: 1.5; stroke-linecap: square"/>
   </g>
   <g id="line2d_32">
    <path d="M 66.376477 261.216 
L 66.408943 261.216 
L 66.441408 261.216 
L 66.506339 261.216 
L 66.636201 261.216 
L 66.895925 261.216 
L 67.415372 261.216 
L 68.454266 261.216 
L 70.532055 261.216 
L 74.687634 261.216 
L 81.180725 261.216 
L 87.673815 261.216 
L 94.166906 261.216 
L 100.659997 261.216 
L 107.153088 261.216 
L 113.646179 261.216 
L 120.13927 261.216 
L 126.632361 261.216 
L 131.307386 261.216 
L 131.313879 237.024 
L 131.326866 188.64 
L 131.352838 91.872 
L 131.372317 19.296 
L 131.377308 19.296 
L 131.387289 19.296 
L 131.407252 19.296 
L 131.434356 19.296 
L 131.469231 19.296 
L 131.524234 19.296 
L 131.634239 19.296 
L 131.854251 19.296 
L 132.294273 19.296 
L 133.174318 19.296 
L 134.934407 19.296 
L 138.454585 19.296 
L 144.947676 19.296 
L 151.440767 19.296 
L 157.933858 19.296 
L 164.426949 19.296 
L 170.92004 19.296 
L 177.413131 19.296 
L 183.906222 19.296 
L 190.399313 19.296 
L 196.892404 19.296 
L 203.385494 19.296 
L 209.878585 19.296 
L 216.371676 19.296 
L 222.864767 19.296 
L 229.357858 19.296 
L 235.850949 19.296 
L 242.34404 19.296 
L 248.837131 19.296 
L 255.330222 19.296 
L 261.823313 19.296 
L 268.316404 19.296 
L 274.809494 19.296 
L 281.302585 19.296 
L 287.795676 19.296 
L 294.288767 19.296 
L 300.781858 19.296 
L 307.274949 19.296 
L 313.76804 19.296 
L 320.261131 19.296 
L 326.754222 19.296 
L 333.247313 19.296 
L 339.740404 19.296 
L 346.233494 19.296 
L 352.726585 19.296 
L 359.219676 19.296 
L 365.712767 19.296 
L 372.205858 19.296 
L 378.698949 19.296 
L 385.19204 19.296 
L 391.031023 19.296 
" clip-path="url(#p97fb902b94)" style="fill: none; stroke: #7f7f7f; stroke-width: 1.5; stroke-linecap: square"/>
   </g>
   <g id="patch_3">
    <path d="M 50.14375 273.312 
L 50.14375 7.2 
" style="fill: none; stroke: #000000; stroke-width: 0.8; stroke-linejoin: miter; stroke-linecap: square"/>
   </g>
   <g id="patch_4">
    <path d="M 407.26375 273.312 
L 407.26375 7.2 
" style="fill: none; stroke: #000000; stroke-width: 0.8; stroke-linejoin: miter; stroke-linecap: square"/>
   </g>
   <g id="patch_5">
    <path d="M 50.14375 273.312 
L 407.26375 273.312 
" style="fill: none; stroke: #000000; stroke-width: 0.8; stroke-linejoin: miter; stroke-linecap: square"/>
   </g>
   <g id="patch_6">
    <path d="M 50.14375 7.2 
L 407.26375 7.2 
" style="fill: none; stroke: #000000; stroke-width: 0.8; stroke-linejoin: miter; stroke-linecap: square"/>
   </g>
   <g id="legend_1">
    <g id="patch_7">
     <path d="M 423.54855 274.40625 
L 615.889175 274.40625 
Q 617.889175 274.40625 617.889175 272.40625 
L 617.889175 9.2 
Q 617.889175 7.2 615.889175 7.2 
L 423.54855 7.2 
Q 421.54855 7.2 421.54855 9.2 
L 421.54855 272.40625 
Q 421.54855 274.40625 423.54855 274.40625 
z
" style="fill: #ffffff; opacity: 0.8; stroke: #cccccc; stroke-linejoin: miter"/>
    </g>
    <g id="line2d_33">
     <path d="M 425.54855 15.298437 
L 435.54855 15.298437 
L 445.54855 15.298437 
" style="fill: none; stroke: #1f77b4; stroke-width: 1.5; stroke-linecap: square"/>
    </g>
    <g id="text_18">
     <!-- corner = ss, temperature = -40 -->
     <g transform="translate(453.54855 18.798437) scale(0.1 -0.1)">
      <defs>
       <path id="DejaVuSans-63" d="M 3122 3366 
L 3122 2828 
Q 2878 2963 2633 3030 
Q 2388 3097 2138 3097 
Q 1578 3097 1268 2742 
Q 959 2388 959 1747 
Q 959 1106 1268 751 
Q 1578 397 2138 397 
Q 2388 397 2633 464 
Q 2878 531 3122 666 
L 3122 134 
Q 2881 22 2623 -34 
Q 2366 -91 2075 -91 
Q 1284 -91 818 406 
Q 353 903 353 1747 
Q 353 2603 823 3093 
Q 1294 3584 2113 3584 
Q 2378 3584 2631 3529 
Q 2884 3475 3122 3366 
z
" transform="scale(0.015625)"/>
       <path id="DejaVuSans-72" d="M 2631 2963 
Q 2534 3019 2420 3045 
Q 2306 3072 2169 3072 
Q 1681 3072 1420 2755 
Q 1159 2438 1159 1844 
L 1159 0 
L 581 0 
L 581 3500 
L 1159 3500 
L 1159 2956 
Q 1341 3275 1631 3429 
Q 1922 3584 2338 3584 
Q 2397 3584 2469 3576 
Q 2541 3569 2628 3553 
L 2631 2963 
z
" transform="scale(0.015625)"/>
       <path id="DejaVuSans-3d" d="M 678 2906 
L 4684 2906 
L 4684 2381 
L 678 2381 
L 678 2906 
z
M 678 1631 
L 4684 1631 
L 4684 1100 
L 678 1100 
L 678 1631 
z
" transform="scale(0.015625)"/>
       <path id="DejaVuSans-61" d="M 2194 1759 
Q 1497 1759 1228 1600 
Q 959 1441 959 1056 
Q 959 750 1161 570 
Q 1363 391 1709 391 
Q 2188 391 2477 730 
Q 2766 1069 2766 1631 
L 2766 1759 
L 2194 1759 
z
M 3341 1997 
L 3341 0 
L 2766 0 
L 2766 531 
Q 2569 213 2275 61 
Q 1981 -91 1556 -91 
Q 1019 -91 701 211 
Q 384 513 384 1019 
Q 384 1609 779 1909 
Q 1175 2209 1959 2209 
L 2766 2209 
L 2766 2266 
Q 2766 2663 2505 2880 
Q 2244 3097 1772 3097 
Q 1472 3097 1187 3025 
Q 903 2953 641 2809 
L 641 3341 
Q 956 3463 1253 3523 
Q 1550 3584 1831 3584 
Q 2591 3584 2966 3190 
Q 3341 2797 3341 1997 
z
" transform="scale(0.015625)"/>
       <path id="DejaVuSans-2d" d="M 313 2009 
L 1997 2009 
L 1997 1497 
L 313 1497 
L 313 2009 
z
" transform="scale(0.015625)"/>
      </defs>
      <use xlink:href="#DejaVuSans-63"/>
      <use xlink:href="#DejaVuSans-6f" x="54.980469"/>
      <use xlink:href="#DejaVuSans-72" x="116.162109"/>
      <use xlink:href="#DejaVuSans-6e" x="155.525391"/>
      <use xlink:href="#DejaVuSans-65" x="218.904297"/>
      <use xlink:href="#DejaVuSans-72" x="280.427734"/>
      <use xlink:href="#DejaVuSans-20" x="321.541016"/>
      <use xlink:href="#DejaVuSans-3d" x="353.328125"/>
      <use xlink:href="#DejaVuSans-20" x="437.117188"/>
      <use xlink:href="#DejaVuSans-73" x="468.904297"/>
      <use xlink:href="#DejaVuSans-73" x="521.003906"/>
      <use xlink:href="#DejaVuSans-2c" x="573.103516"/>
      <use xlink:href="#DejaVuSans-20" x="604.890625"/>
      <use xlink:href="#DejaVuSans-74" x="636.677734"/>
      <use xlink:href="#DejaVuSans-65" x="675.886719"/>
      <use xlink:href="#DejaVuSans-6d" x="737.410156"/>
      <use xlink:href="#DejaVuSans-70" x="834.822266"/>
      <use xlink:href="#DejaVuSans-65" x="898.298828"/>
      <use xlink:href="#DejaVuSans-72" x="959.822266"/>
      <use xlink:href="#DejaVuSans-61" x="1000.935547"/>
      <use xlink:href="#DejaVuSans-74" x="1062.214844"/>
      <use xlink:href="#DejaVuSans-75" x="1101.423828"/>
      <use xlink:href="#DejaVuSans-72" x="1164.802734"/>
      <use xlink:href="#DejaVuSans-65" x="1203.666016"/>
      <use xlink:href="#DejaVuSans-20" x="1265.189453"/>
      <use xlink:href="#DejaVuSans-3d" x="1296.976562"/>
      <use xlink:href="#DejaVuSans-20" x="1380.765625"/>
      <use xlink:href="#DejaVuSans-2d" x="1412.552734"/>
      <use xlink:href="#DejaVuSans-34" x="1448.636719"/>
      <use xlink:href="#DejaVuSans-30" x="1512.259766"/>
     </g>
    </g>
    <g id="line2d_34">
     <path d="M 425.54855 29.976562 
L 435.54855 29.976562 
L 445.54855 29.976562 
" style="fill: none; stroke: #ff7f0e; stroke-width: 1.5; stroke-linecap: square"/>
    </g>
    <g id="text_19">
     <!-- corner = ss, temperature = -40 -->
     <g transform="translate(453.54855 33.476562) scale(0.1 -0.1)">
      <use xlink:href="#DejaVuSans-63"/>
      <use xlink:href="#DejaVuSans-6f" x="54.980469"/>
      <use xlink:href="#DejaVuSans-72" x="116.162109"/>
      <use xlink:href="#DejaVuSans-6e" x="155.525391"/>
      <use xlink:href="#DejaVuSans-65" x="218.904297"/>
      <use xlink:href="#DejaVuSans-72" x="280.427734"/>
      <use xlink:href="#DejaVuSans-20" x="321.541016"/>
      <use xlink:href="#DejaVuSans-3d" x="353.328125"/>
      <use xlink:href="#DejaVuSans-20" x="437.117188"/>
      <use xlink:href="#DejaVuSans-73" x="468.904297"/>
      <use xlink:href="#DejaVuSans-73" x="521.003906"/>
      <use xlink:href="#DejaVuSans-2c" x="573.103516"/>
      <use xlink:href="#DejaVuSans-20" x="604.890625"/>
      <use xlink:href="#DejaVuSans-74" x="636.677734"/>
      <use xlink:href="#DejaVuSans-65" x="675.886719"/>
      <use xlink:href="#DejaVuSans-6d" x="737.410156"/>
      <use xlink:href="#DejaVuSans-70" x="834.822266"/>
      <use xlink:href="#DejaVuSans-65" x="898.298828"/>
      <use xlink:href="#DejaVuSans-72" x="959.822266"/>
      <use xlink:href="#DejaVuSans-61" x="1000.935547"/>
      <use xlink:href="#DejaVuSans-74" x="1062.214844"/>
      <use xlink:href="#DejaVuSans-75" x="1101.423828"/>
      <use xlink:href="#DejaVuSans-72" x="1164.802734"/>
      <use xlink:href="#DejaVuSans-65" x="1203.666016"/>
      <use xlink:href="#DejaVuSans-20" x="1265.189453"/>
      <use xlink:href="#DejaVuSans-3d" x="1296.976562"/>
      <use xlink:href="#DejaVuSans-20" x="1380.765625"/>
      <use xlink:href="#DejaVuSans-2d" x="1412.552734"/>
      <use xlink:href="#DejaVuSans-34" x="1448.636719"/>
      <use xlink:href="#DejaVuSans-30" x="1512.259766"/>
     </g>
    </g>
    <g id="line2d_35">
     <path d="M 425.54855 44.654687 
L 435.54855 44.654687 
L 445.54855 44.654687 
" style="fill: none; stroke: #2ca02c; stroke-width: 1.5; stroke-linecap: square"/>
    </g>
    <g id="text_20">
     <!-- corner = ff, temperature = -40 -->
     <g transform="translate(453.54855 48.154687) scale(0.1 -0.1)">
      <defs>
       <path id="DejaVuSans-66" d="M 2375 4863 
L 2375 4384 
L 1825 4384 
Q 1516 4384 1395 4259 
Q 1275 4134 1275 3809 
L 1275 3500 
L 2222 3500 
L 2222 3053 
L 1275 3053 
L 1275 0 
L 697 0 
L 697 3053 
L 147 3053 
L 147 3500 
L 697 3500 
L 697 3744 
Q 697 4328 969 4595 
Q 1241 4863 1831 4863 
L 2375 4863 
z
" transform="scale(0.015625)"/>
      </defs>
      <use xlink:href="#DejaVuSans-63"/>
      <use xlink:href="#DejaVuSans-6f" x="54.980469"/>
      <use xlink:href="#DejaVuSans-72" x="116.162109"/>
      <use xlink:href="#DejaVuSans-6e" x="155.525391"/>
      <use xlink:href="#DejaVuSans-65" x="218.904297"/>
      <use xlink:href="#DejaVuSans-72" x="280.427734"/>
      <use xlink:href="#DejaVuSans-20" x="321.541016"/>
      <use xlink:href="#DejaVuSans-3d" x="353.328125"/>
      <use xlink:href="#DejaVuSans-20" x="437.117188"/>
      <use xlink:href="#DejaVuSans-66" x="468.904297"/>
      <use xlink:href="#DejaVuSans-66" x="504.109375"/>
      <use xlink:href="#DejaVuSans-2c" x="539.314453"/>
      <use xlink:href="#DejaVuSans-20" x="571.101562"/>
      <use xlink:href="#DejaVuSans-74" x="602.888672"/>
      <use xlink:href="#DejaVuSans-65" x="642.097656"/>
      <use xlink:href="#DejaVuSans-6d" x="703.621094"/>
      <use xlink:href="#DejaVuSans-70" x="801.033203"/>
      <use xlink:href="#DejaVuSans-65" x="864.509766"/>
      <use xlink:href="#DejaVuSans-72" x="926.033203"/>
      <use xlink:href="#DejaVuSans-61" x="967.146484"/>
      <use xlink:href="#DejaVuSans-74" x="1028.425781"/>
      <use xlink:href="#DejaVuSans-75" x="1067.634766"/>
      <use xlink:href="#DejaVuSans-72" x="1131.013672"/>
      <use xlink:href="#DejaVuSans-65" x="1169.876953"/>
      <use xlink:href="#DejaVuSans-20" x="1231.400391"/>
      <use xlink:href="#DejaVuSans-3d" x="1263.1875"/>
      <use xlink:href="#DejaVuSans-20" x="1346.976562"/>
      <use xlink:href="#DejaVuSans-2d" x="1378.763672"/>
      <use xlink:href="#DejaVuSans-34" x="1414.847656"/>
      <use xlink:href="#DejaVuSans-30" x="1478.470703"/>
     </g>
    </g>
    <g id="line2d_36">
     <path d="M 425.54855 59.332812 
L 435.54855 59.332812 
L 445.54855 59.332812 
" style="fill: none; stroke: #d62728; stroke-width: 1.5; stroke-linecap: square"/>
    </g>
    <g id="text_21">
     <!-- corner = ff, temperature = -40 -->
     <g transform="translate(453.54855 62.832812) scale(0.1 -0.1)">
      <use xlink:href="#DejaVuSans-63"/>
      <use xlink:href="#DejaVuSans-6f" x="54.980469"/>
      <use xlink:href="#DejaVuSans-72" x="116.162109"/>
      <use xlink:href="#DejaVuSans-6e" x="155.525391"/>
      <use xlink:href="#DejaVuSans-65" x="218.904297"/>
      <use xlink:href="#DejaVuSans-72" x="280.427734"/>
      <use xlink:href="#DejaVuSans-20" x="321.541016"/>
      <use xlink:href="#DejaVuSans-3d" x="353.328125"/>
      <use xlink:href="#DejaVuSans-20" x="437.117188"/>
      <use xlink:href="#DejaVuSans-66" x="468.904297"/>
      <use xlink:href="#DejaVuSans-66" x="504.109375"/>
      <use xlink:href="#DejaVuSans-2c" x="539.314453"/>
      <use xlink:href="#DejaVuSans-20" x="571.101562"/>
      <use xlink:href="#DejaVuSans-74" x="602.888672"/>
      <use xlink:href="#DejaVuSans-65" x="642.097656"/>
      <use xlink:href="#DejaVuSans-6d" x="703.621094"/>
      <use xlink:href="#DejaVuSans-70" x="801.033203"/>
      <use xlink:href="#DejaVuSans-65" x="864.509766"/>
      <use xlink:href="#DejaVuSans-72" x="926.033203"/>
      <use xlink:href="#DejaVuSans-61" x="967.146484"/>
      <use xlink:href="#DejaVuSans-74" x="1028.425781"/>
      <use xlink:href="#DejaVuSans-75" x="1067.634766"/>
      <use xlink:href="#DejaVuSans-72" x="1131.013672"/>
      <use xlink:href="#DejaVuSans-65" x="1169.876953"/>
      <use xlink:href="#DejaVuSans-20" x="1231.400391"/>
      <use xlink:href="#DejaVuSans-3d" x="1263.1875"/>
      <use xlink:href="#DejaVuSans-20" x="1346.976562"/>
      <use xlink:href="#DejaVuSans-2d" x="1378.763672"/>
      <use xlink:href="#DejaVuSans-34" x="1414.847656"/>
      <use xlink:href="#DejaVuSans-30" x="1478.470703"/>
     </g>
    </g>
    <g id="line2d_37">
     <path d="M 425.54855 74.010938 
L 435.54855 74.010938 
L 445.54855 74.010938 
" style="fill: none; stroke: #9467bd; stroke-width: 1.5; stroke-linecap: square"/>
    </g>
    <g id="text_22">
     <!-- corner = tt, temperature = -40 -->
     <g transform="translate(453.54855 77.510938) scale(0.1 -0.1)">
      <use xlink:href="#DejaVuSans-63"/>
      <use xlink:href="#DejaVuSans-6f" x="54.980469"/>
      <use xlink:href="#DejaVuSans-72" x="116.162109"/>
      <use xlink:href="#DejaVuSans-6e" x="155.525391"/>
      <use xlink:href="#DejaVuSans-65" x="218.904297"/>
      <use xlink:href="#DejaVuSans-72" x="280.427734"/>
      <use xlink:href="#DejaVuSans-20" x="321.541016"/>
      <use xlink:href="#DejaVuSans-3d" x="353.328125"/>
      <use xlink:href="#DejaVuSans-20" x="437.117188"/>
      <use xlink:href="#DejaVuSans-74" x="468.904297"/>
      <use xlink:href="#DejaVuSans-74" x="508.113281"/>
      <use xlink:href="#DejaVuSans-2c" x="547.322266"/>
      <use xlink:href="#DejaVuSans-20" x="579.109375"/>
      <use xlink:href="#DejaVuSans-74" x="610.896484"/>
      <use xlink:href="#DejaVuSans-65" x="650.105469"/>
      <use xlink:href="#DejaVuSans-6d" x="711.628906"/>
      <use xlink:href="#DejaVuSans-70" x="809.041016"/>
      <use xlink:href="#DejaVuSans-65" x="872.517578"/>
      <use xlink:href="#DejaVuSans-72" x="934.041016"/>
      <use xlink:href="#DejaVuSans-61" x="975.154297"/>
      <use xlink:href="#DejaVuSans-74" x="1036.433594"/>
      <use xlink:href="#DejaVuSans-75" x="1075.642578"/>
      <use xlink:href="#DejaVuSans-72" x="1139.021484"/>
      <use xlink:href="#DejaVuSans-65" x="1177.884766"/>
      <use xlink:href="#DejaVuSans-20" x="1239.408203"/>
      <use xlink:href="#DejaVuSans-3d" x="1271.195312"/>
      <use xlink:href="#DejaVuSans-20" x="1354.984375"/>
      <use xlink:href="#DejaVuSans-2d" x="1386.771484"/>
      <use xlink:href="#DejaVuSans-34" x="1422.855469"/>
      <use xlink:href="#DejaVuSans-30" x="1486.478516"/>
     </g>
    </g>
    <g id="line2d_38">
     <path d="M 425.54855 88.689062 
L 435.54855 88.689062 
L 445.54855 88.689062 
" style="fill: none; stroke: #8c564b; stroke-width: 1.5; stroke-linecap: square"/>
    </g>
    <g id="text_23">
     <!-- corner = tt, temperature = -40 -->
     <g transform="translate(453.54855 92.189062) scale(0.1 -0.1)">
      <use xlink:href="#DejaVuSans-63"/>
      <use xlink:href="#DejaVuSans-6f" x="54.980469"/>
      <use xlink:href="#DejaVuSans-72" x="116.162109"/>
      <use xlink:href="#DejaVuSans-6e" x="155.525391"/>
      <use xlink:href="#DejaVuSans-65" x="218.904297"/>
      <use xlink:href="#DejaVuSans-72" x="280.427734"/>
      <use xlink:href="#DejaVuSans-20" x="321.541016"/>
      <use xlink:href="#DejaVuSans-3d" x="353.328125"/>
      <use xlink:href="#DejaVuSans-20" x="437.117188"/>
      <use xlink:href="#DejaVuSans-74" x="468.904297"/>
      <use xlink:href="#DejaVuSans-74" x="508.113281"/>
      <use xlink:href="#DejaVuSans-2c" x="547.322266"/>
      <use xlink:href="#DejaVuSans-20" x="579.109375"/>
      <use xlink:href="#DejaVuSans-74" x="610.896484"/>
      <use xlink:href="#DejaVuSans-65" x="650.105469"/>
      <use xlink:href="#DejaVuSans-6d" x="711.628906"/>
      <use xlink:href="#DejaVuSans-70" x="809.041016"/>
      <use xlink:href="#DejaVuSans-65" x="872.517578"/>
      <use xlink:href="#DejaVuSans-72" x="934.041016"/>
      <use xlink:href="#DejaVuSans-61" x="975.154297"/>
      <use xlink:href="#DejaVuSans-74" x="1036.433594"/>
      <use xlink:href="#DejaVuSans-75" x="1075.642578"/>
      <use xlink:href="#DejaVuSans-72" x="1139.021484"/>
      <use xlink:href="#DejaVuSans-65" x="1177.884766"/>
      <use xlink:href="#DejaVuSans-20" x="1239.408203"/>
      <use xlink:href="#DejaVuSans-3d" x="1271.195312"/>
      <use xlink:href="#DejaVuSans-20" x="1354.984375"/>
      <use xlink:href="#DejaVuSans-2d" x="1386.771484"/>
      <use xlink:href="#DejaVuSans-34" x="1422.855469"/>
      <use xlink:href="#DejaVuSans-30" x="1486.478516"/>
     </g>
    </g>
    <g id="line2d_39">
     <path d="M 425.54855 103.367188 
L 435.54855 103.367188 
L 445.54855 103.367188 
" style="fill: none; stroke: #e377c2; stroke-width: 1.5; stroke-linecap: square"/>
    </g>
    <g id="text_24">
     <!-- corner = ss, temperature = 130 -->
     <g transform="translate(453.54855 106.867188) scale(0.1 -0.1)">
      <use xlink:href="#DejaVuSans-63"/>
      <use xlink:href="#DejaVuSans-6f" x="54.980469"/>
      <use xlink:href="#DejaVuSans-72" x="116.162109"/>
      <use xlink:href="#DejaVuSans-6e" x="155.525391"/>
      <use xlink:href="#DejaVuSans-65" x="218.904297"/>
      <use xlink:href="#DejaVuSans-72" x="280.427734"/>
      <use xlink:href="#DejaVuSans-20" x="321.541016"/>
      <use xlink:href="#DejaVuSans-3d" x="353.328125"/>
      <use xlink:href="#DejaVuSans-20" x="437.117188"/>
      <use xlink:href="#DejaVuSans-73" x="468.904297"/>
      <use xlink:href="#DejaVuSans-73" x="521.003906"/>
      <use xlink:href="#DejaVuSans-2c" x="573.103516"/>
      <use xlink:href="#DejaVuSans-20" x="604.890625"/>
      <use xlink:href="#DejaVuSans-74" x="636.677734"/>
      <use xlink:href="#DejaVuSans-65" x="675.886719"/>
      <use xlink:href="#DejaVuSans-6d" x="737.410156"/>
      <use xlink:href="#DejaVuSans-70" x="834.822266"/>
      <use xlink:href="#DejaVuSans-65" x="898.298828"/>
      <use xlink:href="#DejaVuSans-72" x="959.822266"/>
      <use xlink:href="#DejaVuSans-61" x="1000.935547"/>
      <use xlink:href="#DejaVuSans-74" x="1062.214844"/>
      <use xlink:href="#DejaVuSans-75" x="1101.423828"/>
      <use xlink:href="#DejaVuSans-72" x="1164.802734"/>
      <use xlink:href="#DejaVuSans-65" x="1203.666016"/>
      <use xlink:href="#DejaVuSans-20" x="1265.189453"/>
      <use xlink:href="#DejaVuSans-3d" x="1296.976562"/>
      <use xlink:href="#DejaVuSans-20" x="1380.765625"/>
      <use xlink:href="#DejaVuSans-31" x="1412.552734"/>
      <use xlink:href="#DejaVuSans-33" x="1476.175781"/>
      <use xlink:href="#DejaVuSans-30" x="1539.798828"/>
     </g>
    </g>
    <g id="line2d_40">
     <path d="M 425.54855 118.045312 
L 435.54855 118.045312 
L 445.54855 118.045312 
" style="fill: none; stroke: #7f7f7f; stroke-width: 1.5; stroke-linecap: square"/>
    </g>
    <g id="text_25">
     <!-- corner = ss, temperature = 130 -->
     <g transform="translate(453.54855 121.545312) scale(0.1 -0.1)">
      <use xlink:href="#DejaVuSans-63"/>
      <use xlink:href="#DejaVuSans-6f" x="54.980469"/>
      <use xlink:href="#DejaVuSans-72" x="116.162109"/>
      <use xlink:href="#DejaVuSans-6e" x="155.525391"/>
      <use xlink:href="#DejaVuSans-65" x="218.904297"/>
      <use xlink:href="#DejaVuSans-72" x="280.427734"/>
      <use xlink:href="#DejaVuSans-20" x="321.541016"/>
      <use xlink:href="#DejaVuSans-3d" x="353.328125"/>
      <use xlink:href="#DejaVuSans-20" x="437.117188"/>
      <use xlink:href="#DejaVuSans-73" x="468.904297"/>
      <use xlink:href="#DejaVuSans-73" x="521.003906"/>
      <use xlink:href="#DejaVuSans-2c" x="573.103516"/>
      <use xlink:href="#DejaVuSans-20" x="604.890625"/>
      <use xlink:href="#DejaVuSans-74" x="636.677734"/>
      <use xlink:href="#DejaVuSans-65" x="675.886719"/>
      <use xlink:href="#DejaVuSans-6d" x="737.410156"/>
      <use xlink:href="#DejaVuSans-70" x="834.822266"/>
      <use xlink:href="#DejaVuSans-65" x="898.298828"/>
      <use xlink:href="#DejaVuSans-72" x="959.822266"/>
      <use xlink:href="#DejaVuSans-61" x="1000.935547"/>
      <use xlink:href="#DejaVuSans-74" x="1062.214844"/>
      <use xlink:href="#DejaVuSans-75" x="1101.423828"/>
      <use xlink:href="#DejaVuSans-72" x="1164.802734"/>
      <use xlink:href="#DejaVuSans-65" x="1203.666016"/>
      <use xlink:href="#DejaVuSans-20" x="1265.189453"/>
      <use xlink:href="#DejaVuSans-3d" x="1296.976562"/>
      <use xlink:href="#DejaVuSans-20" x="1380.765625"/>
      <use xlink:href="#DejaVuSans-31" x="1412.552734"/>
      <use xlink:href="#DejaVuSans-33" x="1476.175781"/>
      <use xlink:href="#DejaVuSans-30" x="1539.798828"/>
     </g>
    </g>
    <g id="line2d_41">
     <path d="M 425.54855 132.723437 
L 435.54855 132.723437 
L 445.54855 132.723437 
" style="fill: none; stroke: #bcbd22; stroke-width: 1.5; stroke-linecap: square"/>
    </g>
    <g id="text_26">
     <!-- corner = ff, temperature = 130 -->
     <g transform="translate(453.54855 136.223437) scale(0.1 -0.1)">
      <use xlink:href="#DejaVuSans-63"/>
      <use xlink:href="#DejaVuSans-6f" x="54.980469"/>
      <use xlink:href="#DejaVuSans-72" x="116.162109"/>
      <use xlink:href="#DejaVuSans-6e" x="155.525391"/>
      <use xlink:href="#DejaVuSans-65" x="218.904297"/>
      <use xlink:href="#DejaVuSans-72" x="280.427734"/>
      <use xlink:href="#DejaVuSans-20" x="321.541016"/>
      <use xlink:href="#DejaVuSans-3d" x="353.328125"/>
      <use xlink:href="#DejaVuSans-20" x="437.117188"/>
      <use xlink:href="#DejaVuSans-66" x="468.904297"/>
      <use xlink:href="#DejaVuSans-66" x="504.109375"/>
      <use xlink:href="#DejaVuSans-2c" x="539.314453"/>
      <use xlink:href="#DejaVuSans-20" x="571.101562"/>
      <use xlink:href="#DejaVuSans-74" x="602.888672"/>
      <use xlink:href="#DejaVuSans-65" x="642.097656"/>
      <use xlink:href="#DejaVuSans-6d" x="703.621094"/>
      <use xlink:href="#DejaVuSans-70" x="801.033203"/>
      <use xlink:href="#DejaVuSans-65" x="864.509766"/>
      <use xlink:href="#DejaVuSans-72" x="926.033203"/>
      <use xlink:href="#DejaVuSans-61" x="967.146484"/>
      <use xlink:href="#DejaVuSans-74" x="1028.425781"/>
      <use xlink:href="#DejaVuSans-75" x="1067.634766"/>
      <use xlink:href="#DejaVuSans-72" x="1131.013672"/>
      <use xlink:href="#DejaVuSans-65" x="1169.876953"/>
      <use xlink:href="#DejaVuSans-20" x="1231.400391"/>
      <use xlink:href="#DejaVuSans-3d" x="1263.1875"/>
      <use xlink:href="#DejaVuSans-20" x="1346.976562"/>
      <use xlink:href="#DejaVuSans-31" x="1378.763672"/>
      <use xlink:href="#DejaVuSans-33" x="1442.386719"/>
      <use xlink:href="#DejaVuSans-30" x="1506.009766"/>
     </g>
    </g>
    <g id="line2d_42">
     <path d="M 425.54855 147.401562 
L 435.54855 147.401562 
L 445.54855 147.401562 
" style="fill: none; stroke: #17becf; stroke-width: 1.5; stroke-linecap: square"/>
    </g>
    <g id="text_27">
     <!-- corner = ff, temperature = 130 -->
     <g transform="translate(453.54855 150.901562) scale(0.1 -0.1)">
      <use xlink:href="#DejaVuSans-63"/>
      <use xlink:href="#DejaVuSans-6f" x="54.980469"/>
      <use xlink:href="#DejaVuSans-72" x="116.162109"/>
      <use xlink:href="#DejaVuSans-6e" x="155.525391"/>
      <use xlink:href="#DejaVuSans-65" x="218.904297"/>
      <use xlink:href="#DejaVuSans-72" x="280.427734"/>
      <use xlink:href="#DejaVuSans-20" x="321.541016"/>
      <use xlink:href="#DejaVuSans-3d" x="353.328125"/>
      <use xlink:href="#DejaVuSans-20" x="437.117188"/>
      <use xlink:href="#DejaVuSans-66" x="468.904297"/>
      <use xlink:href="#DejaVuSans-66" x="504.109375"/>
      <use xlink:href="#DejaVuSans-2c" x="539.314453"/>
      <use xlink:href="#DejaVuSans-20" x="571.101562"/>
      <use xlink:href="#DejaVuSans-74" x="602.888672"/>
      <use xlink:href="#DejaVuSans-65" x="642.097656"/>
      <use xlink:href="#DejaVuSans-6d" x="703.621094"/>
      <use xlink:href="#DejaVuSans-70" x="801.033203"/>
      <use xlink:href="#DejaVuSans-65" x="864.509766"/>
      <use xlink:href="#DejaVuSans-72" x="926.033203"/>
      <use xlink:href="#DejaVuSans-61" x="967.146484"/>
      <use xlink:href="#DejaVuSans-74" x="1028.425781"/>
      <use xlink:href="#DejaVuSans-75" x="1067.634766"/>
      <use xlink:href="#DejaVuSans-72" x="1131.013672"/>
      <use xlink:href="#DejaVuSans-65" x="1169.876953"/>
      <use xlink:href="#DejaVuSans-20" x="1231.400391"/>
      <use xlink:href="#DejaVuSans-3d" x="1263.1875"/>
      <use xlink:href="#DejaVuSans-20" x="1346.976562"/>
      <use xlink:href="#DejaVuSans-31" x="1378.763672"/>
      <use xlink:href="#DejaVuSans-33" x="1442.386719"/>
      <use xlink:href="#DejaVuSans-30" x="1506.009766"/>
     </g>
    </g>
    <g id="line2d_43">
     <path d="M 425.54855 162.079687 
L 435.54855 162.079687 
L 445.54855 162.079687 
" style="fill: none; stroke: #1f77b4; stroke-width: 1.5; stroke-linecap: square"/>
    </g>
    <g id="text_28">
     <!-- corner = tt, temperature = 130 -->
     <g transform="translate(453.54855 165.579687) scale(0.1 -0.1)">
      <use xlink:href="#DejaVuSans-63"/>
      <use xlink:href="#DejaVuSans-6f" x="54.980469"/>
      <use xlink:href="#DejaVuSans-72" x="116.162109"/>
      <use xlink:href="#DejaVuSans-6e" x="155.525391"/>
      <use xlink:href="#DejaVuSans-65" x="218.904297"/>
      <use xlink:href="#DejaVuSans-72" x="280.427734"/>
      <use xlink:href="#DejaVuSans-20" x="321.541016"/>
      <use xlink:href="#DejaVuSans-3d" x="353.328125"/>
      <use xlink:href="#DejaVuSans-20" x="437.117188"/>
      <use xlink:href="#DejaVuSans-74" x="468.904297"/>
      <use xlink:href="#DejaVuSans-74" x="508.113281"/>
      <use xlink:href="#DejaVuSans-2c" x="547.322266"/>
      <use xlink:href="#DejaVuSans-20" x="579.109375"/>
      <use xlink:href="#DejaVuSans-74" x="610.896484"/>
      <use xlink:href="#DejaVuSans-65" x="650.105469"/>
      <use xlink:href="#DejaVuSans-6d" x="711.628906"/>
      <use xlink:href="#DejaVuSans-70" x="809.041016"/>
      <use xlink:href="#DejaVuSans-65" x="872.517578"/>
      <use xlink:href="#DejaVuSans-72" x="934.041016"/>
      <use xlink:href="#DejaVuSans-61" x="975.154297"/>
      <use xlink:href="#DejaVuSans-74" x="1036.433594"/>
      <use xlink:href="#DejaVuSans-75" x="1075.642578"/>
      <use xlink:href="#DejaVuSans-72" x="1139.021484"/>
      <use xlink:href="#DejaVuSans-65" x="1177.884766"/>
      <use xlink:href="#DejaVuSans-20" x="1239.408203"/>
      <use xlink:href="#DejaVuSans-3d" x="1271.195312"/>
      <use xlink:href="#DejaVuSans-20" x="1354.984375"/>
      <use xlink:href="#DejaVuSans-31" x="1386.771484"/>
      <use xlink:href="#DejaVuSans-33" x="1450.394531"/>
      <use xlink:href="#DejaVuSans-30" x="1514.017578"/>
     </g>
    </g>
    <g id="line2d_44">
     <path d="M 425.54855 176.757812 
L 435.54855 176.757812 
L 445.54855 176.757812 
" style="fill: none; stroke: #ff7f0e; stroke-width: 1.5; stroke-linecap: square"/>
    </g>
    <g id="text_29">
     <!-- corner = tt, temperature = 130 -->
     <g transform="translate(453.54855 180.257812) scale(0.1 -0.1)">
      <use xlink:href="#DejaVuSans-63"/>
      <use xlink:href="#DejaVuSans-6f" x="54.980469"/>
      <use xlink:href="#DejaVuSans-72" x="116.162109"/>
      <use xlink:href="#DejaVuSans-6e" x="155.525391"/>
      <use xlink:href="#DejaVuSans-65" x="218.904297"/>
      <use xlink:href="#DejaVuSans-72" x="280.427734"/>
      <use xlink:href="#DejaVuSans-20" x="321.541016"/>
      <use xlink:href="#DejaVuSans-3d" x="353.328125"/>
      <use xlink:href="#DejaVuSans-20" x="437.117188"/>
      <use xlink:href="#DejaVuSans-74" x="468.904297"/>
      <use xlink:href="#DejaVuSans-74" x="508.113281"/>
      <use xlink:href="#DejaVuSans-2c" x="547.322266"/>
      <use xlink:href="#DejaVuSans-20" x="579.109375"/>
      <use xlink:href="#DejaVuSans-74" x="610.896484"/>
      <use xlink:href="#DejaVuSans-65" x="650.105469"/>
      <use xlink:href="#DejaVuSans-6d" x="711.628906"/>
      <use xlink:href="#DejaVuSans-70" x="809.041016"/>
      <use xlink:href="#DejaVuSans-65" x="872.517578"/>
      <use xlink:href="#DejaVuSans-72" x="934.041016"/>
      <use xlink:href="#DejaVuSans-61" x="975.154297"/>
      <use xlink:href="#DejaVuSans-74" x="1036.433594"/>
      <use xlink:href="#DejaVuSans-75" x="1075.642578"/>
      <use xlink:href="#DejaVuSans-72" x="1139.021484"/>
      <use xlink:href="#DejaVuSans-65" x="1177.884766"/>
      <use xlink:href="#DejaVuSans-20" x="1239.408203"/>
      <use xlink:href="#DejaVuSans-3d" x="1271.195312"/>
      <use xlink:href="#DejaVuSans-20" x="1354.984375"/>
      <use xlink:href="#DejaVuSans-31" x="1386.771484"/>
      <use xlink:href="#DejaVuSans-33" x="1450.394531"/>
      <use xlink:href="#DejaVuSans-30" x="1514.017578"/>
     </g>
    </g>
    <g id="line2d_45">
     <path d="M 425.54855 191.435937 
L 435.54855 191.435937 
L 445.54855 191.435937 
" style="fill: none; stroke: #2ca02c; stroke-width: 1.5; stroke-linecap: square"/>
    </g>
    <g id="text_30">
     <!-- corner = ss, temperature = 27 -->
     <g transform="translate(453.54855 194.935937) scale(0.1 -0.1)">
      <use xlink:href="#DejaVuSans-63"/>
      <use xlink:href="#DejaVuSans-6f" x="54.980469"/>
      <use xlink:href="#DejaVuSans-72" x="116.162109"/>
      <use xlink:href="#DejaVuSans-6e" x="155.525391"/>
      <use xlink:href="#DejaVuSans-65" x="218.904297"/>
      <use xlink:href="#DejaVuSans-72" x="280.427734"/>
      <use xlink:href="#DejaVuSans-20" x="321.541016"/>
      <use xlink:href="#DejaVuSans-3d" x="353.328125"/>
      <use xlink:href="#DejaVuSans-20" x="437.117188"/>
      <use xlink:href="#DejaVuSans-73" x="468.904297"/>
      <use xlink:href="#DejaVuSans-73" x="521.003906"/>
      <use xlink:href="#DejaVuSans-2c" x="573.103516"/>
      <use xlink:href="#DejaVuSans-20" x="604.890625"/>
      <use xlink:href="#DejaVuSans-74" x="636.677734"/>
      <use xlink:href="#DejaVuSans-65" x="675.886719"/>
      <use xlink:href="#DejaVuSans-6d" x="737.410156"/>
      <use xlink:href="#DejaVuSans-70" x="834.822266"/>
      <use xlink:href="#DejaVuSans-65" x="898.298828"/>
      <use xlink:href="#DejaVuSans-72" x="959.822266"/>
      <use xlink:href="#DejaVuSans-61" x="1000.935547"/>
      <use xlink:href="#DejaVuSans-74" x="1062.214844"/>
      <use xlink:href="#DejaVuSans-75" x="1101.423828"/>
      <use xlink:href="#DejaVuSans-72" x="1164.802734"/>
      <use xlink:href="#DejaVuSans-65" x="1203.666016"/>
      <use xlink:href="#DejaVuSans-20" x="1265.189453"/>
      <use xlink:href="#DejaVuSans-3d" x="1296.976562"/>
      <use xlink:href="#DejaVuSans-20" x="1380.765625"/>
      <use xlink:href="#DejaVuSans-32" x="1412.552734"/>
      <use xlink:href="#DejaVuSans-37" x="1476.175781"/>
     </g>
    </g>
    <g id="line2d_46">
     <path d="M 425.54855 206.114062 
L 435.54855 206.114062 
L 445.54855 206.114062 
" style="fill: none; stroke: #d62728; stroke-width: 1.5; stroke-linecap: square"/>
    </g>
    <g id="text_31">
     <!-- corner = ss, temperature = 27 -->
     <g transform="translate(453.54855 209.614062) scale(0.1 -0.1)">
      <use xlink:href="#DejaVuSans-63"/>
      <use xlink:href="#DejaVuSans-6f" x="54.980469"/>
      <use xlink:href="#DejaVuSans-72" x="116.162109"/>
      <use xlink:href="#DejaVuSans-6e" x="155.525391"/>
      <use xlink:href="#DejaVuSans-65" x="218.904297"/>
      <use xlink:href="#DejaVuSans-72" x="280.427734"/>
      <use xlink:href="#DejaVuSans-20" x="321.541016"/>
      <use xlink:href="#DejaVuSans-3d" x="353.328125"/>
      <use xlink:href="#DejaVuSans-20" x="437.117188"/>
      <use xlink:href="#DejaVuSans-73" x="468.904297"/>
      <use xlink:href="#DejaVuSans-73" x="521.003906"/>
      <use xlink:href="#DejaVuSans-2c" x="573.103516"/>
      <use xlink:href="#DejaVuSans-20" x="604.890625"/>
      <use xlink:href="#DejaVuSans-74" x="636.677734"/>
      <use xlink:href="#DejaVuSans-65" x="675.886719"/>
      <use xlink:href="#DejaVuSans-6d" x="737.410156"/>
      <use xlink:href="#DejaVuSans-70" x="834.822266"/>
      <use xlink:href="#DejaVuSans-65" x="898.298828"/>
      <use xlink:href="#DejaVuSans-72" x="959.822266"/>
      <use xlink:href="#DejaVuSans-61" x="1000.935547"/>
      <use xlink:href="#DejaVuSans-74" x="1062.214844"/>
      <use xlink:href="#DejaVuSans-75" x="1101.423828"/>
      <use xlink:href="#DejaVuSans-72" x="1164.802734"/>
      <use xlink:href="#DejaVuSans-65" x="1203.666016"/>
      <use xlink:href="#DejaVuSans-20" x="1265.189453"/>
      <use xlink:href="#DejaVuSans-3d" x="1296.976562"/>
      <use xlink:href="#DejaVuSans-20" x="1380.765625"/>
      <use xlink:href="#DejaVuSans-32" x="1412.552734"/>
      <use xlink:href="#DejaVuSans-37" x="1476.175781"/>
     </g>
    </g>
    <g id="line2d_47">
     <path d="M 425.54855 220.792187 
L 435.54855 220.792187 
L 445.54855 220.792187 
" style="fill: none; stroke: #9467bd; stroke-width: 1.5; stroke-linecap: square"/>
    </g>
    <g id="text_32">
     <!-- corner = ff, temperature = 27 -->
     <g transform="translate(453.54855 224.292187) scale(0.1 -0.1)">
      <use xlink:href="#DejaVuSans-63"/>
      <use xlink:href="#DejaVuSans-6f" x="54.980469"/>
      <use xlink:href="#DejaVuSans-72" x="116.162109"/>
      <use xlink:href="#DejaVuSans-6e" x="155.525391"/>
      <use xlink:href="#DejaVuSans-65" x="218.904297"/>
      <use xlink:href="#DejaVuSans-72" x="280.427734"/>
      <use xlink:href="#DejaVuSans-20" x="321.541016"/>
      <use xlink:href="#DejaVuSans-3d" x="353.328125"/>
      <use xlink:href="#DejaVuSans-20" x="437.117188"/>
      <use xlink:href="#DejaVuSans-66" x="468.904297"/>
      <use xlink:href="#DejaVuSans-66" x="504.109375"/>
      <use xlink:href="#DejaVuSans-2c" x="539.314453"/>
      <use xlink:href="#DejaVuSans-20" x="571.101562"/>
      <use xlink:href="#DejaVuSans-74" x="602.888672"/>
      <use xlink:href="#DejaVuSans-65" x="642.097656"/>
      <use xlink:href="#DejaVuSans-6d" x="703.621094"/>
      <use xlink:href="#DejaVuSans-70" x="801.033203"/>
      <use xlink:href="#DejaVuSans-65" x="864.509766"/>
      <use xlink:href="#DejaVuSans-72" x="926.033203"/>
      <use xlink:href="#DejaVuSans-61" x="967.146484"/>
      <use xlink:href="#DejaVuSans-74" x="1028.425781"/>
      <use xlink:href="#DejaVuSans-75" x="1067.634766"/>
      <use xlink:href="#DejaVuSans-72" x="1131.013672"/>
      <use xlink:href="#DejaVuSans-65" x="1169.876953"/>
      <use xlink:href="#DejaVuSans-20" x="1231.400391"/>
      <use xlink:href="#DejaVuSans-3d" x="1263.1875"/>
      <use xlink:href="#DejaVuSans-20" x="1346.976562"/>
      <use xlink:href="#DejaVuSans-32" x="1378.763672"/>
      <use xlink:href="#DejaVuSans-37" x="1442.386719"/>
     </g>
    </g>
    <g id="line2d_48">
     <path d="M 425.54855 235.470312 
L 435.54855 235.470312 
L 445.54855 235.470312 
" style="fill: none; stroke: #8c564b; stroke-width: 1.5; stroke-linecap: square"/>
    </g>
    <g id="text_33">
     <!-- corner = ff, temperature = 27 -->
     <g transform="translate(453.54855 238.970312) scale(0.1 -0.1)">
      <use xlink:href="#DejaVuSans-63"/>
      <use xlink:href="#DejaVuSans-6f" x="54.980469"/>
      <use xlink:href="#DejaVuSans-72" x="116.162109"/>
      <use xlink:href="#DejaVuSans-6e" x="155.525391"/>
      <use xlink:href="#DejaVuSans-65" x="218.904297"/>
      <use xlink:href="#DejaVuSans-72" x="280.427734"/>
      <use xlink:href="#DejaVuSans-20" x="321.541016"/>
      <use xlink:href="#DejaVuSans-3d" x="353.328125"/>
      <use xlink:href="#DejaVuSans-20" x="437.117188"/>
      <use xlink:href="#DejaVuSans-66" x="468.904297"/>
      <use xlink:href="#DejaVuSans-66" x="504.109375"/>
      <use xlink:href="#DejaVuSans-2c" x="539.314453"/>
      <use xlink:href="#DejaVuSans-20" x="571.101562"/>
      <use xlink:href="#DejaVuSans-74" x="602.888672"/>
      <use xlink:href="#DejaVuSans-65" x="642.097656"/>
      <use xlink:href="#DejaVuSans-6d" x="703.621094"/>
      <use xlink:href="#DejaVuSans-70" x="801.033203"/>
      <use xlink:href="#DejaVuSans-65" x="864.509766"/>
      <use xlink:href="#DejaVuSans-72" x="926.033203"/>
      <use xlink:href="#DejaVuSans-61" x="967.146484"/>
      <use xlink:href="#DejaVuSans-74" x="1028.425781"/>
      <use xlink:href="#DejaVuSans-75" x="1067.634766"/>
      <use xlink:href="#DejaVuSans-72" x="1131.013672"/>
      <use xlink:href="#DejaVuSans-65" x="1169.876953"/>
      <use xlink:href="#DejaVuSans-20" x="1231.400391"/>
      <use xlink:href="#DejaVuSans-3d" x="1263.1875"/>
      <use xlink:href="#DejaVuSans-20" x="1346.976562"/>
      <use xlink:href="#DejaVuSans-32" x="1378.763672"/>
      <use xlink:href="#DejaVuSans-37" x="1442.386719"/>
     </g>
    </g>
    <g id="line2d_49">
     <path d="M 425.54855 250.148437 
L 435.54855 250.148437 
L 445.54855 250.148437 
" style="fill: none; stroke: #e377c2; stroke-width: 1.5; stroke-linecap: square"/>
    </g>
    <g id="text_34">
     <!-- corner = tt, temperature = 27 -->
     <g transform="translate(453.54855 253.648437) scale(0.1 -0.1)">
      <use xlink:href="#DejaVuSans-63"/>
      <use xlink:href="#DejaVuSans-6f" x="54.980469"/>
      <use xlink:href="#DejaVuSans-72" x="116.162109"/>
      <use xlink:href="#DejaVuSans-6e" x="155.525391"/>
      <use xlink:href="#DejaVuSans-65" x="218.904297"/>
      <use xlink:href="#DejaVuSans-72" x="280.427734"/>
      <use xlink:href="#DejaVuSans-20" x="321.541016"/>
      <use xlink:href="#DejaVuSans-3d" x="353.328125"/>
      <use xlink:href="#DejaVuSans-20" x="437.117188"/>
      <use xlink:href="#DejaVuSans-74" x="468.904297"/>
      <use xlink:href="#DejaVuSans-74" x="508.113281"/>
      <use xlink:href="#DejaVuSans-2c" x="547.322266"/>
      <use xlink:href="#DejaVuSans-20" x="579.109375"/>
      <use xlink:href="#DejaVuSans-74" x="610.896484"/>
      <use xlink:href="#DejaVuSans-65" x="650.105469"/>
      <use xlink:href="#DejaVuSans-6d" x="711.628906"/>
      <use xlink:href="#DejaVuSans-70" x="809.041016"/>
      <use xlink:href="#DejaVuSans-65" x="872.517578"/>
      <use xlink:href="#DejaVuSans-72" x="934.041016"/>
      <use xlink:href="#DejaVuSans-61" x="975.154297"/>
      <use xlink:href="#DejaVuSans-74" x="1036.433594"/>
      <use xlink:href="#DejaVuSans-75" x="1075.642578"/>
      <use xlink:href="#DejaVuSans-72" x="1139.021484"/>
      <use xlink:href="#DejaVuSans-65" x="1177.884766"/>
      <use xlink:href="#DejaVuSans-20" x="1239.408203"/>
      <use xlink:href="#DejaVuSans-3d" x="1271.195312"/>
      <use xlink:href="#DejaVuSans-20" x="1354.984375"/>
      <use xlink:href="#DejaVuSans-32" x="1386.771484"/>
      <use xlink:href="#DejaVuSans-37" x="1450.394531"/>
     </g>
    </g>
    <g id="line2d_50">
     <path d="M 425.54855 264.826562 
L 435.54855 264.826562 
L 445.54855 264.826562 
" style="fill: none; stroke: #7f7f7f; stroke-width: 1.5; stroke-linecap: square"/>
    </g>
    <g id="text_35">
     <!-- corner = tt, temperature = 27 -->
     <g transform="translate(453.54855 268.326562) scale(0.1 -0.1)">
      <use xlink:href="#DejaVuSans-63"/>
      <use xlink:href="#DejaVuSans-6f" x="54.980469"/>
      <use xlink:href="#DejaVuSans-72" x="116.162109"/>
      <use xlink:href="#DejaVuSans-6e" x="155.525391"/>
      <use xlink:href="#DejaVuSans-65" x="218.904297"/>
      <use xlink:href="#DejaVuSans-72" x="280.427734"/>
      <use xlink:href="#DejaVuSans-20" x="321.541016"/>
      <use xlink:href="#DejaVuSans-3d" x="353.328125"/>
      <use xlink:href="#DejaVuSans-20" x="437.117188"/>
      <use xlink:href="#DejaVuSans-74" x="468.904297"/>
      <use xlink:href="#DejaVuSans-74" x="508.113281"/>
      <use xlink:href="#DejaVuSans-2c" x="547.322266"/>
      <use xlink:href="#DejaVuSans-20" x="579.109375"/>
      <use xlink:href="#DejaVuSans-74" x="610.896484"/>
      <use xlink:href="#DejaVuSans-65" x="650.105469"/>
      <use xlink:href="#DejaVuSans-6d" x="711.628906"/>
      <use xlink:href="#DejaVuSans-70" x="809.041016"/>
      <use xlink:href="#DejaVuSans-65" x="872.517578"/>
      <use xlink:href="#DejaVuSans-72" x="934.041016"/>
      <use xlink:href="#DejaVuSans-61" x="975.154297"/>
      <use xlink:href="#DejaVuSans-74" x="1036.433594"/>
      <use xlink:href="#DejaVuSans-75" x="1075.642578"/>
      <use xlink:href="#DejaVuSans-72" x="1139.021484"/>
      <use xlink:href="#DejaVuSans-65" x="1177.884766"/>
      <use xlink:href="#DejaVuSans-20" x="1239.408203"/>
      <use xlink:href="#DejaVuSans-3d" x="1271.195312"/>
      <use xlink:href="#DejaVuSans-20" x="1354.984375"/>
      <use xlink:href="#DejaVuSans-32" x="1386.771484"/>
      <use xlink:href="#DejaVuSans-37" x="1450.394531"/>
     </g>
    </g>
   </g>
  </g>
 </g>
 <defs>
  <clipPath id="p97fb902b94">
   <rect x="50.14375" y="7.2" width="357.12" height="266.112"/>
  </clipPath>
 </defs>
</svg>
