<?xml version="1.0" encoding="utf-8" standalone="no"?>
<!DOCTYPE svg PUBLIC "-//W3C//DTD SVG 1.1//EN"
  "http://www.w3.org/Graphics/SVG/1.1/DTD/svg11.dtd">
<svg xmlns:xlink="http://www.w3.org/1999/xlink" width="625.089175pt" height="310.86825pt" viewBox="0 0 625.089175 310.86825" xmlns="http://www.w3.org/2000/svg" version="1.1">
 <metadata>
  <rdf:RDF xmlns:dc="http://purl.org/dc/elements/1.1/" xmlns:cc="http://creativecommons.org/ns#" xmlns:rdf="http://www.w3.org/1999/02/22-rdf-syntax-ns#">
   <cc:Work>
    <dc:type rdf:resource="http://purl.org/dc/dcmitype/StillImage"/>
    <dc:date>2024-08-15T11:23:43.033320</dc:date>
    <dc:format>image/svg+xml</dc:format>
    <dc:creator>
     <cc:Agent>
      <dc:title>Matplotlib v3.8.4, https://matplotlib.org/</dc:title>
     </cc:Agent>
    </dc:creator>
   </cc:Work>
  </rdf:RDF>
 </metadata>
 <defs>
  <style type="text/css">*{stroke-linejoin: round; stroke-linecap: butt}</style>
 </defs>
 <g id="figure_1">
  <g id="patch_1">
   <path d="M 0 310.86825 
L 625.089175 310.86825 
L 625.089175 0 
L 0 0 
z
" style="fill: #ffffff"/>
  </g>
  <g id="axes_1">
   <g id="patch_2">
    <path d="M 50.14375 273.312 
L 407.26375 273.312 
L 407.26375 7.2 
L 50.14375 7.2 
z
" style="fill: #ffffff"/>
   </g>
   <g id="matplotlib.axis_1">
    <g id="xtick_1">
     <g id="line2d_1">
      <defs>
       <path id="m7b7ef36f00" d="M 0 0 
L 0 3.5 
" style="stroke: #000000; stroke-width: 0.8"/>
      </defs>
      <g>
       <use xlink:href="#m7b7ef36f00" x="66.376477" y="273.312" style="stroke: #000000; stroke-width: 0.8"/>
      </g>
     </g>
     <g id="text_1">
      <!-- 0 -->
      <g transform="translate(63.195227 287.910437) scale(0.1 -0.1)">
       <defs>
        <path id="DejaVuSans-30" d="M 2034 4250 
Q 1547 4250 1301 3770 
Q 1056 3291 1056 2328 
Q 1056 1369 1301 889 
Q 1547 409 2034 409 
Q 2525 409 2770 889 
Q 3016 1369 3016 2328 
Q 3016 3291 2770 3770 
Q 2525 4250 2034 4250 
z
M 2034 4750 
Q 2819 4750 3233 4129 
Q 3647 3509 3647 2328 
Q 3647 1150 3233 529 
Q 2819 -91 2034 -91 
Q 1250 -91 836 529 
Q 422 1150 422 2328 
Q 422 3509 836 4129 
Q 1250 4750 2034 4750 
z
" transform="scale(0.015625)"/>
       </defs>
       <use xlink:href="#DejaVuSans-30"/>
      </g>
     </g>
    </g>
    <g id="xtick_2">
     <g id="line2d_2">
      <g>
       <use xlink:href="#m7b7ef36f00" x="131.307386" y="273.312" style="stroke: #000000; stroke-width: 0.8"/>
      </g>
     </g>
     <g id="text_2">
      <!-- 1 -->
      <g transform="translate(128.126136 287.910437) scale(0.1 -0.1)">
       <defs>
        <path id="DejaVuSans-31" d="M 794 531 
L 1825 531 
L 1825 4091 
L 703 3866 
L 703 4441 
L 1819 4666 
L 2450 4666 
L 2450 531 
L 3481 531 
L 3481 0 
L 794 0 
L 794 531 
z
" transform="scale(0.015625)"/>
       </defs>
       <use xlink:href="#DejaVuSans-31"/>
      </g>
     </g>
    </g>
    <g id="xtick_3">
     <g id="line2d_3">
      <g>
       <use xlink:href="#m7b7ef36f00" x="196.238295" y="273.312" style="stroke: #000000; stroke-width: 0.8"/>
      </g>
     </g>
     <g id="text_3">
      <!-- 2 -->
      <g transform="translate(193.057045 287.910437) scale(0.1 -0.1)">
       <defs>
        <path id="DejaVuSans-32" d="M 1228 531 
L 3431 531 
L 3431 0 
L 469 0 
L 469 531 
Q 828 903 1448 1529 
Q 2069 2156 2228 2338 
Q 2531 2678 2651 2914 
Q 2772 3150 2772 3378 
Q 2772 3750 2511 3984 
Q 2250 4219 1831 4219 
Q 1534 4219 1204 4116 
Q 875 4013 500 3803 
L 500 4441 
Q 881 4594 1212 4672 
Q 1544 4750 1819 4750 
Q 2544 4750 2975 4387 
Q 3406 4025 3406 3419 
Q 3406 3131 3298 2873 
Q 3191 2616 2906 2266 
Q 2828 2175 2409 1742 
Q 1991 1309 1228 531 
z
" transform="scale(0.015625)"/>
       </defs>
       <use xlink:href="#DejaVuSans-32"/>
      </g>
     </g>
    </g>
    <g id="xtick_4">
     <g id="line2d_4">
      <g>
       <use xlink:href="#m7b7ef36f00" x="261.169205" y="273.312" style="stroke: #000000; stroke-width: 0.8"/>
      </g>
     </g>
     <g id="text_4">
      <!-- 3 -->
      <g transform="translate(257.987955 287.910437) scale(0.1 -0.1)">
       <defs>
        <path id="DejaVuSans-33" d="M 2597 2516 
Q 3050 2419 3304 2112 
Q 3559 1806 3559 1356 
Q 3559 666 3084 287 
Q 2609 -91 1734 -91 
Q 1441 -91 1130 -33 
Q 819 25 488 141 
L 488 750 
Q 750 597 1062 519 
Q 1375 441 1716 441 
Q 2309 441 2620 675 
Q 2931 909 2931 1356 
Q 2931 1769 2642 2001 
Q 2353 2234 1838 2234 
L 1294 2234 
L 1294 2753 
L 1863 2753 
Q 2328 2753 2575 2939 
Q 2822 3125 2822 3475 
Q 2822 3834 2567 4026 
Q 2313 4219 1838 4219 
Q 1578 4219 1281 4162 
Q 984 4106 628 3988 
L 628 4550 
Q 988 4650 1302 4700 
Q 1616 4750 1894 4750 
Q 2613 4750 3031 4423 
Q 3450 4097 3450 3541 
Q 3450 3153 3228 2886 
Q 3006 2619 2597 2516 
z
" transform="scale(0.015625)"/>
       </defs>
       <use xlink:href="#DejaVuSans-33"/>
      </g>
     </g>
    </g>
    <g id="xtick_5">
     <g id="line2d_5">
      <g>
       <use xlink:href="#m7b7ef36f00" x="326.100114" y="273.312" style="stroke: #000000; stroke-width: 0.8"/>
      </g>
     </g>
     <g id="text_5">
      <!-- 4 -->
      <g transform="translate(322.918864 287.910437) scale(0.1 -0.1)">
       <defs>
        <path id="DejaVuSans-34" d="M 2419 4116 
L 825 1625 
L 2419 1625 
L 2419 4116 
z
M 2253 4666 
L 3047 4666 
L 3047 1625 
L 3713 1625 
L 3713 1100 
L 3047 1100 
L 3047 0 
L 2419 0 
L 2419 1100 
L 313 1100 
L 313 1709 
L 2253 4666 
z
" transform="scale(0.015625)"/>
       </defs>
       <use xlink:href="#DejaVuSans-34"/>
      </g>
     </g>
    </g>
    <g id="xtick_6">
     <g id="line2d_6">
      <g>
       <use xlink:href="#m7b7ef36f00" x="391.031023" y="273.312" style="stroke: #000000; stroke-width: 0.8"/>
      </g>
     </g>
     <g id="text_6">
      <!-- 5 -->
      <g transform="translate(387.849773 287.910437) scale(0.1 -0.1)">
       <defs>
        <path id="DejaVuSans-35" d="M 691 4666 
L 3169 4666 
L 3169 4134 
L 1269 4134 
L 1269 2991 
Q 1406 3038 1543 3061 
Q 1681 3084 1819 3084 
Q 2600 3084 3056 2656 
Q 3513 2228 3513 1497 
Q 3513 744 3044 326 
Q 2575 -91 1722 -91 
Q 1428 -91 1123 -41 
Q 819 9 494 109 
L 494 744 
Q 775 591 1075 516 
Q 1375 441 1709 441 
Q 2250 441 2565 725 
Q 2881 1009 2881 1497 
Q 2881 1984 2565 2268 
Q 2250 2553 1709 2553 
Q 1456 2553 1204 2497 
Q 953 2441 691 2322 
L 691 4666 
z
" transform="scale(0.015625)"/>
       </defs>
       <use xlink:href="#DejaVuSans-35"/>
      </g>
     </g>
    </g>
    <g id="text_7">
     <!-- Time (ms) -->
     <g transform="translate(203.504531 301.588562) scale(0.1 -0.1)">
      <defs>
       <path id="DejaVuSans-54" d="M -19 4666 
L 3928 4666 
L 3928 4134 
L 2272 4134 
L 2272 0 
L 1638 0 
L 1638 4134 
L -19 4134 
L -19 4666 
z
" transform="scale(0.015625)"/>
       <path id="DejaVuSans-69" d="M 603 3500 
L 1178 3500 
L 1178 0 
L 603 0 
L 603 3500 
z
M 603 4863 
L 1178 4863 
L 1178 4134 
L 603 4134 
L 603 4863 
z
" transform="scale(0.015625)"/>
       <path id="DejaVuSans-6d" d="M 3328 2828 
Q 3544 3216 3844 3400 
Q 4144 3584 4550 3584 
Q 5097 3584 5394 3201 
Q 5691 2819 5691 2113 
L 5691 0 
L 5113 0 
L 5113 2094 
Q 5113 2597 4934 2840 
Q 4756 3084 4391 3084 
Q 3944 3084 3684 2787 
Q 3425 2491 3425 1978 
L 3425 0 
L 2847 0 
L 2847 2094 
Q 2847 2600 2669 2842 
Q 2491 3084 2119 3084 
Q 1678 3084 1418 2786 
Q 1159 2488 1159 1978 
L 1159 0 
L 581 0 
L 581 3500 
L 1159 3500 
L 1159 2956 
Q 1356 3278 1631 3431 
Q 1906 3584 2284 3584 
Q 2666 3584 2933 3390 
Q 3200 3197 3328 2828 
z
" transform="scale(0.015625)"/>
       <path id="DejaVuSans-65" d="M 3597 1894 
L 3597 1613 
L 953 1613 
Q 991 1019 1311 708 
Q 1631 397 2203 397 
Q 2534 397 2845 478 
Q 3156 559 3463 722 
L 3463 178 
Q 3153 47 2828 -22 
Q 2503 -91 2169 -91 
Q 1331 -91 842 396 
Q 353 884 353 1716 
Q 353 2575 817 3079 
Q 1281 3584 2069 3584 
Q 2775 3584 3186 3129 
Q 3597 2675 3597 1894 
z
M 3022 2063 
Q 3016 2534 2758 2815 
Q 2500 3097 2075 3097 
Q 1594 3097 1305 2825 
Q 1016 2553 972 2059 
L 3022 2063 
z
" transform="scale(0.015625)"/>
       <path id="DejaVuSans-20" transform="scale(0.015625)"/>
       <path id="DejaVuSans-28" d="M 1984 4856 
Q 1566 4138 1362 3434 
Q 1159 2731 1159 2009 
Q 1159 1288 1364 580 
Q 1569 -128 1984 -844 
L 1484 -844 
Q 1016 -109 783 600 
Q 550 1309 550 2009 
Q 550 2706 781 3412 
Q 1013 4119 1484 4856 
L 1984 4856 
z
" transform="scale(0.015625)"/>
       <path id="DejaVuSans-73" d="M 2834 3397 
L 2834 2853 
Q 2591 2978 2328 3040 
Q 2066 3103 1784 3103 
Q 1356 3103 1142 2972 
Q 928 2841 928 2578 
Q 928 2378 1081 2264 
Q 1234 2150 1697 2047 
L 1894 2003 
Q 2506 1872 2764 1633 
Q 3022 1394 3022 966 
Q 3022 478 2636 193 
Q 2250 -91 1575 -91 
Q 1294 -91 989 -36 
Q 684 19 347 128 
L 347 722 
Q 666 556 975 473 
Q 1284 391 1588 391 
Q 1994 391 2212 530 
Q 2431 669 2431 922 
Q 2431 1156 2273 1281 
Q 2116 1406 1581 1522 
L 1381 1569 
Q 847 1681 609 1914 
Q 372 2147 372 2553 
Q 372 3047 722 3315 
Q 1072 3584 1716 3584 
Q 2034 3584 2315 3537 
Q 2597 3491 2834 3397 
z
" transform="scale(0.015625)"/>
       <path id="DejaVuSans-29" d="M 513 4856 
L 1013 4856 
Q 1481 4119 1714 3412 
Q 1947 2706 1947 2009 
Q 1947 1309 1714 600 
Q 1481 -109 1013 -844 
L 513 -844 
Q 928 -128 1133 580 
Q 1338 1288 1338 2009 
Q 1338 2731 1133 3434 
Q 928 4138 513 4856 
z
" transform="scale(0.015625)"/>
      </defs>
      <use xlink:href="#DejaVuSans-54"/>
      <use xlink:href="#DejaVuSans-69" x="57.958984"/>
      <use xlink:href="#DejaVuSans-6d" x="85.742188"/>
      <use xlink:href="#DejaVuSans-65" x="183.154297"/>
      <use xlink:href="#DejaVuSans-20" x="244.677734"/>
      <use xlink:href="#DejaVuSans-28" x="276.464844"/>
      <use xlink:href="#DejaVuSans-6d" x="315.478516"/>
      <use xlink:href="#DejaVuSans-73" x="412.890625"/>
      <use xlink:href="#DejaVuSans-29" x="464.990234"/>
     </g>
    </g>
    <g id="text_8">
     <!-- 1e−7 -->
     <g transform="translate(380.005938 300.588562) scale(0.1 -0.1)">
      <defs>
       <path id="DejaVuSans-2212" d="M 678 2272 
L 4684 2272 
L 4684 1741 
L 678 1741 
L 678 2272 
z
" transform="scale(0.015625)"/>
       <path id="DejaVuSans-37" d="M 525 4666 
L 3525 4666 
L 3525 4397 
L 1831 0 
L 1172 0 
L 2766 4134 
L 525 4134 
L 525 4666 
z
" transform="scale(0.015625)"/>
      </defs>
      <use xlink:href="#DejaVuSans-31"/>
      <use xlink:href="#DejaVuSans-65" x="63.623047"/>
      <use xlink:href="#DejaVuSans-2212" x="125.146484"/>
      <use xlink:href="#DejaVuSans-37" x="208.935547"/>
     </g>
    </g>
   </g>
   <g id="matplotlib.axis_2">
    <g id="ytick_1">
     <g id="line2d_7">
      <defs>
       <path id="mac0594af45" d="M 0 0 
L -3.5 0 
" style="stroke: #000000; stroke-width: 0.8"/>
      </defs>
      <g>
       <use xlink:href="#mac0594af45" x="50.14375" y="261.216" style="stroke: #000000; stroke-width: 0.8"/>
      </g>
     </g>
     <g id="text_9">
      <!-- 0.00 -->
      <g transform="translate(20.878125 265.015219) scale(0.1 -0.1)">
       <defs>
        <path id="DejaVuSans-2e" d="M 684 794 
L 1344 794 
L 1344 0 
L 684 0 
L 684 794 
z
" transform="scale(0.015625)"/>
       </defs>
       <use xlink:href="#DejaVuSans-30"/>
       <use xlink:href="#DejaVuSans-2e" x="63.623047"/>
       <use xlink:href="#DejaVuSans-30" x="95.410156"/>
       <use xlink:href="#DejaVuSans-30" x="159.033203"/>
      </g>
     </g>
    </g>
    <g id="ytick_2">
     <g id="line2d_8">
      <g>
       <use xlink:href="#mac0594af45" x="50.14375" y="227.616" style="stroke: #000000; stroke-width: 0.8"/>
      </g>
     </g>
     <g id="text_10">
      <!-- 0.25 -->
      <g transform="translate(20.878125 231.415219) scale(0.1 -0.1)">
       <use xlink:href="#DejaVuSans-30"/>
       <use xlink:href="#DejaVuSans-2e" x="63.623047"/>
       <use xlink:href="#DejaVuSans-32" x="95.410156"/>
       <use xlink:href="#DejaVuSans-35" x="159.033203"/>
      </g>
     </g>
    </g>
    <g id="ytick_3">
     <g id="line2d_9">
      <g>
       <use xlink:href="#mac0594af45" x="50.14375" y="194.016" style="stroke: #000000; stroke-width: 0.8"/>
      </g>
     </g>
     <g id="text_11">
      <!-- 0.50 -->
      <g transform="translate(20.878125 197.815219) scale(0.1 -0.1)">
       <use xlink:href="#DejaVuSans-30"/>
       <use xlink:href="#DejaVuSans-2e" x="63.623047"/>
       <use xlink:href="#DejaVuSans-35" x="95.410156"/>
       <use xlink:href="#DejaVuSans-30" x="159.033203"/>
      </g>
     </g>
    </g>
    <g id="ytick_4">
     <g id="line2d_10">
      <g>
       <use xlink:href="#mac0594af45" x="50.14375" y="160.416" style="stroke: #000000; stroke-width: 0.8"/>
      </g>
     </g>
     <g id="text_12">
      <!-- 0.75 -->
      <g transform="translate(20.878125 164.215219) scale(0.1 -0.1)">
       <use xlink:href="#DejaVuSans-30"/>
       <use xlink:href="#DejaVuSans-2e" x="63.623047"/>
       <use xlink:href="#DejaVuSans-37" x="95.410156"/>
       <use xlink:href="#DejaVuSans-35" x="159.033203"/>
      </g>
     </g>
    </g>
    <g id="ytick_5">
     <g id="line2d_11">
      <g>
       <use xlink:href="#mac0594af45" x="50.14375" y="126.816" style="stroke: #000000; stroke-width: 0.8"/>
      </g>
     </g>
     <g id="text_13">
      <!-- 1.00 -->
      <g transform="translate(20.878125 130.615219) scale(0.1 -0.1)">
       <use xlink:href="#DejaVuSans-31"/>
       <use xlink:href="#DejaVuSans-2e" x="63.623047"/>
       <use xlink:href="#DejaVuSans-30" x="95.410156"/>
       <use xlink:href="#DejaVuSans-30" x="159.033203"/>
      </g>
     </g>
    </g>
    <g id="ytick_6">
     <g id="line2d_12">
      <g>
       <use xlink:href="#mac0594af45" x="50.14375" y="93.216" style="stroke: #000000; stroke-width: 0.8"/>
      </g>
     </g>
     <g id="text_14">
      <!-- 1.25 -->
      <g transform="translate(20.878125 97.015219) scale(0.1 -0.1)">
       <use xlink:href="#DejaVuSans-31"/>
       <use xlink:href="#DejaVuSans-2e" x="63.623047"/>
       <use xlink:href="#DejaVuSans-32" x="95.410156"/>
       <use xlink:href="#DejaVuSans-35" x="159.033203"/>
      </g>
     </g>
    </g>
    <g id="ytick_7">
     <g id="line2d_13">
      <g>
       <use xlink:href="#mac0594af45" x="50.14375" y="59.616" style="stroke: #000000; stroke-width: 0.8"/>
      </g>
     </g>
     <g id="text_15">
      <!-- 1.50 -->
      <g transform="translate(20.878125 63.415219) scale(0.1 -0.1)">
       <use xlink:href="#DejaVuSans-31"/>
       <use xlink:href="#DejaVuSans-2e" x="63.623047"/>
       <use xlink:href="#DejaVuSans-35" x="95.410156"/>
       <use xlink:href="#DejaVuSans-30" x="159.033203"/>
      </g>
     </g>
    </g>
    <g id="ytick_8">
     <g id="line2d_14">
      <g>
       <use xlink:href="#mac0594af45" x="50.14375" y="26.016" style="stroke: #000000; stroke-width: 0.8"/>
      </g>
     </g>
     <g id="text_16">
      <!-- 1.75 -->
      <g transform="translate(20.878125 29.815219) scale(0.1 -0.1)">
       <use xlink:href="#DejaVuSans-31"/>
       <use xlink:href="#DejaVuSans-2e" x="63.623047"/>
       <use xlink:href="#DejaVuSans-37" x="95.410156"/>
       <use xlink:href="#DejaVuSans-35" x="159.033203"/>
      </g>
     </g>
    </g>
    <g id="text_17">
     <!-- Vout (V), Vinp (V) -->
     <g transform="translate(14.798438 183.516937) rotate(-90) scale(0.1 -0.1)">
      <defs>
       <path id="DejaVuSans-56" d="M 1831 0 
L 50 4666 
L 709 4666 
L 2188 738 
L 3669 4666 
L 4325 4666 
L 2547 0 
L 1831 0 
z
" transform="scale(0.015625)"/>
       <path id="DejaVuSans-6f" d="M 1959 3097 
Q 1497 3097 1228 2736 
Q 959 2375 959 1747 
Q 959 1119 1226 758 
Q 1494 397 1959 397 
Q 2419 397 2687 759 
Q 2956 1122 2956 1747 
Q 2956 2369 2687 2733 
Q 2419 3097 1959 3097 
z
M 1959 3584 
Q 2709 3584 3137 3096 
Q 3566 2609 3566 1747 
Q 3566 888 3137 398 
Q 2709 -91 1959 -91 
Q 1206 -91 779 398 
Q 353 888 353 1747 
Q 353 2609 779 3096 
Q 1206 3584 1959 3584 
z
" transform="scale(0.015625)"/>
       <path id="DejaVuSans-75" d="M 544 1381 
L 544 3500 
L 1119 3500 
L 1119 1403 
Q 1119 906 1312 657 
Q 1506 409 1894 409 
Q 2359 409 2629 706 
Q 2900 1003 2900 1516 
L 2900 3500 
L 3475 3500 
L 3475 0 
L 2900 0 
L 2900 538 
Q 2691 219 2414 64 
Q 2138 -91 1772 -91 
Q 1169 -91 856 284 
Q 544 659 544 1381 
z
M 1991 3584 
L 1991 3584 
z
" transform="scale(0.015625)"/>
       <path id="DejaVuSans-74" d="M 1172 4494 
L 1172 3500 
L 2356 3500 
L 2356 3053 
L 1172 3053 
L 1172 1153 
Q 1172 725 1289 603 
Q 1406 481 1766 481 
L 2356 481 
L 2356 0 
L 1766 0 
Q 1100 0 847 248 
Q 594 497 594 1153 
L 594 3053 
L 172 3053 
L 172 3500 
L 594 3500 
L 594 4494 
L 1172 4494 
z
" transform="scale(0.015625)"/>
       <path id="DejaVuSans-2c" d="M 750 794 
L 1409 794 
L 1409 256 
L 897 -744 
L 494 -744 
L 750 256 
L 750 794 
z
" transform="scale(0.015625)"/>
       <path id="DejaVuSans-6e" d="M 3513 2113 
L 3513 0 
L 2938 0 
L 2938 2094 
Q 2938 2591 2744 2837 
Q 2550 3084 2163 3084 
Q 1697 3084 1428 2787 
Q 1159 2491 1159 1978 
L 1159 0 
L 581 0 
L 581 3500 
L 1159 3500 
L 1159 2956 
Q 1366 3272 1645 3428 
Q 1925 3584 2291 3584 
Q 2894 3584 3203 3211 
Q 3513 2838 3513 2113 
z
" transform="scale(0.015625)"/>
       <path id="DejaVuSans-70" d="M 1159 525 
L 1159 -1331 
L 581 -1331 
L 581 3500 
L 1159 3500 
L 1159 2969 
Q 1341 3281 1617 3432 
Q 1894 3584 2278 3584 
Q 2916 3584 3314 3078 
Q 3713 2572 3713 1747 
Q 3713 922 3314 415 
Q 2916 -91 2278 -91 
Q 1894 -91 1617 61 
Q 1341 213 1159 525 
z
M 3116 1747 
Q 3116 2381 2855 2742 
Q 2594 3103 2138 3103 
Q 1681 3103 1420 2742 
Q 1159 2381 1159 1747 
Q 1159 1113 1420 752 
Q 1681 391 2138 391 
Q 2594 391 2855 752 
Q 3116 1113 3116 1747 
z
" transform="scale(0.015625)"/>
      </defs>
      <use xlink:href="#DejaVuSans-56"/>
      <use xlink:href="#DejaVuSans-6f" x="60.658203"/>
      <use xlink:href="#DejaVuSans-75" x="121.839844"/>
      <use xlink:href="#DejaVuSans-74" x="185.21875"/>
      <use xlink:href="#DejaVuSans-20" x="224.427734"/>
      <use xlink:href="#DejaVuSans-28" x="256.214844"/>
      <use xlink:href="#DejaVuSans-56" x="295.228516"/>
      <use xlink:href="#DejaVuSans-29" x="363.636719"/>
      <use xlink:href="#DejaVuSans-2c" x="402.650391"/>
      <use xlink:href="#DejaVuSans-20" x="434.4375"/>
      <use xlink:href="#DejaVuSans-56" x="466.224609"/>
      <use xlink:href="#DejaVuSans-69" x="532.382812"/>
      <use xlink:href="#DejaVuSans-6e" x="560.166016"/>
      <use xlink:href="#DejaVuSans-70" x="623.544922"/>
      <use xlink:href="#DejaVuSans-20" x="687.021484"/>
      <use xlink:href="#DejaVuSans-28" x="718.808594"/>
      <use xlink:href="#DejaVuSans-56" x="757.822266"/>
      <use xlink:href="#DejaVuSans-29" x="826.230469"/>
     </g>
    </g>
   </g>
   <g id="line2d_15">
    <path d="M 66.376477 227.833255 
L 66.408943 227.833255 
L 66.441408 227.833255 
L 66.506339 227.833255 
L 66.636201 227.833255 
L 66.895925 227.833255 
L 67.415372 227.833255 
L 68.454266 227.833255 
L 70.532055 227.833255 
L 74.687634 227.833255 
L 81.180725 227.833255 
L 87.673815 227.833255 
L 94.166906 227.833255 
L 100.659997 227.833255 
L 107.153088 227.833255 
L 113.646179 227.833255 
L 120.13927 227.833255 
L 126.632361 227.833255 
L 131.307386 227.833255 
L 131.313879 227.819168 
L 131.326866 227.807119 
L 131.352838 227.791671 
L 131.372317 227.783362 
L 131.376166 227.799441 
L 131.383865 227.827925 
L 131.399262 227.844074 
L 131.419962 227.845964 
L 131.451984 227.846566 
L 131.497681 227.847859 
L 131.589074 227.849704 
L 131.771859 227.852621 
L 132.137431 227.854336 
L 132.868574 227.822745 
L 134.33086 227.404747 
L 137.255432 224.616152 
L 143.104576 214.697251 
L 149.597667 202.126688 
L 156.090758 189.760439 
L 162.583849 177.370778 
L 169.07694 165.005231 
L 175.570031 152.654969 
L 182.063122 140.329271 
L 188.556212 128.109786 
L 195.049303 116.779309 
L 201.542394 108.035953 
L 208.035485 102.505298 
L 214.528576 99.200004 
L 221.021667 97.246948 
L 227.514758 96.073822 
L 234.007849 95.363279 
L 240.50094 94.932166 
L 246.994031 94.668443 
L 253.487122 94.509962 
L 259.980212 94.410499 
L 266.473303 94.353193 
L 272.966394 94.314474 
L 279.459485 94.294888 
L 285.952576 94.278687 
L 292.445667 94.27319 
L 298.938758 94.265354 
L 305.431849 94.265117 
L 311.92494 94.260396 
L 318.418031 94.262119 
L 324.911122 94.258568 
L 331.404212 94.261011 
L 337.897303 94.257909 
L 344.390394 94.260609 
L 350.883485 94.257689 
L 357.376576 94.260469 
L 363.869667 94.257631 
L 370.362758 94.260429 
L 376.855849 94.257635 
L 383.34894 94.260424 
L 389.842031 94.25766 
L 391.031023 94.260406 
" clip-path="url(#p32238c8158)" style="fill: none; stroke: #1f77b4; stroke-width: 1.5; stroke-linecap: square"/>
   </g>
   <g id="line2d_16">
    <path d="M 66.376477 261.216 
L 66.408943 261.216 
L 66.441408 261.216 
L 66.506339 261.216 
L 66.636201 261.216 
L 66.895925 261.216 
L 67.415372 261.216 
L 68.454266 261.216 
L 70.532055 261.216 
L 74.687634 261.216 
L 81.180725 261.216 
L 87.673815 261.216 
L 94.166906 261.216 
L 100.659997 261.216 
L 107.153088 261.216 
L 113.646179 261.216 
L 120.13927 261.216 
L 126.632361 261.216 
L 131.307386 261.216 
L 131.313879 237.024 
L 131.326866 188.64 
L 131.352838 91.872 
L 131.372317 19.296 
L 131.376166 19.296 
L 131.383865 19.296 
L 131.399262 19.296 
L 131.419962 19.296 
L 131.451984 19.296 
L 131.497681 19.296 
L 131.589074 19.296 
L 131.771859 19.296 
L 132.137431 19.296 
L 132.868574 19.296 
L 134.33086 19.296 
L 137.255432 19.296 
L 143.104576 19.296 
L 149.597667 19.296 
L 156.090758 19.296 
L 162.583849 19.296 
L 169.07694 19.296 
L 175.570031 19.296 
L 182.063122 19.296 
L 188.556212 19.296 
L 195.049303 19.296 
L 201.542394 19.296 
L 208.035485 19.296 
L 214.528576 19.296 
L 221.021667 19.296 
L 227.514758 19.296 
L 234.007849 19.296 
L 240.50094 19.296 
L 246.994031 19.296 
L 253.487122 19.296 
L 259.980212 19.296 
L 266.473303 19.296 
L 272.966394 19.296 
L 279.459485 19.296 
L 285.952576 19.296 
L 292.445667 19.296 
L 298.938758 19.296 
L 305.431849 19.296 
L 311.92494 19.296 
L 318.418031 19.296 
L 324.911122 19.296 
L 331.404212 19.296 
L 337.897303 19.296 
L 344.390394 19.296 
L 350.883485 19.296 
L 357.376576 19.296 
L 363.869667 19.296 
L 370.362758 19.296 
L 376.855849 19.296 
L 383.34894 19.296 
L 389.842031 19.296 
L 391.031023 19.296 
" clip-path="url(#p32238c8158)" style="fill: none; stroke: #ff7f0e; stroke-width: 1.5; stroke-linecap: square"/>
   </g>
   <g id="line2d_17">
    <path d="M 66.376477 230.087877 
L 66.408943 230.087877 
L 66.441408 230.087877 
L 66.506339 230.087877 
L 66.636201 230.087877 
L 66.895925 230.087877 
L 67.415372 230.087877 
L 68.454266 230.087877 
L 70.532055 230.087877 
L 74.687634 230.087877 
L 81.180725 230.087877 
L 87.673815 230.087877 
L 94.166906 230.087877 
L 100.659997 230.087877 
L 107.153088 230.087877 
L 113.646179 230.087877 
L 120.13927 230.087877 
L 126.632361 230.087877 
L 131.307386 230.087877 
L 131.313879 230.07496 
L 131.326866 230.063712 
L 131.352838 230.047798 
L 131.372317 230.039271 
L 131.376298 230.053812 
L 131.384259 230.079164 
L 131.400182 230.093947 
L 131.422657 230.095737 
L 131.454534 230.09644 
L 131.505532 230.09785 
L 131.607528 230.100173 
L 131.811519 230.103979 
L 132.219501 230.107506 
L 133.035466 230.070938 
L 134.667396 229.510426 
L 137.931255 225.914992 
L 144.424346 214.217434 
L 150.917437 201.544923 
L 157.410528 189.100454 
L 163.903619 176.621387 
L 170.39671 164.172226 
L 176.889801 151.74042 
L 183.382892 139.336043 
L 189.875983 127.044888 
L 196.369073 115.698967 
L 202.862164 107.031559 
L 209.355255 101.634057 
L 215.848346 98.457454 
L 222.341437 96.610292 
L 228.834528 95.515472 
L 235.327619 94.863474 
L 241.82071 94.473238 
L 248.313801 94.23837 
L 254.806892 94.099548 
L 261.299983 94.013328 
L 267.793073 93.965066 
L 274.286164 93.932087 
L 280.779255 93.916596 
L 287.272346 93.902725 
L 293.765437 93.899118 
L 300.258528 93.892117 
L 306.751619 93.89282 
L 313.24471 93.888298 
L 319.737801 93.89056 
L 326.230892 93.886944 
L 332.723983 93.889759 
L 339.217073 93.886484 
L 345.710164 93.889485 
L 352.203255 93.88635 
L 358.696346 93.889403 
L 365.189437 93.886333 
L 371.682528 93.88939 
L 378.175619 93.886359 
L 384.66871 93.889402 
L 391.031023 93.886402 
" clip-path="url(#p32238c8158)" style="fill: none; stroke: #2ca02c; stroke-width: 1.5; stroke-linecap: square"/>
   </g>
   <g id="line2d_18">
    <path d="M 66.376477 261.216 
L 66.408943 261.216 
L 66.441408 261.216 
L 66.506339 261.216 
L 66.636201 261.216 
L 66.895925 261.216 
L 67.415372 261.216 
L 68.454266 261.216 
L 70.532055 261.216 
L 74.687634 261.216 
L 81.180725 261.216 
L 87.673815 261.216 
L 94.166906 261.216 
L 100.659997 261.216 
L 107.153088 261.216 
L 113.646179 261.216 
L 120.13927 261.216 
L 126.632361 261.216 
L 131.307386 261.216 
L 131.313879 237.024 
L 131.326866 188.64 
L 131.352838 91.872 
L 131.372317 19.296 
L 131.376298 19.296 
L 131.384259 19.296 
L 131.400182 19.296 
L 131.422657 19.296 
L 131.454534 19.296 
L 131.505532 19.296 
L 131.607528 19.296 
L 131.811519 19.296 
L 132.219501 19.296 
L 133.035466 19.296 
L 134.667396 19.296 
L 137.931255 19.296 
L 144.424346 19.296 
L 150.917437 19.296 
L 157.410528 19.296 
L 163.903619 19.296 
L 170.39671 19.296 
L 176.889801 19.296 
L 183.382892 19.296 
L 189.875983 19.296 
L 196.369073 19.296 
L 202.862164 19.296 
L 209.355255 19.296 
L 215.848346 19.296 
L 222.341437 19.296 
L 228.834528 19.296 
L 235.327619 19.296 
L 241.82071 19.296 
L 248.313801 19.296 
L 254.806892 19.296 
L 261.299983 19.296 
L 267.793073 19.296 
L 274.286164 19.296 
L 280.779255 19.296 
L 287.272346 19.296 
L 293.765437 19.296 
L 300.258528 19.296 
L 306.751619 19.296 
L 313.24471 19.296 
L 319.737801 19.296 
L 326.230892 19.296 
L 332.723983 19.296 
L 339.217073 19.296 
L 345.710164 19.296 
L 352.203255 19.296 
L 358.696346 19.296 
L 365.189437 19.296 
L 371.682528 19.296 
L 378.175619 19.296 
L 384.66871 19.296 
L 391.031023 19.296 
" clip-path="url(#p32238c8158)" style="fill: none; stroke: #d62728; stroke-width: 1.5; stroke-linecap: square"/>
   </g>
   <g id="line2d_19">
    <path d="M 66.376477 232.342683 
L 66.408943 232.342683 
L 66.441408 232.342683 
L 66.506339 232.342683 
L 66.636201 232.342683 
L 66.895925 232.342683 
L 67.415372 232.342683 
L 68.454266 232.342683 
L 70.532055 232.342683 
L 74.687634 232.342683 
L 81.180725 232.342683 
L 87.673815 232.342683 
L 94.166906 232.342683 
L 100.659997 232.342683 
L 107.153088 232.342683 
L 113.646179 232.342683 
L 120.13927 232.342683 
L 126.632361 232.342683 
L 131.307386 232.342683 
L 131.313879 232.331071 
L 131.326866 232.320671 
L 131.352838 232.304078 
L 131.372317 232.295081 
L 131.376437 232.307751 
L 131.384678 232.329263 
L 131.401158 232.343256 
L 131.427294 232.345121 
L 131.458292 232.346113 
L 131.514416 232.347399 
L 131.626662 232.350355 
L 131.851155 232.354675 
L 132.300141 232.360727 
L 133.198113 232.321027 
L 134.994056 231.600172 
L 138.585943 227.156344 
L 143.7811 217.456788 
L 149.535166 206.23837 
L 156.028257 193.674027 
L 162.521348 181.108698 
L 169.014439 168.566547 
L 175.507529 156.044518 
L 182.00062 143.547506 
L 188.493711 131.104418 
L 194.986802 119.124917 
L 201.479893 109.198335 
L 207.972984 102.669332 
L 214.466075 98.847054 
L 220.959166 96.651298 
L 227.452257 95.379933 
L 233.945348 94.640596 
L 240.438439 94.202431 
L 246.931529 93.944668 
L 253.42462 93.793231 
L 259.917711 93.701653 
L 266.410802 93.650459 
L 272.903893 93.616504 
L 279.396984 93.600553 
L 285.890075 93.586612 
L 292.383166 93.583099 
L 298.876257 93.576118 
L 305.369348 93.577 
L 311.862439 93.57245 
L 318.355529 93.574883 
L 324.84862 93.571192 
L 331.341711 93.574163 
L 337.834802 93.570788 
L 344.327893 93.573934 
L 350.820984 93.570687 
L 357.314075 93.573879 
L 363.807166 93.570694 
L 370.300257 93.573884 
L 376.793348 93.570738 
L 383.286439 93.57391 
L 389.779529 93.570797 
L 391.031023 93.573909 
" clip-path="url(#p32238c8158)" style="fill: none; stroke: #9467bd; stroke-width: 1.5; stroke-linecap: square"/>
   </g>
   <g id="line2d_20">
    <path d="M 66.376477 261.216 
L 66.408943 261.216 
L 66.441408 261.216 
L 66.506339 261.216 
L 66.636201 261.216 
L 66.895925 261.216 
L 67.415372 261.216 
L 68.454266 261.216 
L 70.532055 261.216 
L 74.687634 261.216 
L 81.180725 261.216 
L 87.673815 261.216 
L 94.166906 261.216 
L 100.659997 261.216 
L 107.153088 261.216 
L 113.646179 261.216 
L 120.13927 261.216 
L 126.632361 261.216 
L 131.307386 261.216 
L 131.313879 237.024 
L 131.326866 188.64 
L 131.352838 91.872 
L 131.372317 19.296 
L 131.376437 19.296 
L 131.384678 19.296 
L 131.401158 19.296 
L 131.427294 19.296 
L 131.458292 19.296 
L 131.514416 19.296 
L 131.626662 19.296 
L 131.851155 19.296 
L 132.300141 19.296 
L 133.198113 19.296 
L 134.994056 19.296 
L 138.585943 19.296 
L 143.7811 19.296 
L 149.535166 19.296 
L 156.028257 19.296 
L 162.521348 19.296 
L 169.014439 19.296 
L 175.507529 19.296 
L 182.00062 19.296 
L 188.493711 19.296 
L 194.986802 19.296 
L 201.479893 19.296 
L 207.972984 19.296 
L 214.466075 19.296 
L 220.959166 19.296 
L 227.452257 19.296 
L 233.945348 19.296 
L 240.438439 19.296 
L 246.931529 19.296 
L 253.42462 19.296 
L 259.917711 19.296 
L 266.410802 19.296 
L 272.903893 19.296 
L 279.396984 19.296 
L 285.890075 19.296 
L 292.383166 19.296 
L 298.876257 19.296 
L 305.369348 19.296 
L 311.862439 19.296 
L 318.355529 19.296 
L 324.84862 19.296 
L 331.341711 19.296 
L 337.834802 19.296 
L 344.327893 19.296 
L 350.820984 19.296 
L 357.314075 19.296 
L 363.807166 19.296 
L 370.300257 19.296 
L 376.793348 19.296 
L 383.286439 19.296 
L 389.779529 19.296 
L 391.031023 19.296 
" clip-path="url(#p32238c8158)" style="fill: none; stroke: #8c564b; stroke-width: 1.5; stroke-linecap: square"/>
   </g>
   <g id="line2d_21">
    <path d="M 66.376477 247.218398 
L 66.408943 247.218398 
L 66.441408 247.218398 
L 66.506339 247.218398 
L 66.636201 247.218398 
L 66.895925 247.218399 
L 67.415372 247.218399 
L 68.454266 247.218399 
L 70.532055 247.218399 
L 74.687634 247.218399 
L 81.180725 247.218399 
L 87.673815 247.218399 
L 94.166906 247.218399 
L 100.659997 247.218399 
L 107.153088 247.218399 
L 113.646179 247.218399 
L 120.13927 247.218399 
L 126.632361 247.218399 
L 131.307386 247.218399 
L 131.313879 247.203459 
L 131.326866 247.189773 
L 131.352838 247.17058 
L 131.372317 247.16243 
L 131.377114 247.181607 
L 131.386707 247.218649 
L 131.405892 247.251642 
L 131.432286 247.254107 
L 131.465984 247.255941 
L 131.518248 247.254079 
L 131.622775 247.253797 
L 131.83183 247.244781 
L 132.24994 247.213114 
L 133.08616 247.04366 
L 134.758598 246.124128 
L 138.103476 242.082687 
L 144.596567 230.417778 
L 151.089658 217.692728 
L 157.582749 205.10745 
L 164.07584 192.514015 
L 170.568931 179.938999 
L 177.062022 167.379208 
L 183.555112 154.840935 
L 190.048203 142.327898 
L 196.541294 129.91129 
L 203.034385 118.045184 
L 209.527476 108.145042 
L 216.020567 101.156521 
L 222.513658 96.670373 
L 229.006749 93.808871 
L 235.49984 91.987771 
L 241.992931 90.812405 
L 248.486022 90.054017 
L 254.979112 89.56091 
L 261.472203 89.24016 
L 267.965294 89.032582 
L 274.458385 88.895407 
L 280.951476 88.808575 
L 287.444567 88.748958 
L 293.937658 88.713416 
L 300.430749 88.686684 
L 306.92384 88.672966 
L 313.416931 88.66021 
L 319.910022 88.655774 
L 326.403112 88.648975 
L 332.896203 88.648481 
L 339.389294 88.644229 
L 345.882385 88.645399 
L 352.375476 88.642247 
L 358.868567 88.64411 
L 365.361658 88.641443 
L 371.854749 88.643584 
L 378.34784 88.64114 
L 384.840931 88.643384 
L 391.031023 88.641052 
" clip-path="url(#p32238c8158)" style="fill: none; stroke: #e377c2; stroke-width: 1.5; stroke-linecap: square"/>
   </g>
   <g id="line2d_22">
    <path d="M 66.376477 261.216 
L 66.408943 261.216 
L 66.441408 261.216 
L 66.506339 261.216 
L 66.636201 261.216 
L 66.895925 261.216 
L 67.415372 261.216 
L 68.454266 261.216 
L 70.532055 261.216 
L 74.687634 261.216 
L 81.180725 261.216 
L 87.673815 261.216 
L 94.166906 261.216 
L 100.659997 261.216 
L 107.153088 261.216 
L 113.646179 261.216 
L 120.13927 261.216 
L 126.632361 261.216 
L 131.307386 261.216 
L 131.313879 237.024 
L 131.326866 188.64 
L 131.352838 91.872 
L 131.372317 19.296 
L 131.377114 19.296 
L 131.386707 19.296 
L 131.405892 19.296 
L 131.432286 19.296 
L 131.465984 19.296 
L 131.518248 19.296 
L 131.622775 19.296 
L 131.83183 19.296 
L 132.24994 19.296 
L 133.08616 19.296 
L 134.758598 19.296 
L 138.103476 19.296 
L 144.596567 19.296 
L 151.089658 19.296 
L 157.582749 19.296 
L 164.07584 19.296 
L 170.568931 19.296 
L 177.062022 19.296 
L 183.555112 19.296 
L 190.048203 19.296 
L 196.541294 19.296 
L 203.034385 19.296 
L 209.527476 19.296 
L 216.020567 19.296 
L 222.513658 19.296 
L 229.006749 19.296 
L 235.49984 19.296 
L 241.992931 19.296 
L 248.486022 19.296 
L 254.979112 19.296 
L 261.472203 19.296 
L 267.965294 19.296 
L 274.458385 19.296 
L 280.951476 19.296 
L 287.444567 19.296 
L 293.937658 19.296 
L 300.430749 19.296 
L 306.92384 19.296 
L 313.416931 19.296 
L 319.910022 19.296 
L 326.403112 19.296 
L 332.896203 19.296 
L 339.389294 19.296 
L 345.882385 19.296 
L 352.375476 19.296 
L 358.868567 19.296 
L 365.361658 19.296 
L 371.854749 19.296 
L 378.34784 19.296 
L 384.840931 19.296 
L 391.031023 19.296 
" clip-path="url(#p32238c8158)" style="fill: none; stroke: #7f7f7f; stroke-width: 1.5; stroke-linecap: square"/>
   </g>
   <g id="line2d_23">
    <path d="M 66.376477 249.202681 
L 66.408943 249.202681 
L 66.441408 249.202681 
L 66.506339 249.202681 
L 66.636201 249.202681 
L 66.895925 249.202681 
L 67.415372 249.202681 
L 68.454266 249.202681 
L 70.532055 249.202681 
L 74.687634 249.202681 
L 81.180725 249.202681 
L 87.673815 249.202681 
L 94.166906 249.202681 
L 100.659997 249.202681 
L 107.153088 249.202681 
L 113.646179 249.202681 
L 120.13927 249.202681 
L 126.632361 249.202681 
L 131.307386 249.202681 
L 131.313879 249.188953 
L 131.326866 249.175857 
L 131.352838 249.156131 
L 131.372317 249.147799 
L 131.377308 249.165343 
L 131.387289 249.198921 
L 131.407251 249.229422 
L 131.434354 249.23191 
L 131.469232 249.233931 
L 131.524232 249.232831 
L 131.63423 249.233522 
L 131.854229 249.227187 
L 132.294226 249.200187 
L 133.174219 249.030058 
L 134.934207 248.010493 
L 138.454182 243.479147 
L 144.947272 231.449366 
L 151.440363 218.638648 
L 157.933454 205.9653 
L 164.426545 193.281962 
L 170.919636 180.619699 
L 177.412727 167.973496 
L 183.905818 155.350401 
L 190.398909 142.752936 
L 196.892 130.238019 
L 203.385091 118.186245 
L 209.878182 107.971832 
L 216.371272 100.692222 
L 222.864363 96.062362 
L 229.357454 93.149631 
L 235.850545 91.32818 
L 242.343636 90.165332 
L 248.836727 89.42419 
L 255.329818 88.950481 
L 261.822909 88.64579 
L 268.316 88.45229 
L 274.809091 88.325356 
L 281.302182 88.247059 
L 287.795272 88.193074 
L 294.288363 88.162358 
L 300.781454 88.138415 
L 307.274545 88.127382 
L 313.767636 88.115841 
L 320.260727 88.112949 
L 326.753818 88.106543 
L 333.246909 88.107008 
L 339.74 88.102741 
L 346.233091 88.10458 
L 352.726182 88.101216 
L 359.219272 88.103605 
L 365.712363 88.100633 
L 372.205454 88.103233 
L 378.698545 88.100439 
L 385.191636 88.103108 
L 391.031023 88.100411 
" clip-path="url(#p32238c8158)" style="fill: none; stroke: #bcbd22; stroke-width: 1.5; stroke-linecap: square"/>
   </g>
   <g id="line2d_24">
    <path d="M 66.376477 261.216 
L 66.408943 261.216 
L 66.441408 261.216 
L 66.506339 261.216 
L 66.636201 261.216 
L 66.895925 261.216 
L 67.415372 261.216 
L 68.454266 261.216 
L 70.532055 261.216 
L 74.687634 261.216 
L 81.180725 261.216 
L 87.673815 261.216 
L 94.166906 261.216 
L 100.659997 261.216 
L 107.153088 261.216 
L 113.646179 261.216 
L 120.13927 261.216 
L 126.632361 261.216 
L 131.307386 261.216 
L 131.313879 237.024 
L 131.326866 188.64 
L 131.352838 91.872 
L 131.372317 19.296 
L 131.377308 19.296 
L 131.387289 19.296 
L 131.407251 19.296 
L 131.434354 19.296 
L 131.469232 19.296 
L 131.524232 19.296 
L 131.63423 19.296 
L 131.854229 19.296 
L 132.294226 19.296 
L 133.174219 19.296 
L 134.934207 19.296 
L 138.454182 19.296 
L 144.947272 19.296 
L 151.440363 19.296 
L 157.933454 19.296 
L 164.426545 19.296 
L 170.919636 19.296 
L 177.412727 19.296 
L 183.905818 19.296 
L 190.398909 19.296 
L 196.892 19.296 
L 203.385091 19.296 
L 209.878182 19.296 
L 216.371272 19.296 
L 222.864363 19.296 
L 229.357454 19.296 
L 235.850545 19.296 
L 242.343636 19.296 
L 248.836727 19.296 
L 255.329818 19.296 
L 261.822909 19.296 
L 268.316 19.296 
L 274.809091 19.296 
L 281.302182 19.296 
L 287.795272 19.296 
L 294.288363 19.296 
L 300.781454 19.296 
L 307.274545 19.296 
L 313.767636 19.296 
L 320.260727 19.296 
L 326.753818 19.296 
L 333.246909 19.296 
L 339.74 19.296 
L 346.233091 19.296 
L 352.726182 19.296 
L 359.219272 19.296 
L 365.712363 19.296 
L 372.205454 19.296 
L 378.698545 19.296 
L 385.191636 19.296 
L 391.031023 19.296 
" clip-path="url(#p32238c8158)" style="fill: none; stroke: #17becf; stroke-width: 1.5; stroke-linecap: square"/>
   </g>
   <g id="line2d_25">
    <path d="M 66.376477 251.021257 
L 66.408943 251.021257 
L 66.441408 251.021257 
L 66.506339 251.021257 
L 66.636201 251.021257 
L 66.895925 251.021257 
L 67.415372 251.021257 
L 68.454266 251.021257 
L 70.532055 251.021257 
L 74.687634 251.021257 
L 81.180725 251.021257 
L 87.673815 251.021257 
L 94.166906 251.021257 
L 100.659997 251.021257 
L 107.153088 251.021257 
L 113.646179 251.021257 
L 120.13927 251.021257 
L 126.632361 251.021257 
L 131.307386 251.021257 
L 131.313879 251.008866 
L 131.326866 250.995603 
L 131.352838 250.975872 
L 131.372317 250.967175 
L 131.377483 250.982506 
L 131.387814 251.011292 
L 131.408476 251.039652 
L 131.436182 251.043098 
L 131.472693 251.045293 
L 131.530236 251.045091 
L 131.645319 251.046726 
L 131.875487 251.04357 
L 132.335822 251.023025 
L 133.256493 250.859285 
L 135.097834 249.752169 
L 138.780516 244.746764 
L 145.273607 232.396284 
L 151.766698 219.511445 
L 158.259789 206.746861 
L 164.752879 193.973443 
L 171.24597 181.2245 
L 177.739061 168.490914 
L 184.232152 155.782755 
L 190.725243 143.102599 
L 197.218334 130.494768 
L 203.711425 118.285526 
L 210.204516 107.801139 
L 216.697607 100.263415 
L 223.190698 95.506372 
L 229.683789 92.549391 
L 236.176879 90.72458 
L 242.66997 89.58177 
L 249.163061 88.865123 
L 255.656152 88.412517 
L 262.149243 88.1256 
L 268.642334 87.94611 
L 275.135425 87.829419 
L 281.628516 87.759235 
L 288.121607 87.710461 
L 294.614698 87.684225 
L 301.107789 87.662642 
L 307.600879 87.654106 
L 314.09397 87.643436 
L 320.587061 87.642025 
L 327.080152 87.635752 
L 333.573243 87.6372 
L 340.066334 87.632714 
L 346.559425 87.635295 
L 353.052516 87.631546 
L 359.545607 87.634567 
L 366.038698 87.631133 
L 372.531789 87.63431 
L 379.024879 87.632539 
L 385.51797 87.637712 
L 391.031023 87.635342 
" clip-path="url(#p32238c8158)" style="fill: none; stroke: #1f77b4; stroke-width: 1.5; stroke-linecap: square"/>
   </g>
   <g id="line2d_26">
    <path d="M 66.376477 261.216 
L 66.408943 261.216 
L 66.441408 261.216 
L 66.506339 261.216 
L 66.636201 261.216 
L 66.895925 261.216 
L 67.415372 261.216 
L 68.454266 261.216 
L 70.532055 261.216 
L 74.687634 261.216 
L 81.180725 261.216 
L 87.673815 261.216 
L 94.166906 261.216 
L 100.659997 261.216 
L 107.153088 261.216 
L 113.646179 261.216 
L 120.13927 261.216 
L 126.632361 261.216 
L 131.307386 261.216 
L 131.313879 237.024 
L 131.326866 188.64 
L 131.352838 91.872 
L 131.372317 19.296 
L 131.377483 19.296 
L 131.387814 19.296 
L 131.408476 19.296 
L 131.436182 19.296 
L 131.472693 19.296 
L 131.530236 19.296 
L 131.645319 19.296 
L 131.875487 19.296 
L 132.335822 19.296 
L 133.256493 19.296 
L 135.097834 19.296 
L 138.780516 19.296 
L 145.273607 19.296 
L 151.766698 19.296 
L 158.259789 19.296 
L 164.752879 19.296 
L 171.24597 19.296 
L 177.739061 19.296 
L 184.232152 19.296 
L 190.725243 19.296 
L 197.218334 19.296 
L 203.711425 19.296 
L 210.204516 19.296 
L 216.697607 19.296 
L 223.190698 19.296 
L 229.683789 19.296 
L 236.176879 19.296 
L 242.66997 19.296 
L 249.163061 19.296 
L 255.656152 19.296 
L 262.149243 19.296 
L 268.642334 19.296 
L 275.135425 19.296 
L 281.628516 19.296 
L 288.121607 19.296 
L 294.614698 19.296 
L 301.107789 19.296 
L 307.600879 19.296 
L 314.09397 19.296 
L 320.587061 19.296 
L 327.080152 19.296 
L 333.573243 19.296 
L 340.066334 19.296 
L 346.559425 19.296 
L 353.052516 19.296 
L 359.545607 19.296 
L 366.038698 19.296 
L 372.531789 19.296 
L 379.024879 19.296 
L 385.51797 19.296 
L 391.031023 19.296 
" clip-path="url(#p32238c8158)" style="fill: none; stroke: #ff7f0e; stroke-width: 1.5; stroke-linecap: square"/>
   </g>
   <g id="line2d_27">
    <path d="M 66.376477 255.527145 
L 66.408943 255.527145 
L 66.441408 255.527145 
L 66.506339 255.527145 
L 66.636201 255.527145 
L 66.895925 255.527145 
L 67.415372 255.527145 
L 68.454266 255.527145 
L 70.532055 255.527145 
L 74.687634 255.527145 
L 81.180725 255.527145 
L 87.673815 255.527145 
L 94.166906 255.527145 
L 100.659997 255.527145 
L 107.153088 255.527145 
L 113.646179 255.527145 
L 120.13927 255.527145 
L 126.632361 255.527145 
L 131.307386 255.527145 
L 131.313879 255.509989 
L 131.326866 255.486197 
L 131.352838 255.465789 
L 131.372317 255.461477 
L 131.376685 255.483112 
L 131.385418 255.527745 
L 131.402887 255.584664 
L 131.428072 255.599886 
L 131.463711 255.597163 
L 131.511214 255.587399 
L 131.606219 255.565463 
L 131.796231 255.512562 
L 132.176254 255.377238 
L 132.936301 254.984842 
L 134.456394 253.721993 
L 137.49658 249.667229 
L 143.576952 238.689572 
L 150.070043 225.810667 
L 156.563134 212.955492 
L 163.056225 200.110495 
L 169.549316 187.279099 
L 176.042407 174.469536 
L 182.535498 161.675727 
L 189.028589 148.910758 
L 195.52168 136.19848 
L 202.014771 123.671923 
L 208.507861 111.886548 
L 215.000952 101.941591 
L 221.494043 94.548911 
L 227.987134 89.402674 
L 234.480225 85.871606 
L 240.973316 83.451132 
L 247.466407 81.784156 
L 253.959498 80.63478 
L 260.452589 79.836706 
L 266.94568 79.284951 
L 273.438771 78.898822 
L 279.931861 78.632545 
L 286.424952 78.444264 
L 292.918043 78.315931 
L 299.411134 78.223443 
L 305.904225 78.161826 
L 312.397316 78.115882 
L 318.890407 78.086745 
L 325.383498 78.063459 
L 331.876589 78.050145 
L 338.36968 78.037906 
L 344.862771 78.032298 
L 351.355861 78.025452 
L 357.848952 78.023595 
L 364.342043 78.019387 
L 370.835134 78.019349 
L 377.328225 78.016437 
L 383.821316 78.017277 
L 390.314407 78.015004 
L 391.031023 78.016594 
" clip-path="url(#p32238c8158)" style="fill: none; stroke: #2ca02c; stroke-width: 1.5; stroke-linecap: square"/>
   </g>
   <g id="line2d_28">
    <path d="M 66.376477 261.216 
L 66.408943 261.216 
L 66.441408 261.216 
L 66.506339 261.216 
L 66.636201 261.216 
L 66.895925 261.216 
L 67.415372 261.216 
L 68.454266 261.216 
L 70.532055 261.216 
L 74.687634 261.216 
L 81.180725 261.216 
L 87.673815 261.216 
L 94.166906 261.216 
L 100.659997 261.216 
L 107.153088 261.216 
L 113.646179 261.216 
L 120.13927 261.216 
L 126.632361 261.216 
L 131.307386 261.216 
L 131.313879 237.024 
L 131.326866 188.64 
L 131.352838 91.872 
L 131.372317 19.296 
L 131.376685 19.296 
L 131.385418 19.296 
L 131.402887 19.296 
L 131.428072 19.296 
L 131.463711 19.296 
L 131.511214 19.296 
L 131.606219 19.296 
L 131.796231 19.296 
L 132.176254 19.296 
L 132.936301 19.296 
L 134.456394 19.296 
L 137.49658 19.296 
L 143.576952 19.296 
L 150.070043 19.296 
L 156.563134 19.296 
L 163.056225 19.296 
L 169.549316 19.296 
L 176.042407 19.296 
L 182.535498 19.296 
L 189.028589 19.296 
L 195.52168 19.296 
L 202.014771 19.296 
L 208.507861 19.296 
L 215.000952 19.296 
L 221.494043 19.296 
L 227.987134 19.296 
L 234.480225 19.296 
L 240.973316 19.296 
L 247.466407 19.296 
L 253.959498 19.296 
L 260.452589 19.296 
L 266.94568 19.296 
L 273.438771 19.296 
L 279.931861 19.296 
L 286.424952 19.296 
L 292.918043 19.296 
L 299.411134 19.296 
L 305.904225 19.296 
L 312.397316 19.296 
L 318.890407 19.296 
L 325.383498 19.296 
L 331.876589 19.296 
L 338.36968 19.296 
L 344.862771 19.296 
L 351.355861 19.296 
L 357.848952 19.296 
L 364.342043 19.296 
L 370.835134 19.296 
L 377.328225 19.296 
L 383.821316 19.296 
L 390.314407 19.296 
L 391.031023 19.296 
" clip-path="url(#p32238c8158)" style="fill: none; stroke: #d62728; stroke-width: 1.5; stroke-linecap: square"/>
   </g>
   <g id="line2d_29">
    <path d="M 66.376477 255.784304 
L 66.408943 255.784304 
L 66.441408 255.784304 
L 66.506339 255.784304 
L 66.636201 255.784304 
L 66.895925 255.784304 
L 67.415372 255.784304 
L 68.454266 255.784304 
L 70.532055 255.784304 
L 74.687634 255.784304 
L 81.180725 255.784303 
L 87.673815 255.784303 
L 94.166906 255.784303 
L 100.659997 255.784303 
L 107.153088 255.784303 
L 113.646179 255.784303 
L 120.13927 255.784303 
L 126.632361 255.784302 
L 131.307386 255.784302 
L 131.313879 255.768008 
L 131.326866 255.745455 
L 131.352838 255.724872 
L 131.372317 255.71982 
L 131.376372 255.738446 
L 131.384482 255.776506 
L 131.400702 255.829832 
L 131.425561 255.849793 
L 131.461525 255.847801 
L 131.508776 255.840883 
L 131.60328 255.821436 
L 131.792286 255.776315 
L 132.170299 255.653702 
L 132.926325 255.285103 
L 134.438378 254.041085 
L 137.462481 249.940348 
L 143.51069 238.827977 
L 149.659062 226.511743 
L 156.152153 213.564267 
L 162.645244 200.627852 
L 169.138335 187.704829 
L 175.631426 174.807227 
L 182.124517 161.925732 
L 188.617608 149.074873 
L 195.110699 136.27176 
L 201.60379 123.631127 
L 208.096881 111.639178 
L 214.589972 101.40552 
L 221.083062 93.759092 
L 227.576153 88.477951 
L 234.069244 84.892654 
L 240.562335 82.468431 
L 247.055426 80.817732 
L 253.548517 79.695318 
L 260.041608 78.924314 
L 266.534699 78.398865 
L 273.02779 78.034715 
L 279.520881 77.787618 
L 286.013972 77.614241 
L 292.507062 77.498239 
L 299.000153 77.415247 
L 305.493244 77.36153 
L 311.986335 77.321052 
L 318.479426 77.296553 
L 324.972517 77.276265 
L 331.465608 77.265651 
L 337.958699 77.254964 
L 344.45179 77.250948 
L 350.944881 77.244833 
L 357.437972 77.243947 
L 363.931062 77.240014 
L 370.424153 77.240611 
L 376.917244 77.237723 
L 383.410335 77.239016 
L 389.903426 77.236634 
L 391.031023 77.238484 
" clip-path="url(#p32238c8158)" style="fill: none; stroke: #9467bd; stroke-width: 1.5; stroke-linecap: square"/>
   </g>
   <g id="line2d_30">
    <path d="M 66.376477 261.216 
L 66.408943 261.216 
L 66.441408 261.216 
L 66.506339 261.216 
L 66.636201 261.216 
L 66.895925 261.216 
L 67.415372 261.216 
L 68.454266 261.216 
L 70.532055 261.216 
L 74.687634 261.216 
L 81.180725 261.216 
L 87.673815 261.216 
L 94.166906 261.216 
L 100.659997 261.216 
L 107.153088 261.216 
L 113.646179 261.216 
L 120.13927 261.216 
L 126.632361 261.216 
L 131.307386 261.216 
L 131.313879 237.024 
L 131.326866 188.64 
L 131.352838 91.872 
L 131.372317 19.296 
L 131.376372 19.296 
L 131.384482 19.296 
L 131.400702 19.296 
L 131.425561 19.296 
L 131.461525 19.296 
L 131.508776 19.296 
L 131.60328 19.296 
L 131.792286 19.296 
L 132.170299 19.296 
L 132.926325 19.296 
L 134.438378 19.296 
L 137.462481 19.296 
L 143.51069 19.296 
L 149.659062 19.296 
L 156.152153 19.296 
L 162.645244 19.296 
L 169.138335 19.296 
L 175.631426 19.296 
L 182.124517 19.296 
L 188.617608 19.296 
L 195.110699 19.296 
L 201.60379 19.296 
L 208.096881 19.296 
L 214.589972 19.296 
L 221.083062 19.296 
L 227.576153 19.296 
L 234.069244 19.296 
L 240.562335 19.296 
L 247.055426 19.296 
L 253.548517 19.296 
L 260.041608 19.296 
L 266.534699 19.296 
L 273.02779 19.296 
L 279.520881 19.296 
L 286.013972 19.296 
L 292.507062 19.296 
L 299.000153 19.296 
L 305.493244 19.296 
L 311.986335 19.296 
L 318.479426 19.296 
L 324.972517 19.296 
L 331.465608 19.296 
L 337.958699 19.296 
L 344.45179 19.296 
L 350.944881 19.296 
L 357.437972 19.296 
L 363.931062 19.296 
L 370.424153 19.296 
L 376.917244 19.296 
L 383.410335 19.296 
L 389.903426 19.296 
L 391.031023 19.296 
" clip-path="url(#p32238c8158)" style="fill: none; stroke: #8c564b; stroke-width: 1.5; stroke-linecap: square"/>
   </g>
   <g id="line2d_31">
    <path d="M 66.376477 255.939846 
L 66.408943 255.939846 
L 66.441408 255.939846 
L 66.506339 255.939846 
L 66.636201 255.939846 
L 66.895925 255.939846 
L 67.415372 255.939846 
L 68.454266 255.939846 
L 70.532055 255.939846 
L 74.687634 255.939846 
L 81.180725 255.939846 
L 87.673815 255.939846 
L 94.166906 255.939846 
L 100.659997 255.939846 
L 107.153088 255.939846 
L 113.646179 255.939846 
L 120.13927 255.939846 
L 126.632361 255.939846 
L 131.307386 255.939846 
L 131.313879 255.924394 
L 131.326866 255.903039 
L 131.352838 255.882109 
L 131.372317 255.875746 
L 131.37611 255.891333 
L 131.383696 255.922551 
L 131.398868 255.970942 
L 131.423633 255.996062 
L 131.458668 255.995427 
L 131.506385 255.991805 
L 131.601819 255.975267 
L 131.785416 255.940407 
L 132.152608 255.83747 
L 132.886992 255.514287 
L 134.355762 254.355565 
L 137.293301 250.381444 
L 143.168379 239.476181 
L 148.872922 227.946591 
L 155.366013 214.903954 
L 161.859104 201.874635 
L 168.352195 188.858497 
L 174.845286 175.870821 
L 181.338377 162.900196 
L 187.831468 149.961207 
L 194.324559 137.064734 
L 200.81765 124.303806 
L 207.310741 112.080281 
L 213.803832 101.466088 
L 220.296922 93.428687 
L 226.790013 87.899018 
L 233.283104 84.180992 
L 239.776195 81.700681 
L 246.269286 80.030583 
L 252.762377 78.910045 
L 259.255468 78.150363 
L 265.748559 77.640868 
L 272.24165 77.289944 
L 278.734741 77.055843 
L 285.227832 76.892346 
L 291.720922 76.785162 
L 298.214013 76.708157 
L 304.707104 76.659694 
L 311.200195 76.622727 
L 317.693286 76.60148 
L 324.186377 76.583079 
L 330.679468 76.574452 
L 337.172559 76.564671 
L 343.66565 76.561895 
L 350.158741 76.55612 
L 356.651832 76.556053 
L 363.144922 76.552146 
L 369.638013 76.553327 
L 376.131104 76.550295 
L 382.624195 76.55205 
L 389.117286 76.549432 
L 391.031023 76.5516 
" clip-path="url(#p32238c8158)" style="fill: none; stroke: #e377c2; stroke-width: 1.5; stroke-linecap: square"/>
   </g>
   <g id="line2d_32">
    <path d="M 66.376477 261.216 
L 66.408943 261.216 
L 66.441408 261.216 
L 66.506339 261.216 
L 66.636201 261.216 
L 66.895925 261.216 
L 67.415372 261.216 
L 68.454266 261.216 
L 70.532055 261.216 
L 74.687634 261.216 
L 81.180725 261.216 
L 87.673815 261.216 
L 94.166906 261.216 
L 100.659997 261.216 
L 107.153088 261.216 
L 113.646179 261.216 
L 120.13927 261.216 
L 126.632361 261.216 
L 131.307386 261.216 
L 131.313879 237.024 
L 131.326866 188.64 
L 131.352838 91.872 
L 131.372317 19.296 
L 131.37611 19.296 
L 131.383696 19.296 
L 131.398868 19.296 
L 131.423633 19.296 
L 131.458668 19.296 
L 131.506385 19.296 
L 131.601819 19.296 
L 131.785416 19.296 
L 132.152608 19.296 
L 132.886992 19.296 
L 134.355762 19.296 
L 137.293301 19.296 
L 143.168379 19.296 
L 148.872922 19.296 
L 155.366013 19.296 
L 161.859104 19.296 
L 168.352195 19.296 
L 174.845286 19.296 
L 181.338377 19.296 
L 187.831468 19.296 
L 194.324559 19.296 
L 200.81765 19.296 
L 207.310741 19.296 
L 213.803832 19.296 
L 220.296922 19.296 
L 226.790013 19.296 
L 233.283104 19.296 
L 239.776195 19.296 
L 246.269286 19.296 
L 252.762377 19.296 
L 259.255468 19.296 
L 265.748559 19.296 
L 272.24165 19.296 
L 278.734741 19.296 
L 285.227832 19.296 
L 291.720922 19.296 
L 298.214013 19.296 
L 304.707104 19.296 
L 311.200195 19.296 
L 317.693286 19.296 
L 324.186377 19.296 
L 330.679468 19.296 
L 337.172559 19.296 
L 343.66565 19.296 
L 350.158741 19.296 
L 356.651832 19.296 
L 363.144922 19.296 
L 369.638013 19.296 
L 376.131104 19.296 
L 382.624195 19.296 
L 389.117286 19.296 
L 391.031023 19.296 
" clip-path="url(#p32238c8158)" style="fill: none; stroke: #7f7f7f; stroke-width: 1.5; stroke-linecap: square"/>
   </g>
   <g id="patch_3">
    <path d="M 50.14375 273.312 
L 50.14375 7.2 
" style="fill: none; stroke: #000000; stroke-width: 0.8; stroke-linejoin: miter; stroke-linecap: square"/>
   </g>
   <g id="patch_4">
    <path d="M 407.26375 273.312 
L 407.26375 7.2 
" style="fill: none; stroke: #000000; stroke-width: 0.8; stroke-linejoin: miter; stroke-linecap: square"/>
   </g>
   <g id="patch_5">
    <path d="M 50.14375 273.312 
L 407.26375 273.312 
" style="fill: none; stroke: #000000; stroke-width: 0.8; stroke-linejoin: miter; stroke-linecap: square"/>
   </g>
   <g id="patch_6">
    <path d="M 50.14375 7.2 
L 407.26375 7.2 
" style="fill: none; stroke: #000000; stroke-width: 0.8; stroke-linejoin: miter; stroke-linecap: square"/>
   </g>
   <g id="legend_1">
    <g id="patch_7">
     <path d="M 423.54855 274.40625 
L 615.889175 274.40625 
Q 617.889175 274.40625 617.889175 272.40625 
L 617.889175 9.2 
Q 617.889175 7.2 615.889175 7.2 
L 423.54855 7.2 
Q 421.54855 7.2 421.54855 9.2 
L 421.54855 272.40625 
Q 421.54855 274.40625 423.54855 274.40625 
z
" style="fill: #ffffff; opacity: 0.8; stroke: #cccccc; stroke-linejoin: miter"/>
    </g>
    <g id="line2d_33">
     <path d="M 425.54855 15.298437 
L 435.54855 15.298437 
L 445.54855 15.298437 
" style="fill: none; stroke: #1f77b4; stroke-width: 1.5; stroke-linecap: square"/>
    </g>
    <g id="text_18">
     <!-- corner = ss, temperature = -40 -->
     <g transform="translate(453.54855 18.798437) scale(0.1 -0.1)">
      <defs>
       <path id="DejaVuSans-63" d="M 3122 3366 
L 3122 2828 
Q 2878 2963 2633 3030 
Q 2388 3097 2138 3097 
Q 1578 3097 1268 2742 
Q 959 2388 959 1747 
Q 959 1106 1268 751 
Q 1578 397 2138 397 
Q 2388 397 2633 464 
Q 2878 531 3122 666 
L 3122 134 
Q 2881 22 2623 -34 
Q 2366 -91 2075 -91 
Q 1284 -91 818 406 
Q 353 903 353 1747 
Q 353 2603 823 3093 
Q 1294 3584 2113 3584 
Q 2378 3584 2631 3529 
Q 2884 3475 3122 3366 
z
" transform="scale(0.015625)"/>
       <path id="DejaVuSans-72" d="M 2631 2963 
Q 2534 3019 2420 3045 
Q 2306 3072 2169 3072 
Q 1681 3072 1420 2755 
Q 1159 2438 1159 1844 
L 1159 0 
L 581 0 
L 581 3500 
L 1159 3500 
L 1159 2956 
Q 1341 3275 1631 3429 
Q 1922 3584 2338 3584 
Q 2397 3584 2469 3576 
Q 2541 3569 2628 3553 
L 2631 2963 
z
" transform="scale(0.015625)"/>
       <path id="DejaVuSans-3d" d="M 678 2906 
L 4684 2906 
L 4684 2381 
L 678 2381 
L 678 2906 
z
M 678 1631 
L 4684 1631 
L 4684 1100 
L 678 1100 
L 678 1631 
z
" transform="scale(0.015625)"/>
       <path id="DejaVuSans-61" d="M 2194 1759 
Q 1497 1759 1228 1600 
Q 959 1441 959 1056 
Q 959 750 1161 570 
Q 1363 391 1709 391 
Q 2188 391 2477 730 
Q 2766 1069 2766 1631 
L 2766 1759 
L 2194 1759 
z
M 3341 1997 
L 3341 0 
L 2766 0 
L 2766 531 
Q 2569 213 2275 61 
Q 1981 -91 1556 -91 
Q 1019 -91 701 211 
Q 384 513 384 1019 
Q 384 1609 779 1909 
Q 1175 2209 1959 2209 
L 2766 2209 
L 2766 2266 
Q 2766 2663 2505 2880 
Q 2244 3097 1772 3097 
Q 1472 3097 1187 3025 
Q 903 2953 641 2809 
L 641 3341 
Q 956 3463 1253 3523 
Q 1550 3584 1831 3584 
Q 2591 3584 2966 3190 
Q 3341 2797 3341 1997 
z
" transform="scale(0.015625)"/>
       <path id="DejaVuSans-2d" d="M 313 2009 
L 1997 2009 
L 1997 1497 
L 313 1497 
L 313 2009 
z
" transform="scale(0.015625)"/>
      </defs>
      <use xlink:href="#DejaVuSans-63"/>
      <use xlink:href="#DejaVuSans-6f" x="54.980469"/>
      <use xlink:href="#DejaVuSans-72" x="116.162109"/>
      <use xlink:href="#DejaVuSans-6e" x="155.525391"/>
      <use xlink:href="#DejaVuSans-65" x="218.904297"/>
      <use xlink:href="#DejaVuSans-72" x="280.427734"/>
      <use xlink:href="#DejaVuSans-20" x="321.541016"/>
      <use xlink:href="#DejaVuSans-3d" x="353.328125"/>
      <use xlink:href="#DejaVuSans-20" x="437.117188"/>
      <use xlink:href="#DejaVuSans-73" x="468.904297"/>
      <use xlink:href="#DejaVuSans-73" x="521.003906"/>
      <use xlink:href="#DejaVuSans-2c" x="573.103516"/>
      <use xlink:href="#DejaVuSans-20" x="604.890625"/>
      <use xlink:href="#DejaVuSans-74" x="636.677734"/>
      <use xlink:href="#DejaVuSans-65" x="675.886719"/>
      <use xlink:href="#DejaVuSans-6d" x="737.410156"/>
      <use xlink:href="#DejaVuSans-70" x="834.822266"/>
      <use xlink:href="#DejaVuSans-65" x="898.298828"/>
      <use xlink:href="#DejaVuSans-72" x="959.822266"/>
      <use xlink:href="#DejaVuSans-61" x="1000.935547"/>
      <use xlink:href="#DejaVuSans-74" x="1062.214844"/>
      <use xlink:href="#DejaVuSans-75" x="1101.423828"/>
      <use xlink:href="#DejaVuSans-72" x="1164.802734"/>
      <use xlink:href="#DejaVuSans-65" x="1203.666016"/>
      <use xlink:href="#DejaVuSans-20" x="1265.189453"/>
      <use xlink:href="#DejaVuSans-3d" x="1296.976562"/>
      <use xlink:href="#DejaVuSans-20" x="1380.765625"/>
      <use xlink:href="#DejaVuSans-2d" x="1412.552734"/>
      <use xlink:href="#DejaVuSans-34" x="1448.636719"/>
      <use xlink:href="#DejaVuSans-30" x="1512.259766"/>
     </g>
    </g>
    <g id="line2d_34">
     <path d="M 425.54855 29.976562 
L 435.54855 29.976562 
L 445.54855 29.976562 
" style="fill: none; stroke: #ff7f0e; stroke-width: 1.5; stroke-linecap: square"/>
    </g>
    <g id="text_19">
     <!-- corner = ss, temperature = -40 -->
     <g transform="translate(453.54855 33.476562) scale(0.1 -0.1)">
      <use xlink:href="#DejaVuSans-63"/>
      <use xlink:href="#DejaVuSans-6f" x="54.980469"/>
      <use xlink:href="#DejaVuSans-72" x="116.162109"/>
      <use xlink:href="#DejaVuSans-6e" x="155.525391"/>
      <use xlink:href="#DejaVuSans-65" x="218.904297"/>
      <use xlink:href="#DejaVuSans-72" x="280.427734"/>
      <use xlink:href="#DejaVuSans-20" x="321.541016"/>
      <use xlink:href="#DejaVuSans-3d" x="353.328125"/>
      <use xlink:href="#DejaVuSans-20" x="437.117188"/>
      <use xlink:href="#DejaVuSans-73" x="468.904297"/>
      <use xlink:href="#DejaVuSans-73" x="521.003906"/>
      <use xlink:href="#DejaVuSans-2c" x="573.103516"/>
      <use xlink:href="#DejaVuSans-20" x="604.890625"/>
      <use xlink:href="#DejaVuSans-74" x="636.677734"/>
      <use xlink:href="#DejaVuSans-65" x="675.886719"/>
      <use xlink:href="#DejaVuSans-6d" x="737.410156"/>
      <use xlink:href="#DejaVuSans-70" x="834.822266"/>
      <use xlink:href="#DejaVuSans-65" x="898.298828"/>
      <use xlink:href="#DejaVuSans-72" x="959.822266"/>
      <use xlink:href="#DejaVuSans-61" x="1000.935547"/>
      <use xlink:href="#DejaVuSans-74" x="1062.214844"/>
      <use xlink:href="#DejaVuSans-75" x="1101.423828"/>
      <use xlink:href="#DejaVuSans-72" x="1164.802734"/>
      <use xlink:href="#DejaVuSans-65" x="1203.666016"/>
      <use xlink:href="#DejaVuSans-20" x="1265.189453"/>
      <use xlink:href="#DejaVuSans-3d" x="1296.976562"/>
      <use xlink:href="#DejaVuSans-20" x="1380.765625"/>
      <use xlink:href="#DejaVuSans-2d" x="1412.552734"/>
      <use xlink:href="#DejaVuSans-34" x="1448.636719"/>
      <use xlink:href="#DejaVuSans-30" x="1512.259766"/>
     </g>
    </g>
    <g id="line2d_35">
     <path d="M 425.54855 44.654687 
L 435.54855 44.654687 
L 445.54855 44.654687 
" style="fill: none; stroke: #2ca02c; stroke-width: 1.5; stroke-linecap: square"/>
    </g>
    <g id="text_20">
     <!-- corner = tt, temperature = -40 -->
     <g transform="translate(453.54855 48.154687) scale(0.1 -0.1)">
      <use xlink:href="#DejaVuSans-63"/>
      <use xlink:href="#DejaVuSans-6f" x="54.980469"/>
      <use xlink:href="#DejaVuSans-72" x="116.162109"/>
      <use xlink:href="#DejaVuSans-6e" x="155.525391"/>
      <use xlink:href="#DejaVuSans-65" x="218.904297"/>
      <use xlink:href="#DejaVuSans-72" x="280.427734"/>
      <use xlink:href="#DejaVuSans-20" x="321.541016"/>
      <use xlink:href="#DejaVuSans-3d" x="353.328125"/>
      <use xlink:href="#DejaVuSans-20" x="437.117188"/>
      <use xlink:href="#DejaVuSans-74" x="468.904297"/>
      <use xlink:href="#DejaVuSans-74" x="508.113281"/>
      <use xlink:href="#DejaVuSans-2c" x="547.322266"/>
      <use xlink:href="#DejaVuSans-20" x="579.109375"/>
      <use xlink:href="#DejaVuSans-74" x="610.896484"/>
      <use xlink:href="#DejaVuSans-65" x="650.105469"/>
      <use xlink:href="#DejaVuSans-6d" x="711.628906"/>
      <use xlink:href="#DejaVuSans-70" x="809.041016"/>
      <use xlink:href="#DejaVuSans-65" x="872.517578"/>
      <use xlink:href="#DejaVuSans-72" x="934.041016"/>
      <use xlink:href="#DejaVuSans-61" x="975.154297"/>
      <use xlink:href="#DejaVuSans-74" x="1036.433594"/>
      <use xlink:href="#DejaVuSans-75" x="1075.642578"/>
      <use xlink:href="#DejaVuSans-72" x="1139.021484"/>
      <use xlink:href="#DejaVuSans-65" x="1177.884766"/>
      <use xlink:href="#DejaVuSans-20" x="1239.408203"/>
      <use xlink:href="#DejaVuSans-3d" x="1271.195312"/>
      <use xlink:href="#DejaVuSans-20" x="1354.984375"/>
      <use xlink:href="#DejaVuSans-2d" x="1386.771484"/>
      <use xlink:href="#DejaVuSans-34" x="1422.855469"/>
      <use xlink:href="#DejaVuSans-30" x="1486.478516"/>
     </g>
    </g>
    <g id="line2d_36">
     <path d="M 425.54855 59.332812 
L 435.54855 59.332812 
L 445.54855 59.332812 
" style="fill: none; stroke: #d62728; stroke-width: 1.5; stroke-linecap: square"/>
    </g>
    <g id="text_21">
     <!-- corner = tt, temperature = -40 -->
     <g transform="translate(453.54855 62.832812) scale(0.1 -0.1)">
      <use xlink:href="#DejaVuSans-63"/>
      <use xlink:href="#DejaVuSans-6f" x="54.980469"/>
      <use xlink:href="#DejaVuSans-72" x="116.162109"/>
      <use xlink:href="#DejaVuSans-6e" x="155.525391"/>
      <use xlink:href="#DejaVuSans-65" x="218.904297"/>
      <use xlink:href="#DejaVuSans-72" x="280.427734"/>
      <use xlink:href="#DejaVuSans-20" x="321.541016"/>
      <use xlink:href="#DejaVuSans-3d" x="353.328125"/>
      <use xlink:href="#DejaVuSans-20" x="437.117188"/>
      <use xlink:href="#DejaVuSans-74" x="468.904297"/>
      <use xlink:href="#DejaVuSans-74" x="508.113281"/>
      <use xlink:href="#DejaVuSans-2c" x="547.322266"/>
      <use xlink:href="#DejaVuSans-20" x="579.109375"/>
      <use xlink:href="#DejaVuSans-74" x="610.896484"/>
      <use xlink:href="#DejaVuSans-65" x="650.105469"/>
      <use xlink:href="#DejaVuSans-6d" x="711.628906"/>
      <use xlink:href="#DejaVuSans-70" x="809.041016"/>
      <use xlink:href="#DejaVuSans-65" x="872.517578"/>
      <use xlink:href="#DejaVuSans-72" x="934.041016"/>
      <use xlink:href="#DejaVuSans-61" x="975.154297"/>
      <use xlink:href="#DejaVuSans-74" x="1036.433594"/>
      <use xlink:href="#DejaVuSans-75" x="1075.642578"/>
      <use xlink:href="#DejaVuSans-72" x="1139.021484"/>
      <use xlink:href="#DejaVuSans-65" x="1177.884766"/>
      <use xlink:href="#DejaVuSans-20" x="1239.408203"/>
      <use xlink:href="#DejaVuSans-3d" x="1271.195312"/>
      <use xlink:href="#DejaVuSans-20" x="1354.984375"/>
      <use xlink:href="#DejaVuSans-2d" x="1386.771484"/>
      <use xlink:href="#DejaVuSans-34" x="1422.855469"/>
      <use xlink:href="#DejaVuSans-30" x="1486.478516"/>
     </g>
    </g>
    <g id="line2d_37">
     <path d="M 425.54855 74.010938 
L 435.54855 74.010938 
L 445.54855 74.010938 
" style="fill: none; stroke: #9467bd; stroke-width: 1.5; stroke-linecap: square"/>
    </g>
    <g id="text_22">
     <!-- corner = ff, temperature = -40 -->
     <g transform="translate(453.54855 77.510938) scale(0.1 -0.1)">
      <defs>
       <path id="DejaVuSans-66" d="M 2375 4863 
L 2375 4384 
L 1825 4384 
Q 1516 4384 1395 4259 
Q 1275 4134 1275 3809 
L 1275 3500 
L 2222 3500 
L 2222 3053 
L 1275 3053 
L 1275 0 
L 697 0 
L 697 3053 
L 147 3053 
L 147 3500 
L 697 3500 
L 697 3744 
Q 697 4328 969 4595 
Q 1241 4863 1831 4863 
L 2375 4863 
z
" transform="scale(0.015625)"/>
      </defs>
      <use xlink:href="#DejaVuSans-63"/>
      <use xlink:href="#DejaVuSans-6f" x="54.980469"/>
      <use xlink:href="#DejaVuSans-72" x="116.162109"/>
      <use xlink:href="#DejaVuSans-6e" x="155.525391"/>
      <use xlink:href="#DejaVuSans-65" x="218.904297"/>
      <use xlink:href="#DejaVuSans-72" x="280.427734"/>
      <use xlink:href="#DejaVuSans-20" x="321.541016"/>
      <use xlink:href="#DejaVuSans-3d" x="353.328125"/>
      <use xlink:href="#DejaVuSans-20" x="437.117188"/>
      <use xlink:href="#DejaVuSans-66" x="468.904297"/>
      <use xlink:href="#DejaVuSans-66" x="504.109375"/>
      <use xlink:href="#DejaVuSans-2c" x="539.314453"/>
      <use xlink:href="#DejaVuSans-20" x="571.101562"/>
      <use xlink:href="#DejaVuSans-74" x="602.888672"/>
      <use xlink:href="#DejaVuSans-65" x="642.097656"/>
      <use xlink:href="#DejaVuSans-6d" x="703.621094"/>
      <use xlink:href="#DejaVuSans-70" x="801.033203"/>
      <use xlink:href="#DejaVuSans-65" x="864.509766"/>
      <use xlink:href="#DejaVuSans-72" x="926.033203"/>
      <use xlink:href="#DejaVuSans-61" x="967.146484"/>
      <use xlink:href="#DejaVuSans-74" x="1028.425781"/>
      <use xlink:href="#DejaVuSans-75" x="1067.634766"/>
      <use xlink:href="#DejaVuSans-72" x="1131.013672"/>
      <use xlink:href="#DejaVuSans-65" x="1169.876953"/>
      <use xlink:href="#DejaVuSans-20" x="1231.400391"/>
      <use xlink:href="#DejaVuSans-3d" x="1263.1875"/>
      <use xlink:href="#DejaVuSans-20" x="1346.976562"/>
      <use xlink:href="#DejaVuSans-2d" x="1378.763672"/>
      <use xlink:href="#DejaVuSans-34" x="1414.847656"/>
      <use xlink:href="#DejaVuSans-30" x="1478.470703"/>
     </g>
    </g>
    <g id="line2d_38">
     <path d="M 425.54855 88.689062 
L 435.54855 88.689062 
L 445.54855 88.689062 
" style="fill: none; stroke: #8c564b; stroke-width: 1.5; stroke-linecap: square"/>
    </g>
    <g id="text_23">
     <!-- corner = ff, temperature = -40 -->
     <g transform="translate(453.54855 92.189062) scale(0.1 -0.1)">
      <use xlink:href="#DejaVuSans-63"/>
      <use xlink:href="#DejaVuSans-6f" x="54.980469"/>
      <use xlink:href="#DejaVuSans-72" x="116.162109"/>
      <use xlink:href="#DejaVuSans-6e" x="155.525391"/>
      <use xlink:href="#DejaVuSans-65" x="218.904297"/>
      <use xlink:href="#DejaVuSans-72" x="280.427734"/>
      <use xlink:href="#DejaVuSans-20" x="321.541016"/>
      <use xlink:href="#DejaVuSans-3d" x="353.328125"/>
      <use xlink:href="#DejaVuSans-20" x="437.117188"/>
      <use xlink:href="#DejaVuSans-66" x="468.904297"/>
      <use xlink:href="#DejaVuSans-66" x="504.109375"/>
      <use xlink:href="#DejaVuSans-2c" x="539.314453"/>
      <use xlink:href="#DejaVuSans-20" x="571.101562"/>
      <use xlink:href="#DejaVuSans-74" x="602.888672"/>
      <use xlink:href="#DejaVuSans-65" x="642.097656"/>
      <use xlink:href="#DejaVuSans-6d" x="703.621094"/>
      <use xlink:href="#DejaVuSans-70" x="801.033203"/>
      <use xlink:href="#DejaVuSans-65" x="864.509766"/>
      <use xlink:href="#DejaVuSans-72" x="926.033203"/>
      <use xlink:href="#DejaVuSans-61" x="967.146484"/>
      <use xlink:href="#DejaVuSans-74" x="1028.425781"/>
      <use xlink:href="#DejaVuSans-75" x="1067.634766"/>
      <use xlink:href="#DejaVuSans-72" x="1131.013672"/>
      <use xlink:href="#DejaVuSans-65" x="1169.876953"/>
      <use xlink:href="#DejaVuSans-20" x="1231.400391"/>
      <use xlink:href="#DejaVuSans-3d" x="1263.1875"/>
      <use xlink:href="#DejaVuSans-20" x="1346.976562"/>
      <use xlink:href="#DejaVuSans-2d" x="1378.763672"/>
      <use xlink:href="#DejaVuSans-34" x="1414.847656"/>
      <use xlink:href="#DejaVuSans-30" x="1478.470703"/>
     </g>
    </g>
    <g id="line2d_39">
     <path d="M 425.54855 103.367188 
L 435.54855 103.367188 
L 445.54855 103.367188 
" style="fill: none; stroke: #e377c2; stroke-width: 1.5; stroke-linecap: square"/>
    </g>
    <g id="text_24">
     <!-- corner = ss, temperature = 27 -->
     <g transform="translate(453.54855 106.867188) scale(0.1 -0.1)">
      <use xlink:href="#DejaVuSans-63"/>
      <use xlink:href="#DejaVuSans-6f" x="54.980469"/>
      <use xlink:href="#DejaVuSans-72" x="116.162109"/>
      <use xlink:href="#DejaVuSans-6e" x="155.525391"/>
      <use xlink:href="#DejaVuSans-65" x="218.904297"/>
      <use xlink:href="#DejaVuSans-72" x="280.427734"/>
      <use xlink:href="#DejaVuSans-20" x="321.541016"/>
      <use xlink:href="#DejaVuSans-3d" x="353.328125"/>
      <use xlink:href="#DejaVuSans-20" x="437.117188"/>
      <use xlink:href="#DejaVuSans-73" x="468.904297"/>
      <use xlink:href="#DejaVuSans-73" x="521.003906"/>
      <use xlink:href="#DejaVuSans-2c" x="573.103516"/>
      <use xlink:href="#DejaVuSans-20" x="604.890625"/>
      <use xlink:href="#DejaVuSans-74" x="636.677734"/>
      <use xlink:href="#DejaVuSans-65" x="675.886719"/>
      <use xlink:href="#DejaVuSans-6d" x="737.410156"/>
      <use xlink:href="#DejaVuSans-70" x="834.822266"/>
      <use xlink:href="#DejaVuSans-65" x="898.298828"/>
      <use xlink:href="#DejaVuSans-72" x="959.822266"/>
      <use xlink:href="#DejaVuSans-61" x="1000.935547"/>
      <use xlink:href="#DejaVuSans-74" x="1062.214844"/>
      <use xlink:href="#DejaVuSans-75" x="1101.423828"/>
      <use xlink:href="#DejaVuSans-72" x="1164.802734"/>
      <use xlink:href="#DejaVuSans-65" x="1203.666016"/>
      <use xlink:href="#DejaVuSans-20" x="1265.189453"/>
      <use xlink:href="#DejaVuSans-3d" x="1296.976562"/>
      <use xlink:href="#DejaVuSans-20" x="1380.765625"/>
      <use xlink:href="#DejaVuSans-32" x="1412.552734"/>
      <use xlink:href="#DejaVuSans-37" x="1476.175781"/>
     </g>
    </g>
    <g id="line2d_40">
     <path d="M 425.54855 118.045312 
L 435.54855 118.045312 
L 445.54855 118.045312 
" style="fill: none; stroke: #7f7f7f; stroke-width: 1.5; stroke-linecap: square"/>
    </g>
    <g id="text_25">
     <!-- corner = ss, temperature = 27 -->
     <g transform="translate(453.54855 121.545312) scale(0.1 -0.1)">
      <use xlink:href="#DejaVuSans-63"/>
      <use xlink:href="#DejaVuSans-6f" x="54.980469"/>
      <use xlink:href="#DejaVuSans-72" x="116.162109"/>
      <use xlink:href="#DejaVuSans-6e" x="155.525391"/>
      <use xlink:href="#DejaVuSans-65" x="218.904297"/>
      <use xlink:href="#DejaVuSans-72" x="280.427734"/>
      <use xlink:href="#DejaVuSans-20" x="321.541016"/>
      <use xlink:href="#DejaVuSans-3d" x="353.328125"/>
      <use xlink:href="#DejaVuSans-20" x="437.117188"/>
      <use xlink:href="#DejaVuSans-73" x="468.904297"/>
      <use xlink:href="#DejaVuSans-73" x="521.003906"/>
      <use xlink:href="#DejaVuSans-2c" x="573.103516"/>
      <use xlink:href="#DejaVuSans-20" x="604.890625"/>
      <use xlink:href="#DejaVuSans-74" x="636.677734"/>
      <use xlink:href="#DejaVuSans-65" x="675.886719"/>
      <use xlink:href="#DejaVuSans-6d" x="737.410156"/>
      <use xlink:href="#DejaVuSans-70" x="834.822266"/>
      <use xlink:href="#DejaVuSans-65" x="898.298828"/>
      <use xlink:href="#DejaVuSans-72" x="959.822266"/>
      <use xlink:href="#DejaVuSans-61" x="1000.935547"/>
      <use xlink:href="#DejaVuSans-74" x="1062.214844"/>
      <use xlink:href="#DejaVuSans-75" x="1101.423828"/>
      <use xlink:href="#DejaVuSans-72" x="1164.802734"/>
      <use xlink:href="#DejaVuSans-65" x="1203.666016"/>
      <use xlink:href="#DejaVuSans-20" x="1265.189453"/>
      <use xlink:href="#DejaVuSans-3d" x="1296.976562"/>
      <use xlink:href="#DejaVuSans-20" x="1380.765625"/>
      <use xlink:href="#DejaVuSans-32" x="1412.552734"/>
      <use xlink:href="#DejaVuSans-37" x="1476.175781"/>
     </g>
    </g>
    <g id="line2d_41">
     <path d="M 425.54855 132.723437 
L 435.54855 132.723437 
L 445.54855 132.723437 
" style="fill: none; stroke: #bcbd22; stroke-width: 1.5; stroke-linecap: square"/>
    </g>
    <g id="text_26">
     <!-- corner = tt, temperature = 27 -->
     <g transform="translate(453.54855 136.223437) scale(0.1 -0.1)">
      <use xlink:href="#DejaVuSans-63"/>
      <use xlink:href="#DejaVuSans-6f" x="54.980469"/>
      <use xlink:href="#DejaVuSans-72" x="116.162109"/>
      <use xlink:href="#DejaVuSans-6e" x="155.525391"/>
      <use xlink:href="#DejaVuSans-65" x="218.904297"/>
      <use xlink:href="#DejaVuSans-72" x="280.427734"/>
      <use xlink:href="#DejaVuSans-20" x="321.541016"/>
      <use xlink:href="#DejaVuSans-3d" x="353.328125"/>
      <use xlink:href="#DejaVuSans-20" x="437.117188"/>
      <use xlink:href="#DejaVuSans-74" x="468.904297"/>
      <use xlink:href="#DejaVuSans-74" x="508.113281"/>
      <use xlink:href="#DejaVuSans-2c" x="547.322266"/>
      <use xlink:href="#DejaVuSans-20" x="579.109375"/>
      <use xlink:href="#DejaVuSans-74" x="610.896484"/>
      <use xlink:href="#DejaVuSans-65" x="650.105469"/>
      <use xlink:href="#DejaVuSans-6d" x="711.628906"/>
      <use xlink:href="#DejaVuSans-70" x="809.041016"/>
      <use xlink:href="#DejaVuSans-65" x="872.517578"/>
      <use xlink:href="#DejaVuSans-72" x="934.041016"/>
      <use xlink:href="#DejaVuSans-61" x="975.154297"/>
      <use xlink:href="#DejaVuSans-74" x="1036.433594"/>
      <use xlink:href="#DejaVuSans-75" x="1075.642578"/>
      <use xlink:href="#DejaVuSans-72" x="1139.021484"/>
      <use xlink:href="#DejaVuSans-65" x="1177.884766"/>
      <use xlink:href="#DejaVuSans-20" x="1239.408203"/>
      <use xlink:href="#DejaVuSans-3d" x="1271.195312"/>
      <use xlink:href="#DejaVuSans-20" x="1354.984375"/>
      <use xlink:href="#DejaVuSans-32" x="1386.771484"/>
      <use xlink:href="#DejaVuSans-37" x="1450.394531"/>
     </g>
    </g>
    <g id="line2d_42">
     <path d="M 425.54855 147.401562 
L 435.54855 147.401562 
L 445.54855 147.401562 
" style="fill: none; stroke: #17becf; stroke-width: 1.5; stroke-linecap: square"/>
    </g>
    <g id="text_27">
     <!-- corner = tt, temperature = 27 -->
     <g transform="translate(453.54855 150.901562) scale(0.1 -0.1)">
      <use xlink:href="#DejaVuSans-63"/>
      <use xlink:href="#DejaVuSans-6f" x="54.980469"/>
      <use xlink:href="#DejaVuSans-72" x="116.162109"/>
      <use xlink:href="#DejaVuSans-6e" x="155.525391"/>
      <use xlink:href="#DejaVuSans-65" x="218.904297"/>
      <use xlink:href="#DejaVuSans-72" x="280.427734"/>
      <use xlink:href="#DejaVuSans-20" x="321.541016"/>
      <use xlink:href="#DejaVuSans-3d" x="353.328125"/>
      <use xlink:href="#DejaVuSans-20" x="437.117188"/>
      <use xlink:href="#DejaVuSans-74" x="468.904297"/>
      <use xlink:href="#DejaVuSans-74" x="508.113281"/>
      <use xlink:href="#DejaVuSans-2c" x="547.322266"/>
      <use xlink:href="#DejaVuSans-20" x="579.109375"/>
      <use xlink:href="#DejaVuSans-74" x="610.896484"/>
      <use xlink:href="#DejaVuSans-65" x="650.105469"/>
      <use xlink:href="#DejaVuSans-6d" x="711.628906"/>
      <use xlink:href="#DejaVuSans-70" x="809.041016"/>
      <use xlink:href="#DejaVuSans-65" x="872.517578"/>
      <use xlink:href="#DejaVuSans-72" x="934.041016"/>
      <use xlink:href="#DejaVuSans-61" x="975.154297"/>
      <use xlink:href="#DejaVuSans-74" x="1036.433594"/>
      <use xlink:href="#DejaVuSans-75" x="1075.642578"/>
      <use xlink:href="#DejaVuSans-72" x="1139.021484"/>
      <use xlink:href="#DejaVuSans-65" x="1177.884766"/>
      <use xlink:href="#DejaVuSans-20" x="1239.408203"/>
      <use xlink:href="#DejaVuSans-3d" x="1271.195312"/>
      <use xlink:href="#DejaVuSans-20" x="1354.984375"/>
      <use xlink:href="#DejaVuSans-32" x="1386.771484"/>
      <use xlink:href="#DejaVuSans-37" x="1450.394531"/>
     </g>
    </g>
    <g id="line2d_43">
     <path d="M 425.54855 162.079687 
L 435.54855 162.079687 
L 445.54855 162.079687 
" style="fill: none; stroke: #1f77b4; stroke-width: 1.5; stroke-linecap: square"/>
    </g>
    <g id="text_28">
     <!-- corner = ff, temperature = 27 -->
     <g transform="translate(453.54855 165.579687) scale(0.1 -0.1)">
      <use xlink:href="#DejaVuSans-63"/>
      <use xlink:href="#DejaVuSans-6f" x="54.980469"/>
      <use xlink:href="#DejaVuSans-72" x="116.162109"/>
      <use xlink:href="#DejaVuSans-6e" x="155.525391"/>
      <use xlink:href="#DejaVuSans-65" x="218.904297"/>
      <use xlink:href="#DejaVuSans-72" x="280.427734"/>
      <use xlink:href="#DejaVuSans-20" x="321.541016"/>
      <use xlink:href="#DejaVuSans-3d" x="353.328125"/>
      <use xlink:href="#DejaVuSans-20" x="437.117188"/>
      <use xlink:href="#DejaVuSans-66" x="468.904297"/>
      <use xlink:href="#DejaVuSans-66" x="504.109375"/>
      <use xlink:href="#DejaVuSans-2c" x="539.314453"/>
      <use xlink:href="#DejaVuSans-20" x="571.101562"/>
      <use xlink:href="#DejaVuSans-74" x="602.888672"/>
      <use xlink:href="#DejaVuSans-65" x="642.097656"/>
      <use xlink:href="#DejaVuSans-6d" x="703.621094"/>
      <use xlink:href="#DejaVuSans-70" x="801.033203"/>
      <use xlink:href="#DejaVuSans-65" x="864.509766"/>
      <use xlink:href="#DejaVuSans-72" x="926.033203"/>
      <use xlink:href="#DejaVuSans-61" x="967.146484"/>
      <use xlink:href="#DejaVuSans-74" x="1028.425781"/>
      <use xlink:href="#DejaVuSans-75" x="1067.634766"/>
      <use xlink:href="#DejaVuSans-72" x="1131.013672"/>
      <use xlink:href="#DejaVuSans-65" x="1169.876953"/>
      <use xlink:href="#DejaVuSans-20" x="1231.400391"/>
      <use xlink:href="#DejaVuSans-3d" x="1263.1875"/>
      <use xlink:href="#DejaVuSans-20" x="1346.976562"/>
      <use xlink:href="#DejaVuSans-32" x="1378.763672"/>
      <use xlink:href="#DejaVuSans-37" x="1442.386719"/>
     </g>
    </g>
    <g id="line2d_44">
     <path d="M 425.54855 176.757812 
L 435.54855 176.757812 
L 445.54855 176.757812 
" style="fill: none; stroke: #ff7f0e; stroke-width: 1.5; stroke-linecap: square"/>
    </g>
    <g id="text_29">
     <!-- corner = ff, temperature = 27 -->
     <g transform="translate(453.54855 180.257812) scale(0.1 -0.1)">
      <use xlink:href="#DejaVuSans-63"/>
      <use xlink:href="#DejaVuSans-6f" x="54.980469"/>
      <use xlink:href="#DejaVuSans-72" x="116.162109"/>
      <use xlink:href="#DejaVuSans-6e" x="155.525391"/>
      <use xlink:href="#DejaVuSans-65" x="218.904297"/>
      <use xlink:href="#DejaVuSans-72" x="280.427734"/>
      <use xlink:href="#DejaVuSans-20" x="321.541016"/>
      <use xlink:href="#DejaVuSans-3d" x="353.328125"/>
      <use xlink:href="#DejaVuSans-20" x="437.117188"/>
      <use xlink:href="#DejaVuSans-66" x="468.904297"/>
      <use xlink:href="#DejaVuSans-66" x="504.109375"/>
      <use xlink:href="#DejaVuSans-2c" x="539.314453"/>
      <use xlink:href="#DejaVuSans-20" x="571.101562"/>
      <use xlink:href="#DejaVuSans-74" x="602.888672"/>
      <use xlink:href="#DejaVuSans-65" x="642.097656"/>
      <use xlink:href="#DejaVuSans-6d" x="703.621094"/>
      <use xlink:href="#DejaVuSans-70" x="801.033203"/>
      <use xlink:href="#DejaVuSans-65" x="864.509766"/>
      <use xlink:href="#DejaVuSans-72" x="926.033203"/>
      <use xlink:href="#DejaVuSans-61" x="967.146484"/>
      <use xlink:href="#DejaVuSans-74" x="1028.425781"/>
      <use xlink:href="#DejaVuSans-75" x="1067.634766"/>
      <use xlink:href="#DejaVuSans-72" x="1131.013672"/>
      <use xlink:href="#DejaVuSans-65" x="1169.876953"/>
      <use xlink:href="#DejaVuSans-20" x="1231.400391"/>
      <use xlink:href="#DejaVuSans-3d" x="1263.1875"/>
      <use xlink:href="#DejaVuSans-20" x="1346.976562"/>
      <use xlink:href="#DejaVuSans-32" x="1378.763672"/>
      <use xlink:href="#DejaVuSans-37" x="1442.386719"/>
     </g>
    </g>
    <g id="line2d_45">
     <path d="M 425.54855 191.435937 
L 435.54855 191.435937 
L 445.54855 191.435937 
" style="fill: none; stroke: #2ca02c; stroke-width: 1.5; stroke-linecap: square"/>
    </g>
    <g id="text_30">
     <!-- corner = ss, temperature = 130 -->
     <g transform="translate(453.54855 194.935937) scale(0.1 -0.1)">
      <use xlink:href="#DejaVuSans-63"/>
      <use xlink:href="#DejaVuSans-6f" x="54.980469"/>
      <use xlink:href="#DejaVuSans-72" x="116.162109"/>
      <use xlink:href="#DejaVuSans-6e" x="155.525391"/>
      <use xlink:href="#DejaVuSans-65" x="218.904297"/>
      <use xlink:href="#DejaVuSans-72" x="280.427734"/>
      <use xlink:href="#DejaVuSans-20" x="321.541016"/>
      <use xlink:href="#DejaVuSans-3d" x="353.328125"/>
      <use xlink:href="#DejaVuSans-20" x="437.117188"/>
      <use xlink:href="#DejaVuSans-73" x="468.904297"/>
      <use xlink:href="#DejaVuSans-73" x="521.003906"/>
      <use xlink:href="#DejaVuSans-2c" x="573.103516"/>
      <use xlink:href="#DejaVuSans-20" x="604.890625"/>
      <use xlink:href="#DejaVuSans-74" x="636.677734"/>
      <use xlink:href="#DejaVuSans-65" x="675.886719"/>
      <use xlink:href="#DejaVuSans-6d" x="737.410156"/>
      <use xlink:href="#DejaVuSans-70" x="834.822266"/>
      <use xlink:href="#DejaVuSans-65" x="898.298828"/>
      <use xlink:href="#DejaVuSans-72" x="959.822266"/>
      <use xlink:href="#DejaVuSans-61" x="1000.935547"/>
      <use xlink:href="#DejaVuSans-74" x="1062.214844"/>
      <use xlink:href="#DejaVuSans-75" x="1101.423828"/>
      <use xlink:href="#DejaVuSans-72" x="1164.802734"/>
      <use xlink:href="#DejaVuSans-65" x="1203.666016"/>
      <use xlink:href="#DejaVuSans-20" x="1265.189453"/>
      <use xlink:href="#DejaVuSans-3d" x="1296.976562"/>
      <use xlink:href="#DejaVuSans-20" x="1380.765625"/>
      <use xlink:href="#DejaVuSans-31" x="1412.552734"/>
      <use xlink:href="#DejaVuSans-33" x="1476.175781"/>
      <use xlink:href="#DejaVuSans-30" x="1539.798828"/>
     </g>
    </g>
    <g id="line2d_46">
     <path d="M 425.54855 206.114062 
L 435.54855 206.114062 
L 445.54855 206.114062 
" style="fill: none; stroke: #d62728; stroke-width: 1.5; stroke-linecap: square"/>
    </g>
    <g id="text_31">
     <!-- corner = ss, temperature = 130 -->
     <g transform="translate(453.54855 209.614062) scale(0.1 -0.1)">
      <use xlink:href="#DejaVuSans-63"/>
      <use xlink:href="#DejaVuSans-6f" x="54.980469"/>
      <use xlink:href="#DejaVuSans-72" x="116.162109"/>
      <use xlink:href="#DejaVuSans-6e" x="155.525391"/>
      <use xlink:href="#DejaVuSans-65" x="218.904297"/>
      <use xlink:href="#DejaVuSans-72" x="280.427734"/>
      <use xlink:href="#DejaVuSans-20" x="321.541016"/>
      <use xlink:href="#DejaVuSans-3d" x="353.328125"/>
      <use xlink:href="#DejaVuSans-20" x="437.117188"/>
      <use xlink:href="#DejaVuSans-73" x="468.904297"/>
      <use xlink:href="#DejaVuSans-73" x="521.003906"/>
      <use xlink:href="#DejaVuSans-2c" x="573.103516"/>
      <use xlink:href="#DejaVuSans-20" x="604.890625"/>
      <use xlink:href="#DejaVuSans-74" x="636.677734"/>
      <use xlink:href="#DejaVuSans-65" x="675.886719"/>
      <use xlink:href="#DejaVuSans-6d" x="737.410156"/>
      <use xlink:href="#DejaVuSans-70" x="834.822266"/>
      <use xlink:href="#DejaVuSans-65" x="898.298828"/>
      <use xlink:href="#DejaVuSans-72" x="959.822266"/>
      <use xlink:href="#DejaVuSans-61" x="1000.935547"/>
      <use xlink:href="#DejaVuSans-74" x="1062.214844"/>
      <use xlink:href="#DejaVuSans-75" x="1101.423828"/>
      <use xlink:href="#DejaVuSans-72" x="1164.802734"/>
      <use xlink:href="#DejaVuSans-65" x="1203.666016"/>
      <use xlink:href="#DejaVuSans-20" x="1265.189453"/>
      <use xlink:href="#DejaVuSans-3d" x="1296.976562"/>
      <use xlink:href="#DejaVuSans-20" x="1380.765625"/>
      <use xlink:href="#DejaVuSans-31" x="1412.552734"/>
      <use xlink:href="#DejaVuSans-33" x="1476.175781"/>
      <use xlink:href="#DejaVuSans-30" x="1539.798828"/>
     </g>
    </g>
    <g id="line2d_47">
     <path d="M 425.54855 220.792187 
L 435.54855 220.792187 
L 445.54855 220.792187 
" style="fill: none; stroke: #9467bd; stroke-width: 1.5; stroke-linecap: square"/>
    </g>
    <g id="text_32">
     <!-- corner = tt, temperature = 130 -->
     <g transform="translate(453.54855 224.292187) scale(0.1 -0.1)">
      <use xlink:href="#DejaVuSans-63"/>
      <use xlink:href="#DejaVuSans-6f" x="54.980469"/>
      <use xlink:href="#DejaVuSans-72" x="116.162109"/>
      <use xlink:href="#DejaVuSans-6e" x="155.525391"/>
      <use xlink:href="#DejaVuSans-65" x="218.904297"/>
      <use xlink:href="#DejaVuSans-72" x="280.427734"/>
      <use xlink:href="#DejaVuSans-20" x="321.541016"/>
      <use xlink:href="#DejaVuSans-3d" x="353.328125"/>
      <use xlink:href="#DejaVuSans-20" x="437.117188"/>
      <use xlink:href="#DejaVuSans-74" x="468.904297"/>
      <use xlink:href="#DejaVuSans-74" x="508.113281"/>
      <use xlink:href="#DejaVuSans-2c" x="547.322266"/>
      <use xlink:href="#DejaVuSans-20" x="579.109375"/>
      <use xlink:href="#DejaVuSans-74" x="610.896484"/>
      <use xlink:href="#DejaVuSans-65" x="650.105469"/>
      <use xlink:href="#DejaVuSans-6d" x="711.628906"/>
      <use xlink:href="#DejaVuSans-70" x="809.041016"/>
      <use xlink:href="#DejaVuSans-65" x="872.517578"/>
      <use xlink:href="#DejaVuSans-72" x="934.041016"/>
      <use xlink:href="#DejaVuSans-61" x="975.154297"/>
      <use xlink:href="#DejaVuSans-74" x="1036.433594"/>
      <use xlink:href="#DejaVuSans-75" x="1075.642578"/>
      <use xlink:href="#DejaVuSans-72" x="1139.021484"/>
      <use xlink:href="#DejaVuSans-65" x="1177.884766"/>
      <use xlink:href="#DejaVuSans-20" x="1239.408203"/>
      <use xlink:href="#DejaVuSans-3d" x="1271.195312"/>
      <use xlink:href="#DejaVuSans-20" x="1354.984375"/>
      <use xlink:href="#DejaVuSans-31" x="1386.771484"/>
      <use xlink:href="#DejaVuSans-33" x="1450.394531"/>
      <use xlink:href="#DejaVuSans-30" x="1514.017578"/>
     </g>
    </g>
    <g id="line2d_48">
     <path d="M 425.54855 235.470312 
L 435.54855 235.470312 
L 445.54855 235.470312 
" style="fill: none; stroke: #8c564b; stroke-width: 1.5; stroke-linecap: square"/>
    </g>
    <g id="text_33">
     <!-- corner = tt, temperature = 130 -->
     <g transform="translate(453.54855 238.970312) scale(0.1 -0.1)">
      <use xlink:href="#DejaVuSans-63"/>
      <use xlink:href="#DejaVuSans-6f" x="54.980469"/>
      <use xlink:href="#DejaVuSans-72" x="116.162109"/>
      <use xlink:href="#DejaVuSans-6e" x="155.525391"/>
      <use xlink:href="#DejaVuSans-65" x="218.904297"/>
      <use xlink:href="#DejaVuSans-72" x="280.427734"/>
      <use xlink:href="#DejaVuSans-20" x="321.541016"/>
      <use xlink:href="#DejaVuSans-3d" x="353.328125"/>
      <use xlink:href="#DejaVuSans-20" x="437.117188"/>
      <use xlink:href="#DejaVuSans-74" x="468.904297"/>
      <use xlink:href="#DejaVuSans-74" x="508.113281"/>
      <use xlink:href="#DejaVuSans-2c" x="547.322266"/>
      <use xlink:href="#DejaVuSans-20" x="579.109375"/>
      <use xlink:href="#DejaVuSans-74" x="610.896484"/>
      <use xlink:href="#DejaVuSans-65" x="650.105469"/>
      <use xlink:href="#DejaVuSans-6d" x="711.628906"/>
      <use xlink:href="#DejaVuSans-70" x="809.041016"/>
      <use xlink:href="#DejaVuSans-65" x="872.517578"/>
      <use xlink:href="#DejaVuSans-72" x="934.041016"/>
      <use xlink:href="#DejaVuSans-61" x="975.154297"/>
      <use xlink:href="#DejaVuSans-74" x="1036.433594"/>
      <use xlink:href="#DejaVuSans-75" x="1075.642578"/>
      <use xlink:href="#DejaVuSans-72" x="1139.021484"/>
      <use xlink:href="#DejaVuSans-65" x="1177.884766"/>
      <use xlink:href="#DejaVuSans-20" x="1239.408203"/>
      <use xlink:href="#DejaVuSans-3d" x="1271.195312"/>
      <use xlink:href="#DejaVuSans-20" x="1354.984375"/>
      <use xlink:href="#DejaVuSans-31" x="1386.771484"/>
      <use xlink:href="#DejaVuSans-33" x="1450.394531"/>
      <use xlink:href="#DejaVuSans-30" x="1514.017578"/>
     </g>
    </g>
    <g id="line2d_49">
     <path d="M 425.54855 250.148437 
L 435.54855 250.148437 
L 445.54855 250.148437 
" style="fill: none; stroke: #e377c2; stroke-width: 1.5; stroke-linecap: square"/>
    </g>
    <g id="text_34">
     <!-- corner = ff, temperature = 130 -->
     <g transform="translate(453.54855 253.648437) scale(0.1 -0.1)">
      <use xlink:href="#DejaVuSans-63"/>
      <use xlink:href="#DejaVuSans-6f" x="54.980469"/>
      <use xlink:href="#DejaVuSans-72" x="116.162109"/>
      <use xlink:href="#DejaVuSans-6e" x="155.525391"/>
      <use xlink:href="#DejaVuSans-65" x="218.904297"/>
      <use xlink:href="#DejaVuSans-72" x="280.427734"/>
      <use xlink:href="#DejaVuSans-20" x="321.541016"/>
      <use xlink:href="#DejaVuSans-3d" x="353.328125"/>
      <use xlink:href="#DejaVuSans-20" x="437.117188"/>
      <use xlink:href="#DejaVuSans-66" x="468.904297"/>
      <use xlink:href="#DejaVuSans-66" x="504.109375"/>
      <use xlink:href="#DejaVuSans-2c" x="539.314453"/>
      <use xlink:href="#DejaVuSans-20" x="571.101562"/>
      <use xlink:href="#DejaVuSans-74" x="602.888672"/>
      <use xlink:href="#DejaVuSans-65" x="642.097656"/>
      <use xlink:href="#DejaVuSans-6d" x="703.621094"/>
      <use xlink:href="#DejaVuSans-70" x="801.033203"/>
      <use xlink:href="#DejaVuSans-65" x="864.509766"/>
      <use xlink:href="#DejaVuSans-72" x="926.033203"/>
      <use xlink:href="#DejaVuSans-61" x="967.146484"/>
      <use xlink:href="#DejaVuSans-74" x="1028.425781"/>
      <use xlink:href="#DejaVuSans-75" x="1067.634766"/>
      <use xlink:href="#DejaVuSans-72" x="1131.013672"/>
      <use xlink:href="#DejaVuSans-65" x="1169.876953"/>
      <use xlink:href="#DejaVuSans-20" x="1231.400391"/>
      <use xlink:href="#DejaVuSans-3d" x="1263.1875"/>
      <use xlink:href="#DejaVuSans-20" x="1346.976562"/>
      <use xlink:href="#DejaVuSans-31" x="1378.763672"/>
      <use xlink:href="#DejaVuSans-33" x="1442.386719"/>
      <use xlink:href="#DejaVuSans-30" x="1506.009766"/>
     </g>
    </g>
    <g id="line2d_50">
     <path d="M 425.54855 264.826562 
L 435.54855 264.826562 
L 445.54855 264.826562 
" style="fill: none; stroke: #7f7f7f; stroke-width: 1.5; stroke-linecap: square"/>
    </g>
    <g id="text_35">
     <!-- corner = ff, temperature = 130 -->
     <g transform="translate(453.54855 268.326562) scale(0.1 -0.1)">
      <use xlink:href="#DejaVuSans-63"/>
      <use xlink:href="#DejaVuSans-6f" x="54.980469"/>
      <use xlink:href="#DejaVuSans-72" x="116.162109"/>
      <use xlink:href="#DejaVuSans-6e" x="155.525391"/>
      <use xlink:href="#DejaVuSans-65" x="218.904297"/>
      <use xlink:href="#DejaVuSans-72" x="280.427734"/>
      <use xlink:href="#DejaVuSans-20" x="321.541016"/>
      <use xlink:href="#DejaVuSans-3d" x="353.328125"/>
      <use xlink:href="#DejaVuSans-20" x="437.117188"/>
      <use xlink:href="#DejaVuSans-66" x="468.904297"/>
      <use xlink:href="#DejaVuSans-66" x="504.109375"/>
      <use xlink:href="#DejaVuSans-2c" x="539.314453"/>
      <use xlink:href="#DejaVuSans-20" x="571.101562"/>
      <use xlink:href="#DejaVuSans-74" x="602.888672"/>
      <use xlink:href="#DejaVuSans-65" x="642.097656"/>
      <use xlink:href="#DejaVuSans-6d" x="703.621094"/>
      <use xlink:href="#DejaVuSans-70" x="801.033203"/>
      <use xlink:href="#DejaVuSans-65" x="864.509766"/>
      <use xlink:href="#DejaVuSans-72" x="926.033203"/>
      <use xlink:href="#DejaVuSans-61" x="967.146484"/>
      <use xlink:href="#DejaVuSans-74" x="1028.425781"/>
      <use xlink:href="#DejaVuSans-75" x="1067.634766"/>
      <use xlink:href="#DejaVuSans-72" x="1131.013672"/>
      <use xlink:href="#DejaVuSans-65" x="1169.876953"/>
      <use xlink:href="#DejaVuSans-20" x="1231.400391"/>
      <use xlink:href="#DejaVuSans-3d" x="1263.1875"/>
      <use xlink:href="#DejaVuSans-20" x="1346.976562"/>
      <use xlink:href="#DejaVuSans-31" x="1378.763672"/>
      <use xlink:href="#DejaVuSans-33" x="1442.386719"/>
      <use xlink:href="#DejaVuSans-30" x="1506.009766"/>
     </g>
    </g>
   </g>
  </g>
 </g>
 <defs>
  <clipPath id="p32238c8158">
   <rect x="50.14375" y="7.2" width="357.12" height="266.112"/>
  </clipPath>
 </defs>
</svg>
