<?xml version="1.0" encoding="utf-8" standalone="no"?>
<!DOCTYPE svg PUBLIC "-//W3C//DTD SVG 1.1//EN"
  "http://www.w3.org/Graphics/SVG/1.1/DTD/svg11.dtd">
<svg xmlns:xlink="http://www.w3.org/1999/xlink" width="625.089175pt" height="310.86825pt" viewBox="0 0 625.089175 310.86825" xmlns="http://www.w3.org/2000/svg" version="1.1">
 <metadata>
  <rdf:RDF xmlns:dc="http://purl.org/dc/elements/1.1/" xmlns:cc="http://creativecommons.org/ns#" xmlns:rdf="http://www.w3.org/1999/02/22-rdf-syntax-ns#">
   <cc:Work>
    <dc:type rdf:resource="http://purl.org/dc/dcmitype/StillImage"/>
    <dc:date>2024-08-22T14:12:28.972839</dc:date>
    <dc:format>image/svg+xml</dc:format>
    <dc:creator>
     <cc:Agent>
      <dc:title>Matplotlib v3.8.4, https://matplotlib.org/</dc:title>
     </cc:Agent>
    </dc:creator>
   </cc:Work>
  </rdf:RDF>
 </metadata>
 <defs>
  <style type="text/css">*{stroke-linejoin: round; stroke-linecap: butt}</style>
 </defs>
 <g id="figure_1">
  <g id="patch_1">
   <path d="M 0 310.86825 
L 625.089175 310.86825 
L 625.089175 0 
L 0 0 
z
" style="fill: #ffffff"/>
  </g>
  <g id="axes_1">
   <g id="patch_2">
    <path d="M 50.14375 273.312 
L 407.26375 273.312 
L 407.26375 7.2 
L 50.14375 7.2 
z
" style="fill: #ffffff"/>
   </g>
   <g id="matplotlib.axis_1">
    <g id="xtick_1">
     <g id="line2d_1">
      <defs>
       <path id="m48ca9a8059" d="M 0 0 
L 0 3.5 
" style="stroke: #000000; stroke-width: 0.8"/>
      </defs>
      <g>
       <use xlink:href="#m48ca9a8059" x="66.376477" y="273.312" style="stroke: #000000; stroke-width: 0.8"/>
      </g>
     </g>
     <g id="text_1">
      <!-- 0 -->
      <g transform="translate(63.195227 287.910437) scale(0.1 -0.1)">
       <defs>
        <path id="DejaVuSans-30" d="M 2034 4250 
Q 1547 4250 1301 3770 
Q 1056 3291 1056 2328 
Q 1056 1369 1301 889 
Q 1547 409 2034 409 
Q 2525 409 2770 889 
Q 3016 1369 3016 2328 
Q 3016 3291 2770 3770 
Q 2525 4250 2034 4250 
z
M 2034 4750 
Q 2819 4750 3233 4129 
Q 3647 3509 3647 2328 
Q 3647 1150 3233 529 
Q 2819 -91 2034 -91 
Q 1250 -91 836 529 
Q 422 1150 422 2328 
Q 422 3509 836 4129 
Q 1250 4750 2034 4750 
z
" transform="scale(0.015625)"/>
       </defs>
       <use xlink:href="#DejaVuSans-30"/>
      </g>
     </g>
    </g>
    <g id="xtick_2">
     <g id="line2d_2">
      <g>
       <use xlink:href="#m48ca9a8059" x="131.307386" y="273.312" style="stroke: #000000; stroke-width: 0.8"/>
      </g>
     </g>
     <g id="text_2">
      <!-- 1 -->
      <g transform="translate(128.126136 287.910437) scale(0.1 -0.1)">
       <defs>
        <path id="DejaVuSans-31" d="M 794 531 
L 1825 531 
L 1825 4091 
L 703 3866 
L 703 4441 
L 1819 4666 
L 2450 4666 
L 2450 531 
L 3481 531 
L 3481 0 
L 794 0 
L 794 531 
z
" transform="scale(0.015625)"/>
       </defs>
       <use xlink:href="#DejaVuSans-31"/>
      </g>
     </g>
    </g>
    <g id="xtick_3">
     <g id="line2d_3">
      <g>
       <use xlink:href="#m48ca9a8059" x="196.238295" y="273.312" style="stroke: #000000; stroke-width: 0.8"/>
      </g>
     </g>
     <g id="text_3">
      <!-- 2 -->
      <g transform="translate(193.057045 287.910437) scale(0.1 -0.1)">
       <defs>
        <path id="DejaVuSans-32" d="M 1228 531 
L 3431 531 
L 3431 0 
L 469 0 
L 469 531 
Q 828 903 1448 1529 
Q 2069 2156 2228 2338 
Q 2531 2678 2651 2914 
Q 2772 3150 2772 3378 
Q 2772 3750 2511 3984 
Q 2250 4219 1831 4219 
Q 1534 4219 1204 4116 
Q 875 4013 500 3803 
L 500 4441 
Q 881 4594 1212 4672 
Q 1544 4750 1819 4750 
Q 2544 4750 2975 4387 
Q 3406 4025 3406 3419 
Q 3406 3131 3298 2873 
Q 3191 2616 2906 2266 
Q 2828 2175 2409 1742 
Q 1991 1309 1228 531 
z
" transform="scale(0.015625)"/>
       </defs>
       <use xlink:href="#DejaVuSans-32"/>
      </g>
     </g>
    </g>
    <g id="xtick_4">
     <g id="line2d_4">
      <g>
       <use xlink:href="#m48ca9a8059" x="261.169205" y="273.312" style="stroke: #000000; stroke-width: 0.8"/>
      </g>
     </g>
     <g id="text_4">
      <!-- 3 -->
      <g transform="translate(257.987955 287.910437) scale(0.1 -0.1)">
       <defs>
        <path id="DejaVuSans-33" d="M 2597 2516 
Q 3050 2419 3304 2112 
Q 3559 1806 3559 1356 
Q 3559 666 3084 287 
Q 2609 -91 1734 -91 
Q 1441 -91 1130 -33 
Q 819 25 488 141 
L 488 750 
Q 750 597 1062 519 
Q 1375 441 1716 441 
Q 2309 441 2620 675 
Q 2931 909 2931 1356 
Q 2931 1769 2642 2001 
Q 2353 2234 1838 2234 
L 1294 2234 
L 1294 2753 
L 1863 2753 
Q 2328 2753 2575 2939 
Q 2822 3125 2822 3475 
Q 2822 3834 2567 4026 
Q 2313 4219 1838 4219 
Q 1578 4219 1281 4162 
Q 984 4106 628 3988 
L 628 4550 
Q 988 4650 1302 4700 
Q 1616 4750 1894 4750 
Q 2613 4750 3031 4423 
Q 3450 4097 3450 3541 
Q 3450 3153 3228 2886 
Q 3006 2619 2597 2516 
z
" transform="scale(0.015625)"/>
       </defs>
       <use xlink:href="#DejaVuSans-33"/>
      </g>
     </g>
    </g>
    <g id="xtick_5">
     <g id="line2d_5">
      <g>
       <use xlink:href="#m48ca9a8059" x="326.100114" y="273.312" style="stroke: #000000; stroke-width: 0.8"/>
      </g>
     </g>
     <g id="text_5">
      <!-- 4 -->
      <g transform="translate(322.918864 287.910437) scale(0.1 -0.1)">
       <defs>
        <path id="DejaVuSans-34" d="M 2419 4116 
L 825 1625 
L 2419 1625 
L 2419 4116 
z
M 2253 4666 
L 3047 4666 
L 3047 1625 
L 3713 1625 
L 3713 1100 
L 3047 1100 
L 3047 0 
L 2419 0 
L 2419 1100 
L 313 1100 
L 313 1709 
L 2253 4666 
z
" transform="scale(0.015625)"/>
       </defs>
       <use xlink:href="#DejaVuSans-34"/>
      </g>
     </g>
    </g>
    <g id="xtick_6">
     <g id="line2d_6">
      <g>
       <use xlink:href="#m48ca9a8059" x="391.031023" y="273.312" style="stroke: #000000; stroke-width: 0.8"/>
      </g>
     </g>
     <g id="text_6">
      <!-- 5 -->
      <g transform="translate(387.849773 287.910437) scale(0.1 -0.1)">
       <defs>
        <path id="DejaVuSans-35" d="M 691 4666 
L 3169 4666 
L 3169 4134 
L 1269 4134 
L 1269 2991 
Q 1406 3038 1543 3061 
Q 1681 3084 1819 3084 
Q 2600 3084 3056 2656 
Q 3513 2228 3513 1497 
Q 3513 744 3044 326 
Q 2575 -91 1722 -91 
Q 1428 -91 1123 -41 
Q 819 9 494 109 
L 494 744 
Q 775 591 1075 516 
Q 1375 441 1709 441 
Q 2250 441 2565 725 
Q 2881 1009 2881 1497 
Q 2881 1984 2565 2268 
Q 2250 2553 1709 2553 
Q 1456 2553 1204 2497 
Q 953 2441 691 2322 
L 691 4666 
z
" transform="scale(0.015625)"/>
       </defs>
       <use xlink:href="#DejaVuSans-35"/>
      </g>
     </g>
    </g>
    <g id="text_7">
     <!-- Time (ms) -->
     <g transform="translate(203.504531 301.588562) scale(0.1 -0.1)">
      <defs>
       <path id="DejaVuSans-54" d="M -19 4666 
L 3928 4666 
L 3928 4134 
L 2272 4134 
L 2272 0 
L 1638 0 
L 1638 4134 
L -19 4134 
L -19 4666 
z
" transform="scale(0.015625)"/>
       <path id="DejaVuSans-69" d="M 603 3500 
L 1178 3500 
L 1178 0 
L 603 0 
L 603 3500 
z
M 603 4863 
L 1178 4863 
L 1178 4134 
L 603 4134 
L 603 4863 
z
" transform="scale(0.015625)"/>
       <path id="DejaVuSans-6d" d="M 3328 2828 
Q 3544 3216 3844 3400 
Q 4144 3584 4550 3584 
Q 5097 3584 5394 3201 
Q 5691 2819 5691 2113 
L 5691 0 
L 5113 0 
L 5113 2094 
Q 5113 2597 4934 2840 
Q 4756 3084 4391 3084 
Q 3944 3084 3684 2787 
Q 3425 2491 3425 1978 
L 3425 0 
L 2847 0 
L 2847 2094 
Q 2847 2600 2669 2842 
Q 2491 3084 2119 3084 
Q 1678 3084 1418 2786 
Q 1159 2488 1159 1978 
L 1159 0 
L 581 0 
L 581 3500 
L 1159 3500 
L 1159 2956 
Q 1356 3278 1631 3431 
Q 1906 3584 2284 3584 
Q 2666 3584 2933 3390 
Q 3200 3197 3328 2828 
z
" transform="scale(0.015625)"/>
       <path id="DejaVuSans-65" d="M 3597 1894 
L 3597 1613 
L 953 1613 
Q 991 1019 1311 708 
Q 1631 397 2203 397 
Q 2534 397 2845 478 
Q 3156 559 3463 722 
L 3463 178 
Q 3153 47 2828 -22 
Q 2503 -91 2169 -91 
Q 1331 -91 842 396 
Q 353 884 353 1716 
Q 353 2575 817 3079 
Q 1281 3584 2069 3584 
Q 2775 3584 3186 3129 
Q 3597 2675 3597 1894 
z
M 3022 2063 
Q 3016 2534 2758 2815 
Q 2500 3097 2075 3097 
Q 1594 3097 1305 2825 
Q 1016 2553 972 2059 
L 3022 2063 
z
" transform="scale(0.015625)"/>
       <path id="DejaVuSans-20" transform="scale(0.015625)"/>
       <path id="DejaVuSans-28" d="M 1984 4856 
Q 1566 4138 1362 3434 
Q 1159 2731 1159 2009 
Q 1159 1288 1364 580 
Q 1569 -128 1984 -844 
L 1484 -844 
Q 1016 -109 783 600 
Q 550 1309 550 2009 
Q 550 2706 781 3412 
Q 1013 4119 1484 4856 
L 1984 4856 
z
" transform="scale(0.015625)"/>
       <path id="DejaVuSans-73" d="M 2834 3397 
L 2834 2853 
Q 2591 2978 2328 3040 
Q 2066 3103 1784 3103 
Q 1356 3103 1142 2972 
Q 928 2841 928 2578 
Q 928 2378 1081 2264 
Q 1234 2150 1697 2047 
L 1894 2003 
Q 2506 1872 2764 1633 
Q 3022 1394 3022 966 
Q 3022 478 2636 193 
Q 2250 -91 1575 -91 
Q 1294 -91 989 -36 
Q 684 19 347 128 
L 347 722 
Q 666 556 975 473 
Q 1284 391 1588 391 
Q 1994 391 2212 530 
Q 2431 669 2431 922 
Q 2431 1156 2273 1281 
Q 2116 1406 1581 1522 
L 1381 1569 
Q 847 1681 609 1914 
Q 372 2147 372 2553 
Q 372 3047 722 3315 
Q 1072 3584 1716 3584 
Q 2034 3584 2315 3537 
Q 2597 3491 2834 3397 
z
" transform="scale(0.015625)"/>
       <path id="DejaVuSans-29" d="M 513 4856 
L 1013 4856 
Q 1481 4119 1714 3412 
Q 1947 2706 1947 2009 
Q 1947 1309 1714 600 
Q 1481 -109 1013 -844 
L 513 -844 
Q 928 -128 1133 580 
Q 1338 1288 1338 2009 
Q 1338 2731 1133 3434 
Q 928 4138 513 4856 
z
" transform="scale(0.015625)"/>
      </defs>
      <use xlink:href="#DejaVuSans-54"/>
      <use xlink:href="#DejaVuSans-69" x="57.958984"/>
      <use xlink:href="#DejaVuSans-6d" x="85.742188"/>
      <use xlink:href="#DejaVuSans-65" x="183.154297"/>
      <use xlink:href="#DejaVuSans-20" x="244.677734"/>
      <use xlink:href="#DejaVuSans-28" x="276.464844"/>
      <use xlink:href="#DejaVuSans-6d" x="315.478516"/>
      <use xlink:href="#DejaVuSans-73" x="412.890625"/>
      <use xlink:href="#DejaVuSans-29" x="464.990234"/>
     </g>
    </g>
    <g id="text_8">
     <!-- 1e−7 -->
     <g transform="translate(380.005938 300.588562) scale(0.1 -0.1)">
      <defs>
       <path id="DejaVuSans-2212" d="M 678 2272 
L 4684 2272 
L 4684 1741 
L 678 1741 
L 678 2272 
z
" transform="scale(0.015625)"/>
       <path id="DejaVuSans-37" d="M 525 4666 
L 3525 4666 
L 3525 4397 
L 1831 0 
L 1172 0 
L 2766 4134 
L 525 4134 
L 525 4666 
z
" transform="scale(0.015625)"/>
      </defs>
      <use xlink:href="#DejaVuSans-31"/>
      <use xlink:href="#DejaVuSans-65" x="63.623047"/>
      <use xlink:href="#DejaVuSans-2212" x="125.146484"/>
      <use xlink:href="#DejaVuSans-37" x="208.935547"/>
     </g>
    </g>
   </g>
   <g id="matplotlib.axis_2">
    <g id="ytick_1">
     <g id="line2d_7">
      <defs>
       <path id="m77848e3829" d="M 0 0 
L -3.5 0 
" style="stroke: #000000; stroke-width: 0.8"/>
      </defs>
      <g>
       <use xlink:href="#m77848e3829" x="50.14375" y="261.216" style="stroke: #000000; stroke-width: 0.8"/>
      </g>
     </g>
     <g id="text_9">
      <!-- 0.00 -->
      <g transform="translate(20.878125 265.015219) scale(0.1 -0.1)">
       <defs>
        <path id="DejaVuSans-2e" d="M 684 794 
L 1344 794 
L 1344 0 
L 684 0 
L 684 794 
z
" transform="scale(0.015625)"/>
       </defs>
       <use xlink:href="#DejaVuSans-30"/>
       <use xlink:href="#DejaVuSans-2e" x="63.623047"/>
       <use xlink:href="#DejaVuSans-30" x="95.410156"/>
       <use xlink:href="#DejaVuSans-30" x="159.033203"/>
      </g>
     </g>
    </g>
    <g id="ytick_2">
     <g id="line2d_8">
      <g>
       <use xlink:href="#m77848e3829" x="50.14375" y="227.616" style="stroke: #000000; stroke-width: 0.8"/>
      </g>
     </g>
     <g id="text_10">
      <!-- 0.25 -->
      <g transform="translate(20.878125 231.415219) scale(0.1 -0.1)">
       <use xlink:href="#DejaVuSans-30"/>
       <use xlink:href="#DejaVuSans-2e" x="63.623047"/>
       <use xlink:href="#DejaVuSans-32" x="95.410156"/>
       <use xlink:href="#DejaVuSans-35" x="159.033203"/>
      </g>
     </g>
    </g>
    <g id="ytick_3">
     <g id="line2d_9">
      <g>
       <use xlink:href="#m77848e3829" x="50.14375" y="194.016" style="stroke: #000000; stroke-width: 0.8"/>
      </g>
     </g>
     <g id="text_11">
      <!-- 0.50 -->
      <g transform="translate(20.878125 197.815219) scale(0.1 -0.1)">
       <use xlink:href="#DejaVuSans-30"/>
       <use xlink:href="#DejaVuSans-2e" x="63.623047"/>
       <use xlink:href="#DejaVuSans-35" x="95.410156"/>
       <use xlink:href="#DejaVuSans-30" x="159.033203"/>
      </g>
     </g>
    </g>
    <g id="ytick_4">
     <g id="line2d_10">
      <g>
       <use xlink:href="#m77848e3829" x="50.14375" y="160.416" style="stroke: #000000; stroke-width: 0.8"/>
      </g>
     </g>
     <g id="text_12">
      <!-- 0.75 -->
      <g transform="translate(20.878125 164.215219) scale(0.1 -0.1)">
       <use xlink:href="#DejaVuSans-30"/>
       <use xlink:href="#DejaVuSans-2e" x="63.623047"/>
       <use xlink:href="#DejaVuSans-37" x="95.410156"/>
       <use xlink:href="#DejaVuSans-35" x="159.033203"/>
      </g>
     </g>
    </g>
    <g id="ytick_5">
     <g id="line2d_11">
      <g>
       <use xlink:href="#m77848e3829" x="50.14375" y="126.816" style="stroke: #000000; stroke-width: 0.8"/>
      </g>
     </g>
     <g id="text_13">
      <!-- 1.00 -->
      <g transform="translate(20.878125 130.615219) scale(0.1 -0.1)">
       <use xlink:href="#DejaVuSans-31"/>
       <use xlink:href="#DejaVuSans-2e" x="63.623047"/>
       <use xlink:href="#DejaVuSans-30" x="95.410156"/>
       <use xlink:href="#DejaVuSans-30" x="159.033203"/>
      </g>
     </g>
    </g>
    <g id="ytick_6">
     <g id="line2d_12">
      <g>
       <use xlink:href="#m77848e3829" x="50.14375" y="93.216" style="stroke: #000000; stroke-width: 0.8"/>
      </g>
     </g>
     <g id="text_14">
      <!-- 1.25 -->
      <g transform="translate(20.878125 97.015219) scale(0.1 -0.1)">
       <use xlink:href="#DejaVuSans-31"/>
       <use xlink:href="#DejaVuSans-2e" x="63.623047"/>
       <use xlink:href="#DejaVuSans-32" x="95.410156"/>
       <use xlink:href="#DejaVuSans-35" x="159.033203"/>
      </g>
     </g>
    </g>
    <g id="ytick_7">
     <g id="line2d_13">
      <g>
       <use xlink:href="#m77848e3829" x="50.14375" y="59.616" style="stroke: #000000; stroke-width: 0.8"/>
      </g>
     </g>
     <g id="text_15">
      <!-- 1.50 -->
      <g transform="translate(20.878125 63.415219) scale(0.1 -0.1)">
       <use xlink:href="#DejaVuSans-31"/>
       <use xlink:href="#DejaVuSans-2e" x="63.623047"/>
       <use xlink:href="#DejaVuSans-35" x="95.410156"/>
       <use xlink:href="#DejaVuSans-30" x="159.033203"/>
      </g>
     </g>
    </g>
    <g id="ytick_8">
     <g id="line2d_14">
      <g>
       <use xlink:href="#m77848e3829" x="50.14375" y="26.016" style="stroke: #000000; stroke-width: 0.8"/>
      </g>
     </g>
     <g id="text_16">
      <!-- 1.75 -->
      <g transform="translate(20.878125 29.815219) scale(0.1 -0.1)">
       <use xlink:href="#DejaVuSans-31"/>
       <use xlink:href="#DejaVuSans-2e" x="63.623047"/>
       <use xlink:href="#DejaVuSans-37" x="95.410156"/>
       <use xlink:href="#DejaVuSans-35" x="159.033203"/>
      </g>
     </g>
    </g>
    <g id="text_17">
     <!-- Vout (V), Vinp (V) -->
     <g transform="translate(14.798438 183.516937) rotate(-90) scale(0.1 -0.1)">
      <defs>
       <path id="DejaVuSans-56" d="M 1831 0 
L 50 4666 
L 709 4666 
L 2188 738 
L 3669 4666 
L 4325 4666 
L 2547 0 
L 1831 0 
z
" transform="scale(0.015625)"/>
       <path id="DejaVuSans-6f" d="M 1959 3097 
Q 1497 3097 1228 2736 
Q 959 2375 959 1747 
Q 959 1119 1226 758 
Q 1494 397 1959 397 
Q 2419 397 2687 759 
Q 2956 1122 2956 1747 
Q 2956 2369 2687 2733 
Q 2419 3097 1959 3097 
z
M 1959 3584 
Q 2709 3584 3137 3096 
Q 3566 2609 3566 1747 
Q 3566 888 3137 398 
Q 2709 -91 1959 -91 
Q 1206 -91 779 398 
Q 353 888 353 1747 
Q 353 2609 779 3096 
Q 1206 3584 1959 3584 
z
" transform="scale(0.015625)"/>
       <path id="DejaVuSans-75" d="M 544 1381 
L 544 3500 
L 1119 3500 
L 1119 1403 
Q 1119 906 1312 657 
Q 1506 409 1894 409 
Q 2359 409 2629 706 
Q 2900 1003 2900 1516 
L 2900 3500 
L 3475 3500 
L 3475 0 
L 2900 0 
L 2900 538 
Q 2691 219 2414 64 
Q 2138 -91 1772 -91 
Q 1169 -91 856 284 
Q 544 659 544 1381 
z
M 1991 3584 
L 1991 3584 
z
" transform="scale(0.015625)"/>
       <path id="DejaVuSans-74" d="M 1172 4494 
L 1172 3500 
L 2356 3500 
L 2356 3053 
L 1172 3053 
L 1172 1153 
Q 1172 725 1289 603 
Q 1406 481 1766 481 
L 2356 481 
L 2356 0 
L 1766 0 
Q 1100 0 847 248 
Q 594 497 594 1153 
L 594 3053 
L 172 3053 
L 172 3500 
L 594 3500 
L 594 4494 
L 1172 4494 
z
" transform="scale(0.015625)"/>
       <path id="DejaVuSans-2c" d="M 750 794 
L 1409 794 
L 1409 256 
L 897 -744 
L 494 -744 
L 750 256 
L 750 794 
z
" transform="scale(0.015625)"/>
       <path id="DejaVuSans-6e" d="M 3513 2113 
L 3513 0 
L 2938 0 
L 2938 2094 
Q 2938 2591 2744 2837 
Q 2550 3084 2163 3084 
Q 1697 3084 1428 2787 
Q 1159 2491 1159 1978 
L 1159 0 
L 581 0 
L 581 3500 
L 1159 3500 
L 1159 2956 
Q 1366 3272 1645 3428 
Q 1925 3584 2291 3584 
Q 2894 3584 3203 3211 
Q 3513 2838 3513 2113 
z
" transform="scale(0.015625)"/>
       <path id="DejaVuSans-70" d="M 1159 525 
L 1159 -1331 
L 581 -1331 
L 581 3500 
L 1159 3500 
L 1159 2969 
Q 1341 3281 1617 3432 
Q 1894 3584 2278 3584 
Q 2916 3584 3314 3078 
Q 3713 2572 3713 1747 
Q 3713 922 3314 415 
Q 2916 -91 2278 -91 
Q 1894 -91 1617 61 
Q 1341 213 1159 525 
z
M 3116 1747 
Q 3116 2381 2855 2742 
Q 2594 3103 2138 3103 
Q 1681 3103 1420 2742 
Q 1159 2381 1159 1747 
Q 1159 1113 1420 752 
Q 1681 391 2138 391 
Q 2594 391 2855 752 
Q 3116 1113 3116 1747 
z
" transform="scale(0.015625)"/>
      </defs>
      <use xlink:href="#DejaVuSans-56"/>
      <use xlink:href="#DejaVuSans-6f" x="60.658203"/>
      <use xlink:href="#DejaVuSans-75" x="121.839844"/>
      <use xlink:href="#DejaVuSans-74" x="185.21875"/>
      <use xlink:href="#DejaVuSans-20" x="224.427734"/>
      <use xlink:href="#DejaVuSans-28" x="256.214844"/>
      <use xlink:href="#DejaVuSans-56" x="295.228516"/>
      <use xlink:href="#DejaVuSans-29" x="363.636719"/>
      <use xlink:href="#DejaVuSans-2c" x="402.650391"/>
      <use xlink:href="#DejaVuSans-20" x="434.4375"/>
      <use xlink:href="#DejaVuSans-56" x="466.224609"/>
      <use xlink:href="#DejaVuSans-69" x="532.382812"/>
      <use xlink:href="#DejaVuSans-6e" x="560.166016"/>
      <use xlink:href="#DejaVuSans-70" x="623.544922"/>
      <use xlink:href="#DejaVuSans-20" x="687.021484"/>
      <use xlink:href="#DejaVuSans-28" x="718.808594"/>
      <use xlink:href="#DejaVuSans-56" x="757.822266"/>
      <use xlink:href="#DejaVuSans-29" x="826.230469"/>
     </g>
    </g>
   </g>
   <g id="line2d_15">
    <path d="M 66.376477 227.844764 
L 66.408943 227.844764 
L 66.441408 227.844764 
L 66.506339 227.844764 
L 66.636201 227.844764 
L 66.895925 227.844764 
L 67.415372 227.844764 
L 68.454266 227.844764 
L 70.532055 227.844764 
L 74.687634 227.844764 
L 81.180725 227.844764 
L 87.673815 227.844764 
L 94.166906 227.844764 
L 100.659997 227.844764 
L 107.153088 227.844764 
L 113.646179 227.844764 
L 120.13927 227.844764 
L 126.632361 227.844764 
L 131.307386 227.844764 
L 131.313879 227.830668 
L 131.326866 227.818606 
L 131.352838 227.803145 
L 131.372317 227.794897 
L 131.376167 227.811014 
L 131.383866 227.839562 
L 131.399264 227.855688 
L 131.419884 227.857563 
L 131.456715 227.858266 
L 131.500572 227.859532 
L 131.588287 227.861265 
L 131.763715 227.864116 
L 132.114572 227.86597 
L 132.816285 227.838844 
L 134.219712 227.468718 
L 137.026566 224.91938 
L 142.640273 215.569119 
L 149.133364 203.014592 
L 155.626455 190.644002 
L 162.119546 178.254012 
L 168.612637 165.887146 
L 175.105728 153.535538 
L 181.598819 141.207369 
L 188.09191 128.970428 
L 194.585001 117.497208 
L 201.078092 108.511026 
L 207.571182 102.790719 
L 214.064273 99.367682 
L 220.557364 97.347007 
L 227.050455 96.13414 
L 233.543546 95.399825 
L 240.036637 94.954214 
L 246.529728 94.681781 
L 253.022819 94.517972 
L 259.51591 94.415262 
L 266.009001 94.356013 
L 272.502092 94.316051 
L 278.995182 94.29578 
L 285.488273 94.279077 
L 291.981364 94.273365 
L 298.474455 94.2653 
L 304.967546 94.265026 
L 311.460637 94.260178 
L 317.953728 94.261928 
L 324.446819 94.258288 
L 330.93991 94.260785 
L 337.433001 94.257607 
L 343.926092 94.26037 
L 350.419182 94.257378 
L 356.912273 94.260226 
L 363.405364 94.257319 
L 369.898455 94.260185 
L 376.391546 94.257323 
L 382.884637 94.26018 
L 389.377728 94.25735 
L 391.031023 94.260171 
" clip-path="url(#p99bbd5979e)" style="fill: none; stroke: #1f77b4; stroke-width: 1.5; stroke-linecap: square"/>
   </g>
   <g id="line2d_16">
    <path d="M 66.376477 261.216 
L 66.408943 261.216 
L 66.441408 261.216 
L 66.506339 261.216 
L 66.636201 261.216 
L 66.895925 261.216 
L 67.415372 261.216 
L 68.454266 261.216 
L 70.532055 261.216 
L 74.687634 261.216 
L 81.180725 261.216 
L 87.673815 261.216 
L 94.166906 261.216 
L 100.659997 261.216 
L 107.153088 261.216 
L 113.646179 261.216 
L 120.13927 261.216 
L 126.632361 261.216 
L 131.307386 261.216 
L 131.313879 237.024 
L 131.326866 188.64 
L 131.352838 91.872 
L 131.372317 19.296 
L 131.376167 19.296 
L 131.383866 19.296 
L 131.399264 19.296 
L 131.419884 19.296 
L 131.456715 19.296 
L 131.500572 19.296 
L 131.588287 19.296 
L 131.763715 19.296 
L 132.114572 19.296 
L 132.816285 19.296 
L 134.219712 19.296 
L 137.026566 19.296 
L 142.640273 19.296 
L 149.133364 19.296 
L 155.626455 19.296 
L 162.119546 19.296 
L 168.612637 19.296 
L 175.105728 19.296 
L 181.598819 19.296 
L 188.09191 19.296 
L 194.585001 19.296 
L 201.078092 19.296 
L 207.571182 19.296 
L 214.064273 19.296 
L 220.557364 19.296 
L 227.050455 19.296 
L 233.543546 19.296 
L 240.036637 19.296 
L 246.529728 19.296 
L 253.022819 19.296 
L 259.51591 19.296 
L 266.009001 19.296 
L 272.502092 19.296 
L 278.995182 19.296 
L 285.488273 19.296 
L 291.981364 19.296 
L 298.474455 19.296 
L 304.967546 19.296 
L 311.460637 19.296 
L 317.953728 19.296 
L 324.446819 19.296 
L 330.93991 19.296 
L 337.433001 19.296 
L 343.926092 19.296 
L 350.419182 19.296 
L 356.912273 19.296 
L 363.405364 19.296 
L 369.898455 19.296 
L 376.391546 19.296 
L 382.884637 19.296 
L 389.377728 19.296 
L 391.031023 19.296 
" clip-path="url(#p99bbd5979e)" style="fill: none; stroke: #ff7f0e; stroke-width: 1.5; stroke-linecap: square"/>
   </g>
   <g id="line2d_17">
    <path d="M 66.376477 230.098676 
L 66.408943 230.098676 
L 66.441408 230.098676 
L 66.506339 230.098676 
L 66.636201 230.098676 
L 66.895925 230.098676 
L 67.415372 230.098676 
L 68.454266 230.098676 
L 70.532055 230.098676 
L 74.687634 230.098676 
L 81.180725 230.098676 
L 87.673815 230.098676 
L 94.166906 230.098676 
L 100.659997 230.098676 
L 107.153088 230.098676 
L 113.646179 230.098676 
L 120.13927 230.098676 
L 126.632361 230.098676 
L 131.307386 230.098676 
L 131.313879 230.085751 
L 131.326866 230.074489 
L 131.352838 230.058562 
L 131.372317 230.050087 
L 131.376298 230.06466 
L 131.38426 230.090079 
L 131.400183 230.104844 
L 131.422567 230.106618 
L 131.460677 230.107468 
L 131.509264 230.108831 
L 131.60644 230.111008 
L 131.800792 230.114687 
L 132.189496 230.118333 
L 132.966904 230.088529 
L 134.521718 229.604251 
L 137.631348 226.355762 
L 143.850609 215.327932 
L 150.3437 202.643891 
L 156.836791 190.200713 
L 163.329882 177.719635 
L 169.822973 165.268954 
L 176.316063 152.835215 
L 182.809154 140.42759 
L 189.302245 128.113786 
L 195.795336 116.589043 
L 202.288427 107.615889 
L 208.781518 101.979811 
L 215.274609 98.65765 
L 221.7677 96.728039 
L 228.260791 95.585338 
L 234.753882 94.90519 
L 241.246973 94.497986 
L 247.740063 94.253098 
L 254.233154 94.108232 
L 260.726245 94.018372 
L 267.219336 93.967987 
L 273.712427 93.933637 
L 280.205518 93.917442 
L 286.698609 93.903008 
L 293.1917 93.899214 
L 299.684791 93.891942 
L 306.177882 93.892648 
L 312.670973 93.887958 
L 319.164063 93.89029 
L 325.657154 93.886544 
L 332.150245 93.889456 
L 338.643336 93.886065 
L 345.136427 93.889171 
L 351.629518 93.885924 
L 358.122609 93.889086 
L 364.6157 93.885907 
L 371.108791 93.889074 
L 377.601882 93.885936 
L 384.094973 93.889086 
L 390.588063 93.88598 
L 391.031023 93.889016 
" clip-path="url(#p99bbd5979e)" style="fill: none; stroke: #2ca02c; stroke-width: 1.5; stroke-linecap: square"/>
   </g>
   <g id="line2d_18">
    <path d="M 66.376477 261.216 
L 66.408943 261.216 
L 66.441408 261.216 
L 66.506339 261.216 
L 66.636201 261.216 
L 66.895925 261.216 
L 67.415372 261.216 
L 68.454266 261.216 
L 70.532055 261.216 
L 74.687634 261.216 
L 81.180725 261.216 
L 87.673815 261.216 
L 94.166906 261.216 
L 100.659997 261.216 
L 107.153088 261.216 
L 113.646179 261.216 
L 120.13927 261.216 
L 126.632361 261.216 
L 131.307386 261.216 
L 131.313879 237.024 
L 131.326866 188.64 
L 131.352838 91.872 
L 131.372317 19.296 
L 131.376298 19.296 
L 131.38426 19.296 
L 131.400183 19.296 
L 131.422567 19.296 
L 131.460677 19.296 
L 131.509264 19.296 
L 131.60644 19.296 
L 131.800792 19.296 
L 132.189496 19.296 
L 132.966904 19.296 
L 134.521718 19.296 
L 137.631348 19.296 
L 143.850609 19.296 
L 150.3437 19.296 
L 156.836791 19.296 
L 163.329882 19.296 
L 169.822973 19.296 
L 176.316063 19.296 
L 182.809154 19.296 
L 189.302245 19.296 
L 195.795336 19.296 
L 202.288427 19.296 
L 208.781518 19.296 
L 215.274609 19.296 
L 221.7677 19.296 
L 228.260791 19.296 
L 234.753882 19.296 
L 241.246973 19.296 
L 247.740063 19.296 
L 254.233154 19.296 
L 260.726245 19.296 
L 267.219336 19.296 
L 273.712427 19.296 
L 280.205518 19.296 
L 286.698609 19.296 
L 293.1917 19.296 
L 299.684791 19.296 
L 306.177882 19.296 
L 312.670973 19.296 
L 319.164063 19.296 
L 325.657154 19.296 
L 332.150245 19.296 
L 338.643336 19.296 
L 345.136427 19.296 
L 351.629518 19.296 
L 358.122609 19.296 
L 364.6157 19.296 
L 371.108791 19.296 
L 377.601882 19.296 
L 384.094973 19.296 
L 390.588063 19.296 
L 391.031023 19.296 
" clip-path="url(#p99bbd5979e)" style="fill: none; stroke: #d62728; stroke-width: 1.5; stroke-linecap: square"/>
   </g>
   <g id="line2d_19">
    <path d="M 66.376477 232.352733 
L 66.408943 232.352733 
L 66.441408 232.352733 
L 66.506339 232.352733 
L 66.636201 232.352733 
L 66.895925 232.352733 
L 67.415372 232.352733 
L 68.454266 232.352733 
L 70.532055 232.352734 
L 74.687634 232.352734 
L 81.180725 232.352734 
L 87.673815 232.352734 
L 94.166906 232.352734 
L 100.659997 232.352734 
L 107.153088 232.352734 
L 113.646179 232.352734 
L 120.13927 232.352734 
L 126.632361 232.352734 
L 131.307386 232.352734 
L 131.313879 232.341113 
L 131.326866 232.330699 
L 131.352838 232.314091 
L 131.372317 232.305136 
L 131.376438 232.317831 
L 131.384678 232.339411 
L 131.40116 232.353401 
L 131.427183 232.355241 
L 131.463683 232.356372 
L 131.51739 232.35761 
L 131.624805 232.360429 
L 131.839634 232.364594 
L 132.269293 232.370673 
L 133.12861 232.338583 
L 134.847245 231.708514 
L 138.284514 227.639718 
L 143.458324 218.091515 
L 149.215638 206.851593 
L 155.708729 194.289678 
L 162.20182 181.722684 
L 168.694911 169.179795 
L 175.188002 156.656599 
L 181.681093 144.158228 
L 188.174184 131.709834 
L 194.667275 119.680884 
L 201.160365 109.609081 
L 207.653456 102.915915 
L 214.146547 98.988256 
L 220.639638 96.731854 
L 227.132729 95.426559 
L 233.62582 94.667848 
L 240.118911 94.218284 
L 246.612002 93.953806 
L 253.105093 93.798476 
L 259.598184 93.7045 
L 266.091275 93.652018 
L 272.584365 93.617145 
L 279.077456 93.600828 
L 285.570547 93.586479 
L 292.063638 93.582923 
L 298.556729 93.575712 
L 305.04982 93.576668 
L 311.542911 93.57195 
L 318.036002 93.574496 
L 324.529093 93.57066 
L 331.022184 93.573759 
L 337.515275 93.570247 
L 344.008365 93.573527 
L 350.501456 93.570145 
L 356.994547 93.573473 
L 363.487638 93.570156 
L 369.980729 93.573481 
L 376.47382 93.570204 
L 382.966911 93.573511 
L 389.460002 93.570268 
L 391.031023 93.573519 
" clip-path="url(#p99bbd5979e)" style="fill: none; stroke: #9467bd; stroke-width: 1.5; stroke-linecap: square"/>
   </g>
   <g id="line2d_20">
    <path d="M 66.376477 261.216 
L 66.408943 261.216 
L 66.441408 261.216 
L 66.506339 261.216 
L 66.636201 261.216 
L 66.895925 261.216 
L 67.415372 261.216 
L 68.454266 261.216 
L 70.532055 261.216 
L 74.687634 261.216 
L 81.180725 261.216 
L 87.673815 261.216 
L 94.166906 261.216 
L 100.659997 261.216 
L 107.153088 261.216 
L 113.646179 261.216 
L 120.13927 261.216 
L 126.632361 261.216 
L 131.307386 261.216 
L 131.313879 237.024 
L 131.326866 188.64 
L 131.352838 91.872 
L 131.372317 19.296 
L 131.376438 19.296 
L 131.384678 19.296 
L 131.40116 19.296 
L 131.427183 19.296 
L 131.463683 19.296 
L 131.51739 19.296 
L 131.624805 19.296 
L 131.839634 19.296 
L 132.269293 19.296 
L 133.12861 19.296 
L 134.847245 19.296 
L 138.284514 19.296 
L 143.458324 19.296 
L 149.215638 19.296 
L 155.708729 19.296 
L 162.20182 19.296 
L 168.694911 19.296 
L 175.188002 19.296 
L 181.681093 19.296 
L 188.174184 19.296 
L 194.667275 19.296 
L 201.160365 19.296 
L 207.653456 19.296 
L 214.146547 19.296 
L 220.639638 19.296 
L 227.132729 19.296 
L 233.62582 19.296 
L 240.118911 19.296 
L 246.612002 19.296 
L 253.105093 19.296 
L 259.598184 19.296 
L 266.091275 19.296 
L 272.584365 19.296 
L 279.077456 19.296 
L 285.570547 19.296 
L 292.063638 19.296 
L 298.556729 19.296 
L 305.04982 19.296 
L 311.542911 19.296 
L 318.036002 19.296 
L 324.529093 19.296 
L 331.022184 19.296 
L 337.515275 19.296 
L 344.008365 19.296 
L 350.501456 19.296 
L 356.994547 19.296 
L 363.487638 19.296 
L 369.980729 19.296 
L 376.47382 19.296 
L 382.966911 19.296 
L 389.460002 19.296 
L 391.031023 19.296 
" clip-path="url(#p99bbd5979e)" style="fill: none; stroke: #8c564b; stroke-width: 1.5; stroke-linecap: square"/>
   </g>
   <g id="line2d_21">
    <path d="M 66.376477 247.225567 
L 66.408943 247.225567 
L 66.441408 247.225567 
L 66.506339 247.225567 
L 66.636201 247.225567 
L 66.895925 247.225567 
L 67.415372 247.225567 
L 68.454266 247.225567 
L 70.532055 247.225567 
L 74.687634 247.225567 
L 81.180725 247.225567 
L 87.673815 247.225567 
L 94.166906 247.225567 
L 100.659997 247.225567 
L 107.153088 247.225567 
L 113.646179 247.225567 
L 120.13927 247.225567 
L 126.632361 247.225567 
L 131.307386 247.225567 
L 131.313879 247.210618 
L 131.326866 247.196916 
L 131.352838 247.177716 
L 131.372317 247.169619 
L 131.377114 247.188843 
L 131.386707 247.226034 
L 131.405894 247.259034 
L 131.432319 247.261414 
L 131.468499 247.26324 
L 131.519846 247.261331 
L 131.622541 247.261047 
L 131.82793 247.252112 
L 132.238709 247.22123 
L 133.060267 247.057308 
L 134.703383 246.170558 
L 137.989613 242.251982 
L 144.482704 230.634798 
L 150.975795 217.904708 
L 157.468886 205.319999 
L 163.961977 192.726219 
L 170.455068 180.150984 
L 176.948159 167.590865 
L 183.44125 155.052257 
L 189.93434 142.53853 
L 196.427431 130.118648 
L 202.920522 118.233887 
L 209.413613 108.289414 
L 215.906704 101.250914 
L 222.399795 96.730501 
L 228.892886 93.846894 
L 235.385977 92.012136 
L 241.879068 90.827887 
L 248.372159 90.063981 
L 254.86525 89.567215 
L 261.35834 89.244157 
L 267.851431 89.035066 
L 274.344522 88.896901 
L 280.837613 88.809453 
L 287.330704 88.749396 
L 293.823795 88.713617 
L 300.316886 88.686676 
L 306.809977 88.672882 
L 313.303068 88.660013 
L 319.796159 88.655571 
L 326.28925 88.6487 
L 332.78234 88.648228 
L 339.275431 88.643922 
L 345.768522 88.645126 
L 352.261613 88.641927 
L 358.754704 88.643829 
L 365.247795 88.641118 
L 371.740886 88.643301 
L 378.233977 88.640814 
L 384.727068 88.6431 
L 391.031023 88.640726 
" clip-path="url(#p99bbd5979e)" style="fill: none; stroke: #e377c2; stroke-width: 1.5; stroke-linecap: square"/>
   </g>
   <g id="line2d_22">
    <path d="M 66.376477 261.216 
L 66.408943 261.216 
L 66.441408 261.216 
L 66.506339 261.216 
L 66.636201 261.216 
L 66.895925 261.216 
L 67.415372 261.216 
L 68.454266 261.216 
L 70.532055 261.216 
L 74.687634 261.216 
L 81.180725 261.216 
L 87.673815 261.216 
L 94.166906 261.216 
L 100.659997 261.216 
L 107.153088 261.216 
L 113.646179 261.216 
L 120.13927 261.216 
L 126.632361 261.216 
L 131.307386 261.216 
L 131.313879 237.024 
L 131.326866 188.64 
L 131.352838 91.872 
L 131.372317 19.296 
L 131.377114 19.296 
L 131.386707 19.296 
L 131.405894 19.296 
L 131.432319 19.296 
L 131.468499 19.296 
L 131.519846 19.296 
L 131.622541 19.296 
L 131.82793 19.296 
L 132.238709 19.296 
L 133.060267 19.296 
L 134.703383 19.296 
L 137.989613 19.296 
L 144.482704 19.296 
L 150.975795 19.296 
L 157.468886 19.296 
L 163.961977 19.296 
L 170.455068 19.296 
L 176.948159 19.296 
L 183.44125 19.296 
L 189.93434 19.296 
L 196.427431 19.296 
L 202.920522 19.296 
L 209.413613 19.296 
L 215.906704 19.296 
L 222.399795 19.296 
L 228.892886 19.296 
L 235.385977 19.296 
L 241.879068 19.296 
L 248.372159 19.296 
L 254.86525 19.296 
L 261.35834 19.296 
L 267.851431 19.296 
L 274.344522 19.296 
L 280.837613 19.296 
L 287.330704 19.296 
L 293.823795 19.296 
L 300.316886 19.296 
L 306.809977 19.296 
L 313.303068 19.296 
L 319.796159 19.296 
L 326.28925 19.296 
L 332.78234 19.296 
L 339.275431 19.296 
L 345.768522 19.296 
L 352.261613 19.296 
L 358.754704 19.296 
L 365.247795 19.296 
L 371.740886 19.296 
L 378.233977 19.296 
L 384.727068 19.296 
L 391.031023 19.296 
" clip-path="url(#p99bbd5979e)" style="fill: none; stroke: #7f7f7f; stroke-width: 1.5; stroke-linecap: square"/>
   </g>
   <g id="line2d_23">
    <path d="M 66.376477 249.209035 
L 66.408943 249.209035 
L 66.441408 249.209035 
L 66.506339 249.209035 
L 66.636201 249.209035 
L 66.895925 249.209035 
L 67.415372 249.209035 
L 68.454266 249.209035 
L 70.532055 249.209035 
L 74.687634 249.209035 
L 81.180725 249.209035 
L 87.673815 249.209035 
L 94.166906 249.209035 
L 100.659997 249.209035 
L 107.153088 249.209035 
L 113.646179 249.209035 
L 120.13927 249.209035 
L 126.632361 249.209035 
L 131.307386 249.209035 
L 131.313879 249.195297 
L 131.326866 249.182184 
L 131.352838 249.162451 
L 131.372317 249.154165 
L 131.377308 249.17175 
L 131.38729 249.205477 
L 131.407253 249.235994 
L 131.434385 249.238398 
L 131.472894 249.240457 
L 131.526539 249.239283 
L 131.633827 249.239968 
L 131.848404 249.233733 
L 132.277558 249.207888 
L 133.135866 249.046613 
L 134.852482 248.081083 
L 138.285714 243.74368 
L 144.778805 231.777646 
L 151.271896 218.957603 
L 157.764987 206.285593 
L 164.258078 193.601559 
L 170.751169 180.93899 
L 177.24426 168.292252 
L 183.737351 155.668626 
L 190.230442 143.07018 
L 196.723533 130.551281 
L 203.216623 118.475299 
L 209.709714 108.196471 
L 216.202805 100.839043 
L 222.695896 96.154663 
L 229.188987 93.207245 
L 235.682078 91.364831 
L 242.175169 90.188484 
L 248.66826 89.43889 
L 255.161351 88.959697 
L 261.654442 88.651573 
L 268.147533 88.455861 
L 274.640623 88.327498 
L 281.133714 88.248323 
L 287.626805 88.193718 
L 294.119896 88.162674 
L 300.612987 88.138442 
L 307.106078 88.12731 
L 313.599169 88.115615 
L 320.09226 88.112716 
L 326.585351 88.106214 
L 333.078442 88.106711 
L 339.571533 88.102372 
L 346.064623 88.104259 
L 352.557714 88.10083 
L 359.050805 88.103276 
L 365.543896 88.100243 
L 372.036987 88.102901 
L 378.530078 88.100049 
L 385.023169 88.102776 
L 391.031023 88.100021 
" clip-path="url(#p99bbd5979e)" style="fill: none; stroke: #bcbd22; stroke-width: 1.5; stroke-linecap: square"/>
   </g>
   <g id="line2d_24">
    <path d="M 66.376477 261.216 
L 66.408943 261.216 
L 66.441408 261.216 
L 66.506339 261.216 
L 66.636201 261.216 
L 66.895925 261.216 
L 67.415372 261.216 
L 68.454266 261.216 
L 70.532055 261.216 
L 74.687634 261.216 
L 81.180725 261.216 
L 87.673815 261.216 
L 94.166906 261.216 
L 100.659997 261.216 
L 107.153088 261.216 
L 113.646179 261.216 
L 120.13927 261.216 
L 126.632361 261.216 
L 131.307386 261.216 
L 131.313879 237.024 
L 131.326866 188.64 
L 131.352838 91.872 
L 131.372317 19.296 
L 131.377308 19.296 
L 131.38729 19.296 
L 131.407253 19.296 
L 131.434385 19.296 
L 131.472894 19.296 
L 131.526539 19.296 
L 131.633827 19.296 
L 131.848404 19.296 
L 132.277558 19.296 
L 133.135866 19.296 
L 134.852482 19.296 
L 138.285714 19.296 
L 144.778805 19.296 
L 151.271896 19.296 
L 157.764987 19.296 
L 164.258078 19.296 
L 170.751169 19.296 
L 177.24426 19.296 
L 183.737351 19.296 
L 190.230442 19.296 
L 196.723533 19.296 
L 203.216623 19.296 
L 209.709714 19.296 
L 216.202805 19.296 
L 222.695896 19.296 
L 229.188987 19.296 
L 235.682078 19.296 
L 242.175169 19.296 
L 248.66826 19.296 
L 255.161351 19.296 
L 261.654442 19.296 
L 268.147533 19.296 
L 274.640623 19.296 
L 281.133714 19.296 
L 287.626805 19.296 
L 294.119896 19.296 
L 300.612987 19.296 
L 307.106078 19.296 
L 313.599169 19.296 
L 320.09226 19.296 
L 326.585351 19.296 
L 333.078442 19.296 
L 339.571533 19.296 
L 346.064623 19.296 
L 352.557714 19.296 
L 359.050805 19.296 
L 365.543896 19.296 
L 372.036987 19.296 
L 378.530078 19.296 
L 385.023169 19.296 
L 391.031023 19.296 
" clip-path="url(#p99bbd5979e)" style="fill: none; stroke: #17becf; stroke-width: 1.5; stroke-linecap: square"/>
   </g>
   <g id="line2d_25">
    <path d="M 66.376477 251.026605 
L 66.408943 251.026605 
L 66.441408 251.026605 
L 66.506339 251.026605 
L 66.636201 251.026605 
L 66.895925 251.026605 
L 67.415372 251.026605 
L 68.454266 251.026605 
L 70.532055 251.026605 
L 74.687634 251.026605 
L 81.180725 251.026605 
L 87.673815 251.026605 
L 94.166906 251.026605 
L 100.659997 251.026605 
L 107.153088 251.026605 
L 113.646179 251.026605 
L 120.13927 251.026605 
L 126.632361 251.026605 
L 131.307386 251.026605 
L 131.313879 251.014203 
L 131.326866 251.00092 
L 131.352838 250.981183 
L 131.372317 250.972523 
L 131.377483 250.987887 
L 131.387815 251.016816 
L 131.408479 251.045215 
L 131.436207 251.048574 
L 131.477223 251.050874 
L 131.533076 251.050561 
L 131.644784 251.052174 
L 131.8682 251.049073 
L 132.315032 251.029787 
L 133.208695 250.877337 
L 134.99602 249.843169 
L 138.570672 245.091491 
L 145.063763 232.810577 
L 151.556854 219.912628 
L 158.049945 207.1503 
L 164.543036 194.375783 
L 171.036127 181.626357 
L 177.529218 168.89213 
L 184.022308 156.183207 
L 190.515399 143.501834 
L 197.00849 130.889795 
L 203.501581 118.653961 
L 209.994672 108.091362 
L 216.487763 100.453138 
L 222.980854 95.624064 
L 229.473945 92.621732 
L 235.967036 90.769702 
L 242.460127 89.609864 
L 248.953218 88.882754 
L 255.446308 88.423413 
L 261.939399 88.132364 
L 268.43249 87.95022 
L 274.925581 87.831855 
L 281.418672 87.760639 
L 287.911763 87.711163 
L 294.404854 87.684549 
L 300.897945 87.662646 
L 307.391036 87.653997 
L 313.884127 87.64316 
L 320.377218 87.641744 
L 326.870308 87.635367 
L 333.363399 87.63685 
L 339.85649 87.632283 
L 346.349581 87.63492 
L 352.842672 87.631102 
L 359.335763 87.634184 
L 365.828854 87.630685 
L 372.321945 87.633926 
L 378.815036 87.630578 
L 385.308127 87.633861 
L 391.031023 87.630597 
" clip-path="url(#p99bbd5979e)" style="fill: none; stroke: #1f77b4; stroke-width: 1.5; stroke-linecap: square"/>
   </g>
   <g id="line2d_26">
    <path d="M 66.376477 261.216 
L 66.408943 261.216 
L 66.441408 261.216 
L 66.506339 261.216 
L 66.636201 261.216 
L 66.895925 261.216 
L 67.415372 261.216 
L 68.454266 261.216 
L 70.532055 261.216 
L 74.687634 261.216 
L 81.180725 261.216 
L 87.673815 261.216 
L 94.166906 261.216 
L 100.659997 261.216 
L 107.153088 261.216 
L 113.646179 261.216 
L 120.13927 261.216 
L 126.632361 261.216 
L 131.307386 261.216 
L 131.313879 237.024 
L 131.326866 188.64 
L 131.352838 91.872 
L 131.372317 19.296 
L 131.377483 19.296 
L 131.387815 19.296 
L 131.408479 19.296 
L 131.436207 19.296 
L 131.477223 19.296 
L 131.533076 19.296 
L 131.644784 19.296 
L 131.8682 19.296 
L 132.315032 19.296 
L 133.208695 19.296 
L 134.99602 19.296 
L 138.570672 19.296 
L 145.063763 19.296 
L 151.556854 19.296 
L 158.049945 19.296 
L 164.543036 19.296 
L 171.036127 19.296 
L 177.529218 19.296 
L 184.022308 19.296 
L 190.515399 19.296 
L 197.00849 19.296 
L 203.501581 19.296 
L 209.994672 19.296 
L 216.487763 19.296 
L 222.980854 19.296 
L 229.473945 19.296 
L 235.967036 19.296 
L 242.460127 19.296 
L 248.953218 19.296 
L 255.446308 19.296 
L 261.939399 19.296 
L 268.43249 19.296 
L 274.925581 19.296 
L 281.418672 19.296 
L 287.911763 19.296 
L 294.404854 19.296 
L 300.897945 19.296 
L 307.391036 19.296 
L 313.884127 19.296 
L 320.377218 19.296 
L 326.870308 19.296 
L 333.363399 19.296 
L 339.85649 19.296 
L 346.349581 19.296 
L 352.842672 19.296 
L 359.335763 19.296 
L 365.828854 19.296 
L 372.321945 19.296 
L 378.815036 19.296 
L 385.308127 19.296 
L 391.031023 19.296 
" clip-path="url(#p99bbd5979e)" style="fill: none; stroke: #ff7f0e; stroke-width: 1.5; stroke-linecap: square"/>
   </g>
   <g id="line2d_27">
    <path d="M 66.376477 255.527316 
L 66.408943 255.527316 
L 66.441408 255.527316 
L 66.506339 255.527316 
L 66.636201 255.527316 
L 66.895925 255.527316 
L 67.415372 255.527316 
L 68.454266 255.527316 
L 70.532055 255.527316 
L 74.687634 255.527316 
L 81.180725 255.527316 
L 87.673815 255.527316 
L 94.166906 255.527316 
L 100.659997 255.527316 
L 107.153088 255.527316 
L 113.646179 255.527316 
L 120.13927 255.527316 
L 126.632361 255.527316 
L 131.307386 255.527316 
L 131.313879 255.510142 
L 131.326866 255.486319 
L 131.352838 255.465913 
L 131.372317 255.461654 
L 131.376686 255.48335 
L 131.385424 255.528187 
L 131.4029 255.585214 
L 131.428089 255.600232 
L 131.463628 255.597474 
L 131.511171 255.587599 
L 131.606255 255.565559 
L 131.796423 255.512308 
L 132.176759 255.376264 
L 132.937431 254.981938 
L 134.458776 253.714246 
L 137.501465 249.649055 
L 143.586843 238.655397 
L 150.079934 225.775585 
L 156.573025 212.920535 
L 163.066116 200.075525 
L 169.559207 187.244208 
L 176.052298 174.43467 
L 182.545389 161.640945 
L 189.03848 148.876036 
L 195.531571 136.164034 
L 202.024661 123.638401 
L 208.517752 111.856523 
L 215.010843 101.917853 
L 221.503934 94.532019 
L 227.997025 89.390778 
L 234.490116 85.863336 
L 240.983207 83.445249 
L 247.476298 81.78001 
L 253.969389 80.631775 
L 260.46248 79.834554 
L 266.955571 79.283357 
L 273.448661 78.897662 
L 279.941752 78.63165 
L 286.434843 78.443576 
L 292.927934 78.315358 
L 299.421025 78.222982 
L 305.914116 78.161417 
L 312.407207 78.115535 
L 318.900298 78.086417 
L 325.393389 78.063171 
L 331.88648 78.049859 
L 338.379571 78.037648 
L 344.872661 78.032034 
L 351.365752 78.02521 
L 357.858843 78.023341 
L 364.351934 78.019151 
L 370.845025 78.0191 
L 377.338116 78.016205 
L 383.831207 78.017032 
L 390.324298 78.014775 
L 391.031023 78.016351 
" clip-path="url(#p99bbd5979e)" style="fill: none; stroke: #2ca02c; stroke-width: 1.5; stroke-linecap: square"/>
   </g>
   <g id="line2d_28">
    <path d="M 66.376477 261.216 
L 66.408943 261.216 
L 66.441408 261.216 
L 66.506339 261.216 
L 66.636201 261.216 
L 66.895925 261.216 
L 67.415372 261.216 
L 68.454266 261.216 
L 70.532055 261.216 
L 74.687634 261.216 
L 81.180725 261.216 
L 87.673815 261.216 
L 94.166906 261.216 
L 100.659997 261.216 
L 107.153088 261.216 
L 113.646179 261.216 
L 120.13927 261.216 
L 126.632361 261.216 
L 131.307386 261.216 
L 131.313879 237.024 
L 131.326866 188.64 
L 131.352838 91.872 
L 131.372317 19.296 
L 131.376686 19.296 
L 131.385424 19.296 
L 131.4029 19.296 
L 131.428089 19.296 
L 131.463628 19.296 
L 131.511171 19.296 
L 131.606255 19.296 
L 131.796423 19.296 
L 132.176759 19.296 
L 132.937431 19.296 
L 134.458776 19.296 
L 137.501465 19.296 
L 143.586843 19.296 
L 150.079934 19.296 
L 156.573025 19.296 
L 163.066116 19.296 
L 169.559207 19.296 
L 176.052298 19.296 
L 182.545389 19.296 
L 189.03848 19.296 
L 195.531571 19.296 
L 202.024661 19.296 
L 208.517752 19.296 
L 215.010843 19.296 
L 221.503934 19.296 
L 227.997025 19.296 
L 234.490116 19.296 
L 240.983207 19.296 
L 247.476298 19.296 
L 253.969389 19.296 
L 260.46248 19.296 
L 266.955571 19.296 
L 273.448661 19.296 
L 279.941752 19.296 
L 286.434843 19.296 
L 292.927934 19.296 
L 299.421025 19.296 
L 305.914116 19.296 
L 312.407207 19.296 
L 318.900298 19.296 
L 325.393389 19.296 
L 331.88648 19.296 
L 338.379571 19.296 
L 344.872661 19.296 
L 351.365752 19.296 
L 357.858843 19.296 
L 364.351934 19.296 
L 370.845025 19.296 
L 377.338116 19.296 
L 383.831207 19.296 
L 390.324298 19.296 
L 391.031023 19.296 
" clip-path="url(#p99bbd5979e)" style="fill: none; stroke: #d62728; stroke-width: 1.5; stroke-linecap: square"/>
   </g>
   <g id="line2d_29">
    <path d="M 66.376477 255.784429 
L 66.408943 255.784429 
L 66.441408 255.784429 
L 66.506339 255.784429 
L 66.636201 255.784429 
L 66.895925 255.784429 
L 67.415372 255.784429 
L 68.454266 255.784429 
L 70.532055 255.784429 
L 74.687634 255.784429 
L 81.180725 255.784429 
L 87.673815 255.784428 
L 94.166906 255.784428 
L 100.659997 255.784428 
L 107.153088 255.784428 
L 113.646179 255.784428 
L 120.13927 255.784428 
L 126.632361 255.784428 
L 131.307386 255.784428 
L 131.313879 255.768115 
L 131.326866 255.74553 
L 131.352838 255.724947 
L 131.372317 255.719941 
L 131.376374 255.738616 
L 131.384487 255.776852 
L 131.400714 255.830326 
L 131.425574 255.85011 
L 131.461422 255.84807 
L 131.508707 255.841057 
L 131.603276 255.821515 
L 131.792415 255.776084 
L 132.170693 255.652807 
L 132.927249 255.28239 
L 134.440361 254.033732 
L 137.466586 249.923192 
L 143.519035 238.796692 
L 149.664963 226.484807 
L 156.158054 213.53743 
L 162.651145 200.601004 
L 169.144235 187.678045 
L 175.637326 174.780453 
L 182.130417 161.899037 
L 188.623508 149.048223 
L 195.116599 136.245301 
L 201.60969 123.605271 
L 208.102781 111.615739 
L 214.595872 101.386774 
L 221.088963 93.745764 
L 227.582054 88.468622 
L 234.075145 84.886209 
L 240.568235 82.463868 
L 247.061326 80.814526 
L 253.554417 79.692999 
L 260.047508 78.92265 
L 266.540599 78.39756 
L 273.03369 78.03371 
L 279.526781 77.786853 
L 286.019872 77.613997 
L 292.512963 77.498456 
L 299.006054 77.415374 
L 305.499145 77.361511 
L 311.992235 77.32099 
L 318.485326 77.296421 
L 324.978417 77.276114 
L 331.471508 77.265464 
L 337.964599 77.254773 
L 344.45769 77.250736 
L 350.950781 77.244623 
L 357.443872 77.243724 
L 363.936963 77.239797 
L 370.430054 77.240381 
L 376.923145 77.237503 
L 383.416235 77.238785 
L 389.909326 77.236411 
L 391.031023 77.238251 
" clip-path="url(#p99bbd5979e)" style="fill: none; stroke: #9467bd; stroke-width: 1.5; stroke-linecap: square"/>
   </g>
   <g id="line2d_30">
    <path d="M 66.376477 261.216 
L 66.408943 261.216 
L 66.441408 261.216 
L 66.506339 261.216 
L 66.636201 261.216 
L 66.895925 261.216 
L 67.415372 261.216 
L 68.454266 261.216 
L 70.532055 261.216 
L 74.687634 261.216 
L 81.180725 261.216 
L 87.673815 261.216 
L 94.166906 261.216 
L 100.659997 261.216 
L 107.153088 261.216 
L 113.646179 261.216 
L 120.13927 261.216 
L 126.632361 261.216 
L 131.307386 261.216 
L 131.313879 237.024 
L 131.326866 188.64 
L 131.352838 91.872 
L 131.372317 19.296 
L 131.376374 19.296 
L 131.384487 19.296 
L 131.400714 19.296 
L 131.425574 19.296 
L 131.461422 19.296 
L 131.508707 19.296 
L 131.603276 19.296 
L 131.792415 19.296 
L 132.170693 19.296 
L 132.927249 19.296 
L 134.440361 19.296 
L 137.466586 19.296 
L 143.519035 19.296 
L 149.664963 19.296 
L 156.158054 19.296 
L 162.651145 19.296 
L 169.144235 19.296 
L 175.637326 19.296 
L 182.130417 19.296 
L 188.623508 19.296 
L 195.116599 19.296 
L 201.60969 19.296 
L 208.102781 19.296 
L 214.595872 19.296 
L 221.088963 19.296 
L 227.582054 19.296 
L 234.075145 19.296 
L 240.568235 19.296 
L 247.061326 19.296 
L 253.554417 19.296 
L 260.047508 19.296 
L 266.540599 19.296 
L 273.03369 19.296 
L 279.526781 19.296 
L 286.019872 19.296 
L 292.512963 19.296 
L 299.006054 19.296 
L 305.499145 19.296 
L 311.992235 19.296 
L 318.485326 19.296 
L 324.978417 19.296 
L 331.471508 19.296 
L 337.964599 19.296 
L 344.45769 19.296 
L 350.950781 19.296 
L 357.443872 19.296 
L 363.936963 19.296 
L 370.430054 19.296 
L 376.923145 19.296 
L 383.416235 19.296 
L 389.909326 19.296 
L 391.031023 19.296 
" clip-path="url(#p99bbd5979e)" style="fill: none; stroke: #8c564b; stroke-width: 1.5; stroke-linecap: square"/>
   </g>
   <g id="line2d_31">
    <path d="M 66.376477 255.939936 
L 66.408943 255.939936 
L 66.441408 255.939936 
L 66.506339 255.939936 
L 66.636201 255.939936 
L 66.895925 255.939936 
L 67.415372 255.939936 
L 68.454266 255.939936 
L 70.532055 255.939936 
L 74.687634 255.939936 
L 81.180725 255.939936 
L 87.673815 255.939936 
L 94.166906 255.939936 
L 100.659997 255.939936 
L 107.153088 255.939936 
L 113.646179 255.939936 
L 120.13927 255.939936 
L 126.632361 255.939936 
L 131.307386 255.939936 
L 131.313879 255.924464 
L 131.326866 255.903076 
L 131.352838 255.882146 
L 131.372317 255.875817 
L 131.376112 255.891442 
L 131.383701 255.9228 
L 131.398879 255.97138 
L 131.423646 255.996369 
L 131.458742 255.995651 
L 131.507363 255.991828 
L 131.604606 255.974841 
L 131.789543 255.939313 
L 132.159416 255.834538 
L 132.899163 255.505477 
L 134.378657 254.327198 
L 137.337645 250.299017 
L 143.25562 239.288172 
L 148.953436 227.769802 
L 155.446527 214.727506 
L 161.939618 201.69837 
L 168.432709 188.682477 
L 174.9258 175.695178 
L 181.418891 162.724792 
L 187.911982 149.786307 
L 194.405073 136.890735 
L 200.898163 124.133137 
L 207.391254 111.922944 
L 213.884345 101.338968 
L 220.377436 93.338311 
L 226.870527 87.837854 
L 233.363618 84.139918 
L 239.856709 81.673 
L 246.3498 80.011834 
L 252.842891 78.897293 
L 259.335982 78.141626 
L 265.829073 77.634874 
L 272.322163 77.285787 
L 278.815254 77.052967 
L 285.308345 76.890312 
L 291.801436 76.783736 
L 298.294527 76.707112 
L 304.787618 76.658944 
L 311.280709 76.622144 
L 317.7738 76.601046 
L 324.266891 76.582711 
L 330.759982 76.574166 
L 337.253073 76.564404 
L 343.746163 76.561678 
L 350.239254 76.555901 
L 356.732345 76.555867 
L 363.225436 76.551948 
L 369.718527 76.553158 
L 376.211618 76.550108 
L 382.704709 76.551886 
L 389.1978 76.54925 
L 391.031023 76.551442 
" clip-path="url(#p99bbd5979e)" style="fill: none; stroke: #e377c2; stroke-width: 1.5; stroke-linecap: square"/>
   </g>
   <g id="line2d_32">
    <path d="M 66.376477 261.216 
L 66.408943 261.216 
L 66.441408 261.216 
L 66.506339 261.216 
L 66.636201 261.216 
L 66.895925 261.216 
L 67.415372 261.216 
L 68.454266 261.216 
L 70.532055 261.216 
L 74.687634 261.216 
L 81.180725 261.216 
L 87.673815 261.216 
L 94.166906 261.216 
L 100.659997 261.216 
L 107.153088 261.216 
L 113.646179 261.216 
L 120.13927 261.216 
L 126.632361 261.216 
L 131.307386 261.216 
L 131.313879 237.024 
L 131.326866 188.64 
L 131.352838 91.872 
L 131.372317 19.296 
L 131.376112 19.296 
L 131.383701 19.296 
L 131.398879 19.296 
L 131.423646 19.296 
L 131.458742 19.296 
L 131.507363 19.296 
L 131.604606 19.296 
L 131.789543 19.296 
L 132.159416 19.296 
L 132.899163 19.296 
L 134.378657 19.296 
L 137.337645 19.296 
L 143.25562 19.296 
L 148.953436 19.296 
L 155.446527 19.296 
L 161.939618 19.296 
L 168.432709 19.296 
L 174.9258 19.296 
L 181.418891 19.296 
L 187.911982 19.296 
L 194.405073 19.296 
L 200.898163 19.296 
L 207.391254 19.296 
L 213.884345 19.296 
L 220.377436 19.296 
L 226.870527 19.296 
L 233.363618 19.296 
L 239.856709 19.296 
L 246.3498 19.296 
L 252.842891 19.296 
L 259.335982 19.296 
L 265.829073 19.296 
L 272.322163 19.296 
L 278.815254 19.296 
L 285.308345 19.296 
L 291.801436 19.296 
L 298.294527 19.296 
L 304.787618 19.296 
L 311.280709 19.296 
L 317.7738 19.296 
L 324.266891 19.296 
L 330.759982 19.296 
L 337.253073 19.296 
L 343.746163 19.296 
L 350.239254 19.296 
L 356.732345 19.296 
L 363.225436 19.296 
L 369.718527 19.296 
L 376.211618 19.296 
L 382.704709 19.296 
L 389.1978 19.296 
L 391.031023 19.296 
" clip-path="url(#p99bbd5979e)" style="fill: none; stroke: #7f7f7f; stroke-width: 1.5; stroke-linecap: square"/>
   </g>
   <g id="patch_3">
    <path d="M 50.14375 273.312 
L 50.14375 7.2 
" style="fill: none; stroke: #000000; stroke-width: 0.8; stroke-linejoin: miter; stroke-linecap: square"/>
   </g>
   <g id="patch_4">
    <path d="M 407.26375 273.312 
L 407.26375 7.2 
" style="fill: none; stroke: #000000; stroke-width: 0.8; stroke-linejoin: miter; stroke-linecap: square"/>
   </g>
   <g id="patch_5">
    <path d="M 50.14375 273.312 
L 407.26375 273.312 
" style="fill: none; stroke: #000000; stroke-width: 0.8; stroke-linejoin: miter; stroke-linecap: square"/>
   </g>
   <g id="patch_6">
    <path d="M 50.14375 7.2 
L 407.26375 7.2 
" style="fill: none; stroke: #000000; stroke-width: 0.8; stroke-linejoin: miter; stroke-linecap: square"/>
   </g>
   <g id="legend_1">
    <g id="patch_7">
     <path d="M 423.54855 274.40625 
L 615.889175 274.40625 
Q 617.889175 274.40625 617.889175 272.40625 
L 617.889175 9.2 
Q 617.889175 7.2 615.889175 7.2 
L 423.54855 7.2 
Q 421.54855 7.2 421.54855 9.2 
L 421.54855 272.40625 
Q 421.54855 274.40625 423.54855 274.40625 
z
" style="fill: #ffffff; opacity: 0.8; stroke: #cccccc; stroke-linejoin: miter"/>
    </g>
    <g id="line2d_33">
     <path d="M 425.54855 15.298437 
L 435.54855 15.298437 
L 445.54855 15.298437 
" style="fill: none; stroke: #1f77b4; stroke-width: 1.5; stroke-linecap: square"/>
    </g>
    <g id="text_18">
     <!-- corner = ss, temperature = -40 -->
     <g transform="translate(453.54855 18.798437) scale(0.1 -0.1)">
      <defs>
       <path id="DejaVuSans-63" d="M 3122 3366 
L 3122 2828 
Q 2878 2963 2633 3030 
Q 2388 3097 2138 3097 
Q 1578 3097 1268 2742 
Q 959 2388 959 1747 
Q 959 1106 1268 751 
Q 1578 397 2138 397 
Q 2388 397 2633 464 
Q 2878 531 3122 666 
L 3122 134 
Q 2881 22 2623 -34 
Q 2366 -91 2075 -91 
Q 1284 -91 818 406 
Q 353 903 353 1747 
Q 353 2603 823 3093 
Q 1294 3584 2113 3584 
Q 2378 3584 2631 3529 
Q 2884 3475 3122 3366 
z
" transform="scale(0.015625)"/>
       <path id="DejaVuSans-72" d="M 2631 2963 
Q 2534 3019 2420 3045 
Q 2306 3072 2169 3072 
Q 1681 3072 1420 2755 
Q 1159 2438 1159 1844 
L 1159 0 
L 581 0 
L 581 3500 
L 1159 3500 
L 1159 2956 
Q 1341 3275 1631 3429 
Q 1922 3584 2338 3584 
Q 2397 3584 2469 3576 
Q 2541 3569 2628 3553 
L 2631 2963 
z
" transform="scale(0.015625)"/>
       <path id="DejaVuSans-3d" d="M 678 2906 
L 4684 2906 
L 4684 2381 
L 678 2381 
L 678 2906 
z
M 678 1631 
L 4684 1631 
L 4684 1100 
L 678 1100 
L 678 1631 
z
" transform="scale(0.015625)"/>
       <path id="DejaVuSans-61" d="M 2194 1759 
Q 1497 1759 1228 1600 
Q 959 1441 959 1056 
Q 959 750 1161 570 
Q 1363 391 1709 391 
Q 2188 391 2477 730 
Q 2766 1069 2766 1631 
L 2766 1759 
L 2194 1759 
z
M 3341 1997 
L 3341 0 
L 2766 0 
L 2766 531 
Q 2569 213 2275 61 
Q 1981 -91 1556 -91 
Q 1019 -91 701 211 
Q 384 513 384 1019 
Q 384 1609 779 1909 
Q 1175 2209 1959 2209 
L 2766 2209 
L 2766 2266 
Q 2766 2663 2505 2880 
Q 2244 3097 1772 3097 
Q 1472 3097 1187 3025 
Q 903 2953 641 2809 
L 641 3341 
Q 956 3463 1253 3523 
Q 1550 3584 1831 3584 
Q 2591 3584 2966 3190 
Q 3341 2797 3341 1997 
z
" transform="scale(0.015625)"/>
       <path id="DejaVuSans-2d" d="M 313 2009 
L 1997 2009 
L 1997 1497 
L 313 1497 
L 313 2009 
z
" transform="scale(0.015625)"/>
      </defs>
      <use xlink:href="#DejaVuSans-63"/>
      <use xlink:href="#DejaVuSans-6f" x="54.980469"/>
      <use xlink:href="#DejaVuSans-72" x="116.162109"/>
      <use xlink:href="#DejaVuSans-6e" x="155.525391"/>
      <use xlink:href="#DejaVuSans-65" x="218.904297"/>
      <use xlink:href="#DejaVuSans-72" x="280.427734"/>
      <use xlink:href="#DejaVuSans-20" x="321.541016"/>
      <use xlink:href="#DejaVuSans-3d" x="353.328125"/>
      <use xlink:href="#DejaVuSans-20" x="437.117188"/>
      <use xlink:href="#DejaVuSans-73" x="468.904297"/>
      <use xlink:href="#DejaVuSans-73" x="521.003906"/>
      <use xlink:href="#DejaVuSans-2c" x="573.103516"/>
      <use xlink:href="#DejaVuSans-20" x="604.890625"/>
      <use xlink:href="#DejaVuSans-74" x="636.677734"/>
      <use xlink:href="#DejaVuSans-65" x="675.886719"/>
      <use xlink:href="#DejaVuSans-6d" x="737.410156"/>
      <use xlink:href="#DejaVuSans-70" x="834.822266"/>
      <use xlink:href="#DejaVuSans-65" x="898.298828"/>
      <use xlink:href="#DejaVuSans-72" x="959.822266"/>
      <use xlink:href="#DejaVuSans-61" x="1000.935547"/>
      <use xlink:href="#DejaVuSans-74" x="1062.214844"/>
      <use xlink:href="#DejaVuSans-75" x="1101.423828"/>
      <use xlink:href="#DejaVuSans-72" x="1164.802734"/>
      <use xlink:href="#DejaVuSans-65" x="1203.666016"/>
      <use xlink:href="#DejaVuSans-20" x="1265.189453"/>
      <use xlink:href="#DejaVuSans-3d" x="1296.976562"/>
      <use xlink:href="#DejaVuSans-20" x="1380.765625"/>
      <use xlink:href="#DejaVuSans-2d" x="1412.552734"/>
      <use xlink:href="#DejaVuSans-34" x="1448.636719"/>
      <use xlink:href="#DejaVuSans-30" x="1512.259766"/>
     </g>
    </g>
    <g id="line2d_34">
     <path d="M 425.54855 29.976562 
L 435.54855 29.976562 
L 445.54855 29.976562 
" style="fill: none; stroke: #ff7f0e; stroke-width: 1.5; stroke-linecap: square"/>
    </g>
    <g id="text_19">
     <!-- corner = ss, temperature = -40 -->
     <g transform="translate(453.54855 33.476562) scale(0.1 -0.1)">
      <use xlink:href="#DejaVuSans-63"/>
      <use xlink:href="#DejaVuSans-6f" x="54.980469"/>
      <use xlink:href="#DejaVuSans-72" x="116.162109"/>
      <use xlink:href="#DejaVuSans-6e" x="155.525391"/>
      <use xlink:href="#DejaVuSans-65" x="218.904297"/>
      <use xlink:href="#DejaVuSans-72" x="280.427734"/>
      <use xlink:href="#DejaVuSans-20" x="321.541016"/>
      <use xlink:href="#DejaVuSans-3d" x="353.328125"/>
      <use xlink:href="#DejaVuSans-20" x="437.117188"/>
      <use xlink:href="#DejaVuSans-73" x="468.904297"/>
      <use xlink:href="#DejaVuSans-73" x="521.003906"/>
      <use xlink:href="#DejaVuSans-2c" x="573.103516"/>
      <use xlink:href="#DejaVuSans-20" x="604.890625"/>
      <use xlink:href="#DejaVuSans-74" x="636.677734"/>
      <use xlink:href="#DejaVuSans-65" x="675.886719"/>
      <use xlink:href="#DejaVuSans-6d" x="737.410156"/>
      <use xlink:href="#DejaVuSans-70" x="834.822266"/>
      <use xlink:href="#DejaVuSans-65" x="898.298828"/>
      <use xlink:href="#DejaVuSans-72" x="959.822266"/>
      <use xlink:href="#DejaVuSans-61" x="1000.935547"/>
      <use xlink:href="#DejaVuSans-74" x="1062.214844"/>
      <use xlink:href="#DejaVuSans-75" x="1101.423828"/>
      <use xlink:href="#DejaVuSans-72" x="1164.802734"/>
      <use xlink:href="#DejaVuSans-65" x="1203.666016"/>
      <use xlink:href="#DejaVuSans-20" x="1265.189453"/>
      <use xlink:href="#DejaVuSans-3d" x="1296.976562"/>
      <use xlink:href="#DejaVuSans-20" x="1380.765625"/>
      <use xlink:href="#DejaVuSans-2d" x="1412.552734"/>
      <use xlink:href="#DejaVuSans-34" x="1448.636719"/>
      <use xlink:href="#DejaVuSans-30" x="1512.259766"/>
     </g>
    </g>
    <g id="line2d_35">
     <path d="M 425.54855 44.654687 
L 435.54855 44.654687 
L 445.54855 44.654687 
" style="fill: none; stroke: #2ca02c; stroke-width: 1.5; stroke-linecap: square"/>
    </g>
    <g id="text_20">
     <!-- corner = tt, temperature = -40 -->
     <g transform="translate(453.54855 48.154687) scale(0.1 -0.1)">
      <use xlink:href="#DejaVuSans-63"/>
      <use xlink:href="#DejaVuSans-6f" x="54.980469"/>
      <use xlink:href="#DejaVuSans-72" x="116.162109"/>
      <use xlink:href="#DejaVuSans-6e" x="155.525391"/>
      <use xlink:href="#DejaVuSans-65" x="218.904297"/>
      <use xlink:href="#DejaVuSans-72" x="280.427734"/>
      <use xlink:href="#DejaVuSans-20" x="321.541016"/>
      <use xlink:href="#DejaVuSans-3d" x="353.328125"/>
      <use xlink:href="#DejaVuSans-20" x="437.117188"/>
      <use xlink:href="#DejaVuSans-74" x="468.904297"/>
      <use xlink:href="#DejaVuSans-74" x="508.113281"/>
      <use xlink:href="#DejaVuSans-2c" x="547.322266"/>
      <use xlink:href="#DejaVuSans-20" x="579.109375"/>
      <use xlink:href="#DejaVuSans-74" x="610.896484"/>
      <use xlink:href="#DejaVuSans-65" x="650.105469"/>
      <use xlink:href="#DejaVuSans-6d" x="711.628906"/>
      <use xlink:href="#DejaVuSans-70" x="809.041016"/>
      <use xlink:href="#DejaVuSans-65" x="872.517578"/>
      <use xlink:href="#DejaVuSans-72" x="934.041016"/>
      <use xlink:href="#DejaVuSans-61" x="975.154297"/>
      <use xlink:href="#DejaVuSans-74" x="1036.433594"/>
      <use xlink:href="#DejaVuSans-75" x="1075.642578"/>
      <use xlink:href="#DejaVuSans-72" x="1139.021484"/>
      <use xlink:href="#DejaVuSans-65" x="1177.884766"/>
      <use xlink:href="#DejaVuSans-20" x="1239.408203"/>
      <use xlink:href="#DejaVuSans-3d" x="1271.195312"/>
      <use xlink:href="#DejaVuSans-20" x="1354.984375"/>
      <use xlink:href="#DejaVuSans-2d" x="1386.771484"/>
      <use xlink:href="#DejaVuSans-34" x="1422.855469"/>
      <use xlink:href="#DejaVuSans-30" x="1486.478516"/>
     </g>
    </g>
    <g id="line2d_36">
     <path d="M 425.54855 59.332812 
L 435.54855 59.332812 
L 445.54855 59.332812 
" style="fill: none; stroke: #d62728; stroke-width: 1.5; stroke-linecap: square"/>
    </g>
    <g id="text_21">
     <!-- corner = tt, temperature = -40 -->
     <g transform="translate(453.54855 62.832812) scale(0.1 -0.1)">
      <use xlink:href="#DejaVuSans-63"/>
      <use xlink:href="#DejaVuSans-6f" x="54.980469"/>
      <use xlink:href="#DejaVuSans-72" x="116.162109"/>
      <use xlink:href="#DejaVuSans-6e" x="155.525391"/>
      <use xlink:href="#DejaVuSans-65" x="218.904297"/>
      <use xlink:href="#DejaVuSans-72" x="280.427734"/>
      <use xlink:href="#DejaVuSans-20" x="321.541016"/>
      <use xlink:href="#DejaVuSans-3d" x="353.328125"/>
      <use xlink:href="#DejaVuSans-20" x="437.117188"/>
      <use xlink:href="#DejaVuSans-74" x="468.904297"/>
      <use xlink:href="#DejaVuSans-74" x="508.113281"/>
      <use xlink:href="#DejaVuSans-2c" x="547.322266"/>
      <use xlink:href="#DejaVuSans-20" x="579.109375"/>
      <use xlink:href="#DejaVuSans-74" x="610.896484"/>
      <use xlink:href="#DejaVuSans-65" x="650.105469"/>
      <use xlink:href="#DejaVuSans-6d" x="711.628906"/>
      <use xlink:href="#DejaVuSans-70" x="809.041016"/>
      <use xlink:href="#DejaVuSans-65" x="872.517578"/>
      <use xlink:href="#DejaVuSans-72" x="934.041016"/>
      <use xlink:href="#DejaVuSans-61" x="975.154297"/>
      <use xlink:href="#DejaVuSans-74" x="1036.433594"/>
      <use xlink:href="#DejaVuSans-75" x="1075.642578"/>
      <use xlink:href="#DejaVuSans-72" x="1139.021484"/>
      <use xlink:href="#DejaVuSans-65" x="1177.884766"/>
      <use xlink:href="#DejaVuSans-20" x="1239.408203"/>
      <use xlink:href="#DejaVuSans-3d" x="1271.195312"/>
      <use xlink:href="#DejaVuSans-20" x="1354.984375"/>
      <use xlink:href="#DejaVuSans-2d" x="1386.771484"/>
      <use xlink:href="#DejaVuSans-34" x="1422.855469"/>
      <use xlink:href="#DejaVuSans-30" x="1486.478516"/>
     </g>
    </g>
    <g id="line2d_37">
     <path d="M 425.54855 74.010938 
L 435.54855 74.010938 
L 445.54855 74.010938 
" style="fill: none; stroke: #9467bd; stroke-width: 1.5; stroke-linecap: square"/>
    </g>
    <g id="text_22">
     <!-- corner = ff, temperature = -40 -->
     <g transform="translate(453.54855 77.510938) scale(0.1 -0.1)">
      <defs>
       <path id="DejaVuSans-66" d="M 2375 4863 
L 2375 4384 
L 1825 4384 
Q 1516 4384 1395 4259 
Q 1275 4134 1275 3809 
L 1275 3500 
L 2222 3500 
L 2222 3053 
L 1275 3053 
L 1275 0 
L 697 0 
L 697 3053 
L 147 3053 
L 147 3500 
L 697 3500 
L 697 3744 
Q 697 4328 969 4595 
Q 1241 4863 1831 4863 
L 2375 4863 
z
" transform="scale(0.015625)"/>
      </defs>
      <use xlink:href="#DejaVuSans-63"/>
      <use xlink:href="#DejaVuSans-6f" x="54.980469"/>
      <use xlink:href="#DejaVuSans-72" x="116.162109"/>
      <use xlink:href="#DejaVuSans-6e" x="155.525391"/>
      <use xlink:href="#DejaVuSans-65" x="218.904297"/>
      <use xlink:href="#DejaVuSans-72" x="280.427734"/>
      <use xlink:href="#DejaVuSans-20" x="321.541016"/>
      <use xlink:href="#DejaVuSans-3d" x="353.328125"/>
      <use xlink:href="#DejaVuSans-20" x="437.117188"/>
      <use xlink:href="#DejaVuSans-66" x="468.904297"/>
      <use xlink:href="#DejaVuSans-66" x="504.109375"/>
      <use xlink:href="#DejaVuSans-2c" x="539.314453"/>
      <use xlink:href="#DejaVuSans-20" x="571.101562"/>
      <use xlink:href="#DejaVuSans-74" x="602.888672"/>
      <use xlink:href="#DejaVuSans-65" x="642.097656"/>
      <use xlink:href="#DejaVuSans-6d" x="703.621094"/>
      <use xlink:href="#DejaVuSans-70" x="801.033203"/>
      <use xlink:href="#DejaVuSans-65" x="864.509766"/>
      <use xlink:href="#DejaVuSans-72" x="926.033203"/>
      <use xlink:href="#DejaVuSans-61" x="967.146484"/>
      <use xlink:href="#DejaVuSans-74" x="1028.425781"/>
      <use xlink:href="#DejaVuSans-75" x="1067.634766"/>
      <use xlink:href="#DejaVuSans-72" x="1131.013672"/>
      <use xlink:href="#DejaVuSans-65" x="1169.876953"/>
      <use xlink:href="#DejaVuSans-20" x="1231.400391"/>
      <use xlink:href="#DejaVuSans-3d" x="1263.1875"/>
      <use xlink:href="#DejaVuSans-20" x="1346.976562"/>
      <use xlink:href="#DejaVuSans-2d" x="1378.763672"/>
      <use xlink:href="#DejaVuSans-34" x="1414.847656"/>
      <use xlink:href="#DejaVuSans-30" x="1478.470703"/>
     </g>
    </g>
    <g id="line2d_38">
     <path d="M 425.54855 88.689062 
L 435.54855 88.689062 
L 445.54855 88.689062 
" style="fill: none; stroke: #8c564b; stroke-width: 1.5; stroke-linecap: square"/>
    </g>
    <g id="text_23">
     <!-- corner = ff, temperature = -40 -->
     <g transform="translate(453.54855 92.189062) scale(0.1 -0.1)">
      <use xlink:href="#DejaVuSans-63"/>
      <use xlink:href="#DejaVuSans-6f" x="54.980469"/>
      <use xlink:href="#DejaVuSans-72" x="116.162109"/>
      <use xlink:href="#DejaVuSans-6e" x="155.525391"/>
      <use xlink:href="#DejaVuSans-65" x="218.904297"/>
      <use xlink:href="#DejaVuSans-72" x="280.427734"/>
      <use xlink:href="#DejaVuSans-20" x="321.541016"/>
      <use xlink:href="#DejaVuSans-3d" x="353.328125"/>
      <use xlink:href="#DejaVuSans-20" x="437.117188"/>
      <use xlink:href="#DejaVuSans-66" x="468.904297"/>
      <use xlink:href="#DejaVuSans-66" x="504.109375"/>
      <use xlink:href="#DejaVuSans-2c" x="539.314453"/>
      <use xlink:href="#DejaVuSans-20" x="571.101562"/>
      <use xlink:href="#DejaVuSans-74" x="602.888672"/>
      <use xlink:href="#DejaVuSans-65" x="642.097656"/>
      <use xlink:href="#DejaVuSans-6d" x="703.621094"/>
      <use xlink:href="#DejaVuSans-70" x="801.033203"/>
      <use xlink:href="#DejaVuSans-65" x="864.509766"/>
      <use xlink:href="#DejaVuSans-72" x="926.033203"/>
      <use xlink:href="#DejaVuSans-61" x="967.146484"/>
      <use xlink:href="#DejaVuSans-74" x="1028.425781"/>
      <use xlink:href="#DejaVuSans-75" x="1067.634766"/>
      <use xlink:href="#DejaVuSans-72" x="1131.013672"/>
      <use xlink:href="#DejaVuSans-65" x="1169.876953"/>
      <use xlink:href="#DejaVuSans-20" x="1231.400391"/>
      <use xlink:href="#DejaVuSans-3d" x="1263.1875"/>
      <use xlink:href="#DejaVuSans-20" x="1346.976562"/>
      <use xlink:href="#DejaVuSans-2d" x="1378.763672"/>
      <use xlink:href="#DejaVuSans-34" x="1414.847656"/>
      <use xlink:href="#DejaVuSans-30" x="1478.470703"/>
     </g>
    </g>
    <g id="line2d_39">
     <path d="M 425.54855 103.367188 
L 435.54855 103.367188 
L 445.54855 103.367188 
" style="fill: none; stroke: #e377c2; stroke-width: 1.5; stroke-linecap: square"/>
    </g>
    <g id="text_24">
     <!-- corner = ss, temperature = 27 -->
     <g transform="translate(453.54855 106.867188) scale(0.1 -0.1)">
      <use xlink:href="#DejaVuSans-63"/>
      <use xlink:href="#DejaVuSans-6f" x="54.980469"/>
      <use xlink:href="#DejaVuSans-72" x="116.162109"/>
      <use xlink:href="#DejaVuSans-6e" x="155.525391"/>
      <use xlink:href="#DejaVuSans-65" x="218.904297"/>
      <use xlink:href="#DejaVuSans-72" x="280.427734"/>
      <use xlink:href="#DejaVuSans-20" x="321.541016"/>
      <use xlink:href="#DejaVuSans-3d" x="353.328125"/>
      <use xlink:href="#DejaVuSans-20" x="437.117188"/>
      <use xlink:href="#DejaVuSans-73" x="468.904297"/>
      <use xlink:href="#DejaVuSans-73" x="521.003906"/>
      <use xlink:href="#DejaVuSans-2c" x="573.103516"/>
      <use xlink:href="#DejaVuSans-20" x="604.890625"/>
      <use xlink:href="#DejaVuSans-74" x="636.677734"/>
      <use xlink:href="#DejaVuSans-65" x="675.886719"/>
      <use xlink:href="#DejaVuSans-6d" x="737.410156"/>
      <use xlink:href="#DejaVuSans-70" x="834.822266"/>
      <use xlink:href="#DejaVuSans-65" x="898.298828"/>
      <use xlink:href="#DejaVuSans-72" x="959.822266"/>
      <use xlink:href="#DejaVuSans-61" x="1000.935547"/>
      <use xlink:href="#DejaVuSans-74" x="1062.214844"/>
      <use xlink:href="#DejaVuSans-75" x="1101.423828"/>
      <use xlink:href="#DejaVuSans-72" x="1164.802734"/>
      <use xlink:href="#DejaVuSans-65" x="1203.666016"/>
      <use xlink:href="#DejaVuSans-20" x="1265.189453"/>
      <use xlink:href="#DejaVuSans-3d" x="1296.976562"/>
      <use xlink:href="#DejaVuSans-20" x="1380.765625"/>
      <use xlink:href="#DejaVuSans-32" x="1412.552734"/>
      <use xlink:href="#DejaVuSans-37" x="1476.175781"/>
     </g>
    </g>
    <g id="line2d_40">
     <path d="M 425.54855 118.045312 
L 435.54855 118.045312 
L 445.54855 118.045312 
" style="fill: none; stroke: #7f7f7f; stroke-width: 1.5; stroke-linecap: square"/>
    </g>
    <g id="text_25">
     <!-- corner = ss, temperature = 27 -->
     <g transform="translate(453.54855 121.545312) scale(0.1 -0.1)">
      <use xlink:href="#DejaVuSans-63"/>
      <use xlink:href="#DejaVuSans-6f" x="54.980469"/>
      <use xlink:href="#DejaVuSans-72" x="116.162109"/>
      <use xlink:href="#DejaVuSans-6e" x="155.525391"/>
      <use xlink:href="#DejaVuSans-65" x="218.904297"/>
      <use xlink:href="#DejaVuSans-72" x="280.427734"/>
      <use xlink:href="#DejaVuSans-20" x="321.541016"/>
      <use xlink:href="#DejaVuSans-3d" x="353.328125"/>
      <use xlink:href="#DejaVuSans-20" x="437.117188"/>
      <use xlink:href="#DejaVuSans-73" x="468.904297"/>
      <use xlink:href="#DejaVuSans-73" x="521.003906"/>
      <use xlink:href="#DejaVuSans-2c" x="573.103516"/>
      <use xlink:href="#DejaVuSans-20" x="604.890625"/>
      <use xlink:href="#DejaVuSans-74" x="636.677734"/>
      <use xlink:href="#DejaVuSans-65" x="675.886719"/>
      <use xlink:href="#DejaVuSans-6d" x="737.410156"/>
      <use xlink:href="#DejaVuSans-70" x="834.822266"/>
      <use xlink:href="#DejaVuSans-65" x="898.298828"/>
      <use xlink:href="#DejaVuSans-72" x="959.822266"/>
      <use xlink:href="#DejaVuSans-61" x="1000.935547"/>
      <use xlink:href="#DejaVuSans-74" x="1062.214844"/>
      <use xlink:href="#DejaVuSans-75" x="1101.423828"/>
      <use xlink:href="#DejaVuSans-72" x="1164.802734"/>
      <use xlink:href="#DejaVuSans-65" x="1203.666016"/>
      <use xlink:href="#DejaVuSans-20" x="1265.189453"/>
      <use xlink:href="#DejaVuSans-3d" x="1296.976562"/>
      <use xlink:href="#DejaVuSans-20" x="1380.765625"/>
      <use xlink:href="#DejaVuSans-32" x="1412.552734"/>
      <use xlink:href="#DejaVuSans-37" x="1476.175781"/>
     </g>
    </g>
    <g id="line2d_41">
     <path d="M 425.54855 132.723437 
L 435.54855 132.723437 
L 445.54855 132.723437 
" style="fill: none; stroke: #bcbd22; stroke-width: 1.5; stroke-linecap: square"/>
    </g>
    <g id="text_26">
     <!-- corner = tt, temperature = 27 -->
     <g transform="translate(453.54855 136.223437) scale(0.1 -0.1)">
      <use xlink:href="#DejaVuSans-63"/>
      <use xlink:href="#DejaVuSans-6f" x="54.980469"/>
      <use xlink:href="#DejaVuSans-72" x="116.162109"/>
      <use xlink:href="#DejaVuSans-6e" x="155.525391"/>
      <use xlink:href="#DejaVuSans-65" x="218.904297"/>
      <use xlink:href="#DejaVuSans-72" x="280.427734"/>
      <use xlink:href="#DejaVuSans-20" x="321.541016"/>
      <use xlink:href="#DejaVuSans-3d" x="353.328125"/>
      <use xlink:href="#DejaVuSans-20" x="437.117188"/>
      <use xlink:href="#DejaVuSans-74" x="468.904297"/>
      <use xlink:href="#DejaVuSans-74" x="508.113281"/>
      <use xlink:href="#DejaVuSans-2c" x="547.322266"/>
      <use xlink:href="#DejaVuSans-20" x="579.109375"/>
      <use xlink:href="#DejaVuSans-74" x="610.896484"/>
      <use xlink:href="#DejaVuSans-65" x="650.105469"/>
      <use xlink:href="#DejaVuSans-6d" x="711.628906"/>
      <use xlink:href="#DejaVuSans-70" x="809.041016"/>
      <use xlink:href="#DejaVuSans-65" x="872.517578"/>
      <use xlink:href="#DejaVuSans-72" x="934.041016"/>
      <use xlink:href="#DejaVuSans-61" x="975.154297"/>
      <use xlink:href="#DejaVuSans-74" x="1036.433594"/>
      <use xlink:href="#DejaVuSans-75" x="1075.642578"/>
      <use xlink:href="#DejaVuSans-72" x="1139.021484"/>
      <use xlink:href="#DejaVuSans-65" x="1177.884766"/>
      <use xlink:href="#DejaVuSans-20" x="1239.408203"/>
      <use xlink:href="#DejaVuSans-3d" x="1271.195312"/>
      <use xlink:href="#DejaVuSans-20" x="1354.984375"/>
      <use xlink:href="#DejaVuSans-32" x="1386.771484"/>
      <use xlink:href="#DejaVuSans-37" x="1450.394531"/>
     </g>
    </g>
    <g id="line2d_42">
     <path d="M 425.54855 147.401562 
L 435.54855 147.401562 
L 445.54855 147.401562 
" style="fill: none; stroke: #17becf; stroke-width: 1.5; stroke-linecap: square"/>
    </g>
    <g id="text_27">
     <!-- corner = tt, temperature = 27 -->
     <g transform="translate(453.54855 150.901562) scale(0.1 -0.1)">
      <use xlink:href="#DejaVuSans-63"/>
      <use xlink:href="#DejaVuSans-6f" x="54.980469"/>
      <use xlink:href="#DejaVuSans-72" x="116.162109"/>
      <use xlink:href="#DejaVuSans-6e" x="155.525391"/>
      <use xlink:href="#DejaVuSans-65" x="218.904297"/>
      <use xlink:href="#DejaVuSans-72" x="280.427734"/>
      <use xlink:href="#DejaVuSans-20" x="321.541016"/>
      <use xlink:href="#DejaVuSans-3d" x="353.328125"/>
      <use xlink:href="#DejaVuSans-20" x="437.117188"/>
      <use xlink:href="#DejaVuSans-74" x="468.904297"/>
      <use xlink:href="#DejaVuSans-74" x="508.113281"/>
      <use xlink:href="#DejaVuSans-2c" x="547.322266"/>
      <use xlink:href="#DejaVuSans-20" x="579.109375"/>
      <use xlink:href="#DejaVuSans-74" x="610.896484"/>
      <use xlink:href="#DejaVuSans-65" x="650.105469"/>
      <use xlink:href="#DejaVuSans-6d" x="711.628906"/>
      <use xlink:href="#DejaVuSans-70" x="809.041016"/>
      <use xlink:href="#DejaVuSans-65" x="872.517578"/>
      <use xlink:href="#DejaVuSans-72" x="934.041016"/>
      <use xlink:href="#DejaVuSans-61" x="975.154297"/>
      <use xlink:href="#DejaVuSans-74" x="1036.433594"/>
      <use xlink:href="#DejaVuSans-75" x="1075.642578"/>
      <use xlink:href="#DejaVuSans-72" x="1139.021484"/>
      <use xlink:href="#DejaVuSans-65" x="1177.884766"/>
      <use xlink:href="#DejaVuSans-20" x="1239.408203"/>
      <use xlink:href="#DejaVuSans-3d" x="1271.195312"/>
      <use xlink:href="#DejaVuSans-20" x="1354.984375"/>
      <use xlink:href="#DejaVuSans-32" x="1386.771484"/>
      <use xlink:href="#DejaVuSans-37" x="1450.394531"/>
     </g>
    </g>
    <g id="line2d_43">
     <path d="M 425.54855 162.079687 
L 435.54855 162.079687 
L 445.54855 162.079687 
" style="fill: none; stroke: #1f77b4; stroke-width: 1.5; stroke-linecap: square"/>
    </g>
    <g id="text_28">
     <!-- corner = ff, temperature = 27 -->
     <g transform="translate(453.54855 165.579687) scale(0.1 -0.1)">
      <use xlink:href="#DejaVuSans-63"/>
      <use xlink:href="#DejaVuSans-6f" x="54.980469"/>
      <use xlink:href="#DejaVuSans-72" x="116.162109"/>
      <use xlink:href="#DejaVuSans-6e" x="155.525391"/>
      <use xlink:href="#DejaVuSans-65" x="218.904297"/>
      <use xlink:href="#DejaVuSans-72" x="280.427734"/>
      <use xlink:href="#DejaVuSans-20" x="321.541016"/>
      <use xlink:href="#DejaVuSans-3d" x="353.328125"/>
      <use xlink:href="#DejaVuSans-20" x="437.117188"/>
      <use xlink:href="#DejaVuSans-66" x="468.904297"/>
      <use xlink:href="#DejaVuSans-66" x="504.109375"/>
      <use xlink:href="#DejaVuSans-2c" x="539.314453"/>
      <use xlink:href="#DejaVuSans-20" x="571.101562"/>
      <use xlink:href="#DejaVuSans-74" x="602.888672"/>
      <use xlink:href="#DejaVuSans-65" x="642.097656"/>
      <use xlink:href="#DejaVuSans-6d" x="703.621094"/>
      <use xlink:href="#DejaVuSans-70" x="801.033203"/>
      <use xlink:href="#DejaVuSans-65" x="864.509766"/>
      <use xlink:href="#DejaVuSans-72" x="926.033203"/>
      <use xlink:href="#DejaVuSans-61" x="967.146484"/>
      <use xlink:href="#DejaVuSans-74" x="1028.425781"/>
      <use xlink:href="#DejaVuSans-75" x="1067.634766"/>
      <use xlink:href="#DejaVuSans-72" x="1131.013672"/>
      <use xlink:href="#DejaVuSans-65" x="1169.876953"/>
      <use xlink:href="#DejaVuSans-20" x="1231.400391"/>
      <use xlink:href="#DejaVuSans-3d" x="1263.1875"/>
      <use xlink:href="#DejaVuSans-20" x="1346.976562"/>
      <use xlink:href="#DejaVuSans-32" x="1378.763672"/>
      <use xlink:href="#DejaVuSans-37" x="1442.386719"/>
     </g>
    </g>
    <g id="line2d_44">
     <path d="M 425.54855 176.757812 
L 435.54855 176.757812 
L 445.54855 176.757812 
" style="fill: none; stroke: #ff7f0e; stroke-width: 1.5; stroke-linecap: square"/>
    </g>
    <g id="text_29">
     <!-- corner = ff, temperature = 27 -->
     <g transform="translate(453.54855 180.257812) scale(0.1 -0.1)">
      <use xlink:href="#DejaVuSans-63"/>
      <use xlink:href="#DejaVuSans-6f" x="54.980469"/>
      <use xlink:href="#DejaVuSans-72" x="116.162109"/>
      <use xlink:href="#DejaVuSans-6e" x="155.525391"/>
      <use xlink:href="#DejaVuSans-65" x="218.904297"/>
      <use xlink:href="#DejaVuSans-72" x="280.427734"/>
      <use xlink:href="#DejaVuSans-20" x="321.541016"/>
      <use xlink:href="#DejaVuSans-3d" x="353.328125"/>
      <use xlink:href="#DejaVuSans-20" x="437.117188"/>
      <use xlink:href="#DejaVuSans-66" x="468.904297"/>
      <use xlink:href="#DejaVuSans-66" x="504.109375"/>
      <use xlink:href="#DejaVuSans-2c" x="539.314453"/>
      <use xlink:href="#DejaVuSans-20" x="571.101562"/>
      <use xlink:href="#DejaVuSans-74" x="602.888672"/>
      <use xlink:href="#DejaVuSans-65" x="642.097656"/>
      <use xlink:href="#DejaVuSans-6d" x="703.621094"/>
      <use xlink:href="#DejaVuSans-70" x="801.033203"/>
      <use xlink:href="#DejaVuSans-65" x="864.509766"/>
      <use xlink:href="#DejaVuSans-72" x="926.033203"/>
      <use xlink:href="#DejaVuSans-61" x="967.146484"/>
      <use xlink:href="#DejaVuSans-74" x="1028.425781"/>
      <use xlink:href="#DejaVuSans-75" x="1067.634766"/>
      <use xlink:href="#DejaVuSans-72" x="1131.013672"/>
      <use xlink:href="#DejaVuSans-65" x="1169.876953"/>
      <use xlink:href="#DejaVuSans-20" x="1231.400391"/>
      <use xlink:href="#DejaVuSans-3d" x="1263.1875"/>
      <use xlink:href="#DejaVuSans-20" x="1346.976562"/>
      <use xlink:href="#DejaVuSans-32" x="1378.763672"/>
      <use xlink:href="#DejaVuSans-37" x="1442.386719"/>
     </g>
    </g>
    <g id="line2d_45">
     <path d="M 425.54855 191.435937 
L 435.54855 191.435937 
L 445.54855 191.435937 
" style="fill: none; stroke: #2ca02c; stroke-width: 1.5; stroke-linecap: square"/>
    </g>
    <g id="text_30">
     <!-- corner = ss, temperature = 130 -->
     <g transform="translate(453.54855 194.935937) scale(0.1 -0.1)">
      <use xlink:href="#DejaVuSans-63"/>
      <use xlink:href="#DejaVuSans-6f" x="54.980469"/>
      <use xlink:href="#DejaVuSans-72" x="116.162109"/>
      <use xlink:href="#DejaVuSans-6e" x="155.525391"/>
      <use xlink:href="#DejaVuSans-65" x="218.904297"/>
      <use xlink:href="#DejaVuSans-72" x="280.427734"/>
      <use xlink:href="#DejaVuSans-20" x="321.541016"/>
      <use xlink:href="#DejaVuSans-3d" x="353.328125"/>
      <use xlink:href="#DejaVuSans-20" x="437.117188"/>
      <use xlink:href="#DejaVuSans-73" x="468.904297"/>
      <use xlink:href="#DejaVuSans-73" x="521.003906"/>
      <use xlink:href="#DejaVuSans-2c" x="573.103516"/>
      <use xlink:href="#DejaVuSans-20" x="604.890625"/>
      <use xlink:href="#DejaVuSans-74" x="636.677734"/>
      <use xlink:href="#DejaVuSans-65" x="675.886719"/>
      <use xlink:href="#DejaVuSans-6d" x="737.410156"/>
      <use xlink:href="#DejaVuSans-70" x="834.822266"/>
      <use xlink:href="#DejaVuSans-65" x="898.298828"/>
      <use xlink:href="#DejaVuSans-72" x="959.822266"/>
      <use xlink:href="#DejaVuSans-61" x="1000.935547"/>
      <use xlink:href="#DejaVuSans-74" x="1062.214844"/>
      <use xlink:href="#DejaVuSans-75" x="1101.423828"/>
      <use xlink:href="#DejaVuSans-72" x="1164.802734"/>
      <use xlink:href="#DejaVuSans-65" x="1203.666016"/>
      <use xlink:href="#DejaVuSans-20" x="1265.189453"/>
      <use xlink:href="#DejaVuSans-3d" x="1296.976562"/>
      <use xlink:href="#DejaVuSans-20" x="1380.765625"/>
      <use xlink:href="#DejaVuSans-31" x="1412.552734"/>
      <use xlink:href="#DejaVuSans-33" x="1476.175781"/>
      <use xlink:href="#DejaVuSans-30" x="1539.798828"/>
     </g>
    </g>
    <g id="line2d_46">
     <path d="M 425.54855 206.114062 
L 435.54855 206.114062 
L 445.54855 206.114062 
" style="fill: none; stroke: #d62728; stroke-width: 1.5; stroke-linecap: square"/>
    </g>
    <g id="text_31">
     <!-- corner = ss, temperature = 130 -->
     <g transform="translate(453.54855 209.614062) scale(0.1 -0.1)">
      <use xlink:href="#DejaVuSans-63"/>
      <use xlink:href="#DejaVuSans-6f" x="54.980469"/>
      <use xlink:href="#DejaVuSans-72" x="116.162109"/>
      <use xlink:href="#DejaVuSans-6e" x="155.525391"/>
      <use xlink:href="#DejaVuSans-65" x="218.904297"/>
      <use xlink:href="#DejaVuSans-72" x="280.427734"/>
      <use xlink:href="#DejaVuSans-20" x="321.541016"/>
      <use xlink:href="#DejaVuSans-3d" x="353.328125"/>
      <use xlink:href="#DejaVuSans-20" x="437.117188"/>
      <use xlink:href="#DejaVuSans-73" x="468.904297"/>
      <use xlink:href="#DejaVuSans-73" x="521.003906"/>
      <use xlink:href="#DejaVuSans-2c" x="573.103516"/>
      <use xlink:href="#DejaVuSans-20" x="604.890625"/>
      <use xlink:href="#DejaVuSans-74" x="636.677734"/>
      <use xlink:href="#DejaVuSans-65" x="675.886719"/>
      <use xlink:href="#DejaVuSans-6d" x="737.410156"/>
      <use xlink:href="#DejaVuSans-70" x="834.822266"/>
      <use xlink:href="#DejaVuSans-65" x="898.298828"/>
      <use xlink:href="#DejaVuSans-72" x="959.822266"/>
      <use xlink:href="#DejaVuSans-61" x="1000.935547"/>
      <use xlink:href="#DejaVuSans-74" x="1062.214844"/>
      <use xlink:href="#DejaVuSans-75" x="1101.423828"/>
      <use xlink:href="#DejaVuSans-72" x="1164.802734"/>
      <use xlink:href="#DejaVuSans-65" x="1203.666016"/>
      <use xlink:href="#DejaVuSans-20" x="1265.189453"/>
      <use xlink:href="#DejaVuSans-3d" x="1296.976562"/>
      <use xlink:href="#DejaVuSans-20" x="1380.765625"/>
      <use xlink:href="#DejaVuSans-31" x="1412.552734"/>
      <use xlink:href="#DejaVuSans-33" x="1476.175781"/>
      <use xlink:href="#DejaVuSans-30" x="1539.798828"/>
     </g>
    </g>
    <g id="line2d_47">
     <path d="M 425.54855 220.792187 
L 435.54855 220.792187 
L 445.54855 220.792187 
" style="fill: none; stroke: #9467bd; stroke-width: 1.5; stroke-linecap: square"/>
    </g>
    <g id="text_32">
     <!-- corner = tt, temperature = 130 -->
     <g transform="translate(453.54855 224.292187) scale(0.1 -0.1)">
      <use xlink:href="#DejaVuSans-63"/>
      <use xlink:href="#DejaVuSans-6f" x="54.980469"/>
      <use xlink:href="#DejaVuSans-72" x="116.162109"/>
      <use xlink:href="#DejaVuSans-6e" x="155.525391"/>
      <use xlink:href="#DejaVuSans-65" x="218.904297"/>
      <use xlink:href="#DejaVuSans-72" x="280.427734"/>
      <use xlink:href="#DejaVuSans-20" x="321.541016"/>
      <use xlink:href="#DejaVuSans-3d" x="353.328125"/>
      <use xlink:href="#DejaVuSans-20" x="437.117188"/>
      <use xlink:href="#DejaVuSans-74" x="468.904297"/>
      <use xlink:href="#DejaVuSans-74" x="508.113281"/>
      <use xlink:href="#DejaVuSans-2c" x="547.322266"/>
      <use xlink:href="#DejaVuSans-20" x="579.109375"/>
      <use xlink:href="#DejaVuSans-74" x="610.896484"/>
      <use xlink:href="#DejaVuSans-65" x="650.105469"/>
      <use xlink:href="#DejaVuSans-6d" x="711.628906"/>
      <use xlink:href="#DejaVuSans-70" x="809.041016"/>
      <use xlink:href="#DejaVuSans-65" x="872.517578"/>
      <use xlink:href="#DejaVuSans-72" x="934.041016"/>
      <use xlink:href="#DejaVuSans-61" x="975.154297"/>
      <use xlink:href="#DejaVuSans-74" x="1036.433594"/>
      <use xlink:href="#DejaVuSans-75" x="1075.642578"/>
      <use xlink:href="#DejaVuSans-72" x="1139.021484"/>
      <use xlink:href="#DejaVuSans-65" x="1177.884766"/>
      <use xlink:href="#DejaVuSans-20" x="1239.408203"/>
      <use xlink:href="#DejaVuSans-3d" x="1271.195312"/>
      <use xlink:href="#DejaVuSans-20" x="1354.984375"/>
      <use xlink:href="#DejaVuSans-31" x="1386.771484"/>
      <use xlink:href="#DejaVuSans-33" x="1450.394531"/>
      <use xlink:href="#DejaVuSans-30" x="1514.017578"/>
     </g>
    </g>
    <g id="line2d_48">
     <path d="M 425.54855 235.470312 
L 435.54855 235.470312 
L 445.54855 235.470312 
" style="fill: none; stroke: #8c564b; stroke-width: 1.5; stroke-linecap: square"/>
    </g>
    <g id="text_33">
     <!-- corner = tt, temperature = 130 -->
     <g transform="translate(453.54855 238.970312) scale(0.1 -0.1)">
      <use xlink:href="#DejaVuSans-63"/>
      <use xlink:href="#DejaVuSans-6f" x="54.980469"/>
      <use xlink:href="#DejaVuSans-72" x="116.162109"/>
      <use xlink:href="#DejaVuSans-6e" x="155.525391"/>
      <use xlink:href="#DejaVuSans-65" x="218.904297"/>
      <use xlink:href="#DejaVuSans-72" x="280.427734"/>
      <use xlink:href="#DejaVuSans-20" x="321.541016"/>
      <use xlink:href="#DejaVuSans-3d" x="353.328125"/>
      <use xlink:href="#DejaVuSans-20" x="437.117188"/>
      <use xlink:href="#DejaVuSans-74" x="468.904297"/>
      <use xlink:href="#DejaVuSans-74" x="508.113281"/>
      <use xlink:href="#DejaVuSans-2c" x="547.322266"/>
      <use xlink:href="#DejaVuSans-20" x="579.109375"/>
      <use xlink:href="#DejaVuSans-74" x="610.896484"/>
      <use xlink:href="#DejaVuSans-65" x="650.105469"/>
      <use xlink:href="#DejaVuSans-6d" x="711.628906"/>
      <use xlink:href="#DejaVuSans-70" x="809.041016"/>
      <use xlink:href="#DejaVuSans-65" x="872.517578"/>
      <use xlink:href="#DejaVuSans-72" x="934.041016"/>
      <use xlink:href="#DejaVuSans-61" x="975.154297"/>
      <use xlink:href="#DejaVuSans-74" x="1036.433594"/>
      <use xlink:href="#DejaVuSans-75" x="1075.642578"/>
      <use xlink:href="#DejaVuSans-72" x="1139.021484"/>
      <use xlink:href="#DejaVuSans-65" x="1177.884766"/>
      <use xlink:href="#DejaVuSans-20" x="1239.408203"/>
      <use xlink:href="#DejaVuSans-3d" x="1271.195312"/>
      <use xlink:href="#DejaVuSans-20" x="1354.984375"/>
      <use xlink:href="#DejaVuSans-31" x="1386.771484"/>
      <use xlink:href="#DejaVuSans-33" x="1450.394531"/>
      <use xlink:href="#DejaVuSans-30" x="1514.017578"/>
     </g>
    </g>
    <g id="line2d_49">
     <path d="M 425.54855 250.148437 
L 435.54855 250.148437 
L 445.54855 250.148437 
" style="fill: none; stroke: #e377c2; stroke-width: 1.5; stroke-linecap: square"/>
    </g>
    <g id="text_34">
     <!-- corner = ff, temperature = 130 -->
     <g transform="translate(453.54855 253.648437) scale(0.1 -0.1)">
      <use xlink:href="#DejaVuSans-63"/>
      <use xlink:href="#DejaVuSans-6f" x="54.980469"/>
      <use xlink:href="#DejaVuSans-72" x="116.162109"/>
      <use xlink:href="#DejaVuSans-6e" x="155.525391"/>
      <use xlink:href="#DejaVuSans-65" x="218.904297"/>
      <use xlink:href="#DejaVuSans-72" x="280.427734"/>
      <use xlink:href="#DejaVuSans-20" x="321.541016"/>
      <use xlink:href="#DejaVuSans-3d" x="353.328125"/>
      <use xlink:href="#DejaVuSans-20" x="437.117188"/>
      <use xlink:href="#DejaVuSans-66" x="468.904297"/>
      <use xlink:href="#DejaVuSans-66" x="504.109375"/>
      <use xlink:href="#DejaVuSans-2c" x="539.314453"/>
      <use xlink:href="#DejaVuSans-20" x="571.101562"/>
      <use xlink:href="#DejaVuSans-74" x="602.888672"/>
      <use xlink:href="#DejaVuSans-65" x="642.097656"/>
      <use xlink:href="#DejaVuSans-6d" x="703.621094"/>
      <use xlink:href="#DejaVuSans-70" x="801.033203"/>
      <use xlink:href="#DejaVuSans-65" x="864.509766"/>
      <use xlink:href="#DejaVuSans-72" x="926.033203"/>
      <use xlink:href="#DejaVuSans-61" x="967.146484"/>
      <use xlink:href="#DejaVuSans-74" x="1028.425781"/>
      <use xlink:href="#DejaVuSans-75" x="1067.634766"/>
      <use xlink:href="#DejaVuSans-72" x="1131.013672"/>
      <use xlink:href="#DejaVuSans-65" x="1169.876953"/>
      <use xlink:href="#DejaVuSans-20" x="1231.400391"/>
      <use xlink:href="#DejaVuSans-3d" x="1263.1875"/>
      <use xlink:href="#DejaVuSans-20" x="1346.976562"/>
      <use xlink:href="#DejaVuSans-31" x="1378.763672"/>
      <use xlink:href="#DejaVuSans-33" x="1442.386719"/>
      <use xlink:href="#DejaVuSans-30" x="1506.009766"/>
     </g>
    </g>
    <g id="line2d_50">
     <path d="M 425.54855 264.826562 
L 435.54855 264.826562 
L 445.54855 264.826562 
" style="fill: none; stroke: #7f7f7f; stroke-width: 1.5; stroke-linecap: square"/>
    </g>
    <g id="text_35">
     <!-- corner = ff, temperature = 130 -->
     <g transform="translate(453.54855 268.326562) scale(0.1 -0.1)">
      <use xlink:href="#DejaVuSans-63"/>
      <use xlink:href="#DejaVuSans-6f" x="54.980469"/>
      <use xlink:href="#DejaVuSans-72" x="116.162109"/>
      <use xlink:href="#DejaVuSans-6e" x="155.525391"/>
      <use xlink:href="#DejaVuSans-65" x="218.904297"/>
      <use xlink:href="#DejaVuSans-72" x="280.427734"/>
      <use xlink:href="#DejaVuSans-20" x="321.541016"/>
      <use xlink:href="#DejaVuSans-3d" x="353.328125"/>
      <use xlink:href="#DejaVuSans-20" x="437.117188"/>
      <use xlink:href="#DejaVuSans-66" x="468.904297"/>
      <use xlink:href="#DejaVuSans-66" x="504.109375"/>
      <use xlink:href="#DejaVuSans-2c" x="539.314453"/>
      <use xlink:href="#DejaVuSans-20" x="571.101562"/>
      <use xlink:href="#DejaVuSans-74" x="602.888672"/>
      <use xlink:href="#DejaVuSans-65" x="642.097656"/>
      <use xlink:href="#DejaVuSans-6d" x="703.621094"/>
      <use xlink:href="#DejaVuSans-70" x="801.033203"/>
      <use xlink:href="#DejaVuSans-65" x="864.509766"/>
      <use xlink:href="#DejaVuSans-72" x="926.033203"/>
      <use xlink:href="#DejaVuSans-61" x="967.146484"/>
      <use xlink:href="#DejaVuSans-74" x="1028.425781"/>
      <use xlink:href="#DejaVuSans-75" x="1067.634766"/>
      <use xlink:href="#DejaVuSans-72" x="1131.013672"/>
      <use xlink:href="#DejaVuSans-65" x="1169.876953"/>
      <use xlink:href="#DejaVuSans-20" x="1231.400391"/>
      <use xlink:href="#DejaVuSans-3d" x="1263.1875"/>
      <use xlink:href="#DejaVuSans-20" x="1346.976562"/>
      <use xlink:href="#DejaVuSans-31" x="1378.763672"/>
      <use xlink:href="#DejaVuSans-33" x="1442.386719"/>
      <use xlink:href="#DejaVuSans-30" x="1506.009766"/>
     </g>
    </g>
   </g>
  </g>
 </g>
 <defs>
  <clipPath id="p99bbd5979e">
   <rect x="50.14375" y="7.2" width="357.12" height="266.112"/>
  </clipPath>
 </defs>
</svg>
